<svg width="40" height="40" viewBox="0 0 40 40" fill="none" xmlns="http://www.w3.org/2000/svg">
<path fill-rule="evenodd" clip-rule="evenodd" d="M23.6488 11.5558C23.4787 12.2472 23.1569 12.9272 22.5674 13.4685C21.8658 14.1126 21.0514 14.3114 20.4775 14.3922C20.0674 14.45 19.5787 14.4671 19.2116 14.48C19.1142 14.4834 19.0254 14.4865 18.9488 14.49C18.0858 14.5294 17.355 14.6306 16.5795 15.1275C15.7806 15.6393 14.7018 16.7277 13.5581 19.2056C13.3765 19.5992 13.0766 19.9263 12.7002 20.1414C10.5766 21.3548 9.50911 23.6603 9.03144 26.3992C8.726 28.1506 8.69537 29.8442 8.71344 31.25H9.99995C11.1505 31.25 12.0833 32.1827 12.0833 33.3333C12.0833 34.4839 11.1505 35.4167 9.99995 35.4167H6.66661C5.51602 35.4167 4.58328 34.4839 4.58328 33.3333C4.58328 33.1198 4.57641 32.8427 4.56824 32.5133C4.53035 30.9857 4.46457 28.3333 4.92673 25.6833C5.33686 23.3317 6.2063 20.6773 8.07689 18.5889C7.51902 17.9281 7.08369 17.025 7.08322 15.8341C7.08291 15.0232 7.42681 14.2863 7.70259 13.7956C8.01666 13.2367 8.43912 12.6595 8.92125 12.0985C9.88783 10.9739 11.2179 9.77107 12.7562 8.75176C15.7217 6.7867 20.1163 5.10591 24.2542 7.14082C27.743 8.85653 30.214 11.3327 31.8421 13.5329C33.4222 15.6681 34.3364 17.7223 34.5436 18.7583C34.6484 19.2825 34.7015 20.2291 34.7166 21.2587C34.7328 22.3559 34.7072 23.7327 34.6071 25.2107C34.4798 27.0891 34.2249 29.2569 33.7309 31.2501H34.1674C35.318 31.2501 36.2507 32.1829 36.2507 33.3335C36.2507 34.484 35.318 35.4168 34.1674 35.4168H30.834C30.1224 35.4168 29.46 35.0536 29.0774 34.4535C28.6948 33.8535 28.645 33.0997 28.9452 32.4545C29.7966 30.6248 30.2606 27.7229 30.4499 24.929C30.5419 23.5713 30.565 22.3091 30.5504 21.32C30.5431 20.8252 30.5266 20.4084 30.5059 20.0892C30.4955 19.9295 30.4845 19.8019 30.4742 19.7059C30.4631 19.6019 30.4558 19.5654 30.4578 19.5753C30.4579 19.5758 30.4578 19.5753 30.4574 19.5739C30.4539 19.5601 30.4264 19.4531 30.3455 19.2416C30.2629 19.0256 30.1414 18.7443 29.976 18.4114C29.6453 17.7455 29.1564 16.9082 28.4928 16.0114C27.3699 14.494 25.7785 12.8484 23.6488 11.5558ZM12.4999 23.75C12.4999 21.4488 14.3654 19.5833 16.6666 19.5833C18.9677 19.5833 20.8332 21.4488 20.8332 23.75C20.8332 26.0512 18.9677 27.9167 16.6666 27.9167C14.3654 27.9167 12.4999 26.0512 12.4999 23.75Z" fill="#F2F2F2"/>
</svg>
