<svg xmlns="http://www.w3.org/2000/svg" width="24" height="24" viewBox="0 0 24 24" fill="none">
  <path d="M12 2C17.5228 2 22 6.47715 22 12C22 17.5228 17.5228 22 12 22C10.298 22 8.69525 21.5748 7.29229 20.826L2 22L3.17397 16.7077C2.42509 15.3048 2 13.7021 2 12C2 6.47715 6.47715 2 12 2ZM12 4C7.58172 4 4 7.58172 4 12C4 13.3345 4.34035 14.5908 4.94055 15.6942L5.19591 16.1465L4.5 19.5L7.85348 18.8041L8.30583 19.0594C9.40919 19.6596 10.6655 20 12 20C16.4183 20 20 16.4183 20 12C20 7.58172 16.4183 4 12 4ZM8 11H16V13H8V11ZM8 8H16V10H8V8ZM8 14H13V16H8V14Z" fill="currentColor"/>
</svg>

