<svg xmlns="http://www.w3.org/2000/svg" width="24" height="24" viewBox="0 0 24 24" fill="none">
  <path d="M12 3C11.4477 3 11 3.44772 11 4V5C11 5.55228 11.4477 6 12 6C12.5523 6 13 5.55228 13 5V4C13 3.44772 12.5523 3 12 3Z" fill="currentColor"/>
  <path d="M8.5 6C7.11929 6 6 7.11929 6 8.5V15.5C6 16.8807 7.11929 18 8.5 18H10V20C10 20.5523 10.4477 21 11 21H13C13.5523 21 14 20.5523 14 20V18H15.5C16.8807 18 18 16.8807 18 15.5V8.5C18 7.11929 16.8807 6 15.5 6H8.5ZM8 8.5C8 8.22386 8.22386 8 8.5 8H15.5C15.7761 8 16 8.22386 16 8.5V15.5C16 15.7761 15.7761 16 15.5 16H8.5C8.22386 16 8 15.7761 8 15.5V8.5Z" fill="currentColor"/>
  <circle cx="10" cy="11" r="1" fill="currentColor"/>
  <circle cx="14" cy="11" r="1" fill="currentColor"/>
  <path d="M10 13.5C10 13.2239 10.2239 13 10.5 13H13.5C13.7761 13 14 13.2239 14 13.5C14 14.3284 13.3284 15 12.5 15H11.5C10.6716 15 10 14.3284 10 13.5Z" fill="currentColor"/>
</svg>

