<svg width="24" height="24" viewBox="0 0 24 24" fill="none" xmlns="http://www.w3.org/2000/svg">
<path d="M21.5306 10.2806L17.0306 14.7806C16.8899 14.9213 16.699 15.0004 16.5 15.0004C16.301 15.0004 16.1101 14.9213 15.9694 14.7806C15.8286 14.6399 15.7496 14.449 15.7496 14.25C15.7496 14.051 15.8286 13.8601 15.9694 13.7194L19.1897 10.5H12C9.81273 10.5025 7.71575 11.3725 6.16911 12.9191C4.62247 14.4657 3.75248 16.5627 3.75 18.75C3.75 18.9489 3.67098 19.1397 3.53033 19.2803C3.38968 19.421 3.19891 19.5 3 19.5C2.80109 19.5 2.61032 19.421 2.46967 19.2803C2.32902 19.1397 2.25 18.9489 2.25 18.75C2.25273 16.165 3.28084 13.6866 5.10872 11.8587C6.93661 10.0308 9.41498 9.00272 12 8.99999H19.1897L15.9694 5.78061C15.8997 5.71093 15.8444 5.62821 15.8067 5.53716C15.769 5.44612 15.7496 5.34854 15.7496 5.24999C15.7496 5.15144 15.769 5.05386 15.8067 4.96282C15.8444 4.87177 15.8997 4.78905 15.9694 4.71936C16.1101 4.57863 16.301 4.49957 16.5 4.49957C16.5985 4.49957 16.6961 4.51898 16.7872 4.55669C16.8782 4.59441 16.9609 4.64968 17.0306 4.71936L21.5306 9.21936C21.6004 9.28902 21.6557 9.37174 21.6934 9.46278C21.7312 9.55383 21.7506 9.65143 21.7506 9.74999C21.7506 9.84855 21.7312 9.94615 21.6934 10.0372C21.6557 10.1282 21.6004 10.211 21.5306 10.2806Z" fill="black"/>
</svg>
