<svg width="24" height="24" viewBox="0 0 24 24" fill="none" xmlns="http://www.w3.org/2000/svg">
<path d="M21.7501 18.75C21.7501 18.9489 21.6711 19.1397 21.5304 19.2803C21.3898 19.421 21.199 19.5 21.0001 19.5C20.8012 19.5 20.6104 19.421 20.4698 19.2803C20.3291 19.1397 20.2501 18.9489 20.2501 18.75C20.2476 16.5627 19.3776 14.4657 17.831 12.9191C16.2844 11.3725 14.1874 10.5025 12.0001 10.5H4.81041L8.03073 13.7194C8.17146 13.8601 8.25052 14.051 8.25052 14.25C8.25052 14.449 8.17146 14.6399 8.03073 14.7806C7.89 14.9213 7.69912 15.0004 7.5001 15.0004C7.30108 15.0004 7.11021 14.9213 6.96948 14.7806L2.46948 10.2806C2.39974 10.211 2.34442 10.1282 2.30668 10.0372C2.26894 9.94615 2.24951 9.84855 2.24951 9.74999C2.24951 9.65143 2.26894 9.55383 2.30668 9.46278C2.34442 9.37174 2.39974 9.28902 2.46948 9.21936L6.96948 4.71936C7.11021 4.57863 7.30108 4.49957 7.5001 4.49957C7.69912 4.49957 7.89 4.57863 8.03073 4.71936C8.17146 4.8601 8.25052 5.05097 8.25052 5.24999C8.25052 5.44901 8.17146 5.63988 8.03073 5.78061L4.81041 8.99999H12.0001C14.5851 9.00272 17.0635 10.0308 18.8914 11.8587C20.7193 13.6866 21.7474 16.165 21.7501 18.75Z" fill="black"/>
</svg>
