<svg width="40" height="40" viewBox="0 0 40 40" fill="none" xmlns="http://www.w3.org/2000/svg">
<path fill-rule="evenodd" clip-rule="evenodd" d="M23.436 10.2924C25.1083 5.15665 28.9035 2.08325 33.3338 2.08325C34.4844 2.08325 35.4172 3.01599 35.4172 4.16659C35.4172 5.31718 34.4844 6.24992 33.3338 6.24992C31.0976 6.24992 28.6426 7.75985 27.3979 11.5825C26.1379 15.4521 26.2128 21.6027 29.4463 30.0917C29.8559 31.1669 29.3163 32.3706 28.2411 32.7801C27.1658 33.1897 25.9622 32.6501 25.5526 31.5748C23.9134 27.2716 22.9792 23.3852 22.631 19.9448C22.1491 19.7902 21.8904 19.8389 21.7558 19.8753C21.4362 19.962 21.171 20.1521 20.4959 20.643C20.4821 20.653 20.468 20.6634 20.4535 20.6739C20.2195 20.8444 19.8878 21.0861 19.4719 21.3039L25.508 34.5833H27.4998C28.6504 34.5833 29.5832 35.516 29.5832 36.6666C29.5832 37.8172 28.6504 38.7499 27.4998 38.7499H24.1665C23.3495 38.7499 22.608 38.2724 22.2699 37.5287L14.9611 21.4493C13.2293 24.2694 11.5329 28.9997 10.3956 36.9611C10.2489 37.9874 9.36998 38.7497 8.33323 38.7498L4.9999 38.7499C3.8493 38.7499 2.91654 37.8172 2.9165 36.6666C2.91647 35.516 3.84918 34.5832 4.99978 34.5832L6.54342 34.5832C8.27051 23.949 11.1579 18.3343 14.6091 15.4782C17.5704 13.0276 20.7206 12.8553 22.7999 12.887C22.9581 11.9696 23.1716 11.1043 23.436 10.2924ZM27.9165 17.0833C27.9165 14.7821 29.782 12.9166 32.0832 12.9166C34.3844 12.9166 36.2498 14.7821 36.2498 17.0833C36.2498 19.3844 34.3844 21.2499 32.0832 21.2499C29.782 21.2499 27.9165 19.3844 27.9165 17.0833Z" fill="#F2F2F2"/>
</svg>
