<svg width="35" height="34" viewBox="0 0 35 34" fill="none" xmlns="http://www.w3.org/2000/svg">
<path fill-rule="evenodd" clip-rule="evenodd" d="M20.8324 3.34629C21.4166 3.31182 22.016 3.34595 22.6219 3.45611C26.1548 4.09846 28.7553 7.15376 28.814 10.7176C28.8142 10.7325 28.8147 10.7475 28.8153 10.7623C28.8141 10.7885 28.8135 10.8148 28.8135 10.8412V12.3568H32.1468V10.8412C32.1468 10.8171 32.1463 10.793 32.1453 10.7691C32.1469 10.7339 32.1475 10.6984 32.1469 10.6627C32.0618 5.49612 28.3032 1.1011 23.2182 0.176542C21.0839 -0.211503 18.994 0.0560563 17.1468 0.822919C15.2996 0.0560877 13.2097 -0.211456 11.0754 0.176582C5.93168 1.11181 2.14681 5.59814 2.14681 10.8412V12.3568H5.48014V10.8412C5.48014 7.22404 8.09818 4.10589 11.6717 3.45615C12.2776 3.34599 12.8769 3.31186 13.4611 3.34633C11.6296 5.2573 10.4801 7.85148 10.4801 10.7593C10.4801 10.7593 10.4801 10.7593 10.4801 10.7593V14.8576C10.4801 18.5395 13.4649 21.5243 17.1468 21.5243C20.8287 21.5243 23.8135 18.5395 23.8135 14.8576V10.7593C23.8135 7.85148 22.664 5.25728 20.8324 3.34629ZM17.1468 4.58284C15.1496 5.90744 13.8135 8.15772 13.8135 10.7593C13.8135 10.7593 13.8135 10.7593 13.8135 10.7593V14.8576C13.8135 16.6985 15.3059 18.1909 17.1468 18.1909C18.9878 18.1909 20.4801 16.6985 20.4801 14.8576V10.7593C20.4801 8.15774 19.144 5.90744 17.1468 4.58284ZM1.55445 14.8568C0.348048 14.8568 -0.397114 16.1729 0.223576 17.2074C0.930022 18.3848 1.2262 19.7632 1.06577 21.1269L0.0845374 29.4673C-0.148597 31.449 1.39973 33.1901 3.39504 33.1901H4.23141C6.22673 33.1901 7.77505 31.449 7.54192 29.4673L6.56068 21.1269C6.40025 19.7632 6.69643 18.3848 7.40288 17.2074C8.02357 16.1729 7.27841 14.8568 6.072 14.8568H1.55445ZM28.2211 14.8568C27.0147 14.8568 26.2696 16.1729 26.8902 17.2074C27.5967 18.3848 27.8929 19.7632 27.7324 21.1269L26.7512 29.4673C26.5181 31.449 28.0664 33.1901 30.0617 33.1901H30.8981C32.8934 33.1901 34.4417 31.449 34.2086 29.4673L33.2273 21.1269C33.0669 19.7632 33.3631 18.3848 34.0695 17.2074C34.6902 16.1729 33.9451 14.8568 32.7387 14.8568H28.2211Z" fill="#BA9BF7"/>
</svg>
