<svg width="23" height="23" viewBox="0 0 23 23" fill="none" xmlns="http://www.w3.org/2000/svg">
<path d="M1.50098 0.25C1.83246 0.250111 2.15035 0.381828 2.38477 0.616211L12.3848 10.6162L12.4678 10.707C12.5456 10.8018 12.6091 10.9078 12.6562 11.0215C12.7192 11.1732 12.751 11.3367 12.751 11.501C12.7509 11.6651 12.7191 11.8279 12.6562 11.9795C12.6091 12.0932 12.5456 12.1992 12.4678 12.2939L12.3848 12.3848L2.38477 22.3848C2.15034 22.6192 1.83249 22.7509 1.50098 22.751C1.16931 22.751 0.850736 22.6193 0.616211 22.3848C0.381828 22.1503 0.250111 21.8325 0.25 21.501C0.25 21.1693 0.381686 20.8507 0.616211 20.6162L9.73242 11.5L0.616211 2.38477C0.381828 2.15035 0.250111 1.83246 0.25 1.50098C0.25 1.16931 0.381686 0.850736 0.616211 0.616211C0.850736 0.381686 1.16931 0.25 1.50098 0.25ZM11.501 0.25C11.8325 0.250111 12.1503 0.381827 12.3848 0.616211L22.3848 10.6162L22.4678 10.707C22.5456 10.8018 22.6091 10.9078 22.6562 11.0215C22.7192 11.1732 22.751 11.3367 22.751 11.501C22.7509 11.6651 22.7191 11.8279 22.6562 11.9795C22.6091 12.0932 22.5456 12.1992 22.4678 12.2939L22.3848 12.3848L12.3848 22.3848C12.1503 22.6192 11.8325 22.7509 11.501 22.751C11.1693 22.751 10.8507 22.6193 10.6162 22.3848C10.3818 22.1503 10.2501 21.8325 10.25 21.501C10.25 21.1693 10.3817 20.8507 10.6162 20.6162L19.7324 11.5L10.6162 2.38477C10.3818 2.15035 10.2501 1.83246 10.25 1.50098C10.25 1.16931 10.3817 0.850736 10.6162 0.616211C10.8507 0.381686 11.1693 0.25 11.501 0.25Z" fill="white" stroke="white" stroke-width="0.5"/>
</svg>
