<svg width="40" height="40" viewBox="0 0 40 40" fill="none" xmlns="http://www.w3.org/2000/svg">
<path d="M7 33.6C7 34.2365 7.25681 34.847 7.71393 35.2971C8.17105 35.7471 8.79103 36 9.4375 36H11.875V4H9.4375C8.79103 4 8.17105 4.25286 7.71393 4.70294C7.25681 5.15303 7 5.76348 7 6.4V33.6ZM13.5 4V36H29.75C30.612 36 31.4386 35.6629 32.0481 35.0627C32.6576 34.4626 33 33.6487 33 32.8V7.2C33 6.35131 32.6576 5.53737 32.0481 4.93726C31.4386 4.33714 30.612 4 29.75 4H13.5ZM24.875 16.8H16.75V15.2H24.875V16.8ZM29.75 13.6H16.75V12H29.75V13.6Z" fill="white"/>
</svg>
