<svg width="37" height="37" viewBox="0 0 37 37" fill="none" xmlns="http://www.w3.org/2000/svg">
<path fill-rule="evenodd" clip-rule="evenodd" d="M30.4388 0.976318C29.1371 -0.325429 27.0265 -0.325429 25.7248 0.976319L25.1356 1.56565L34.5637 10.9937L35.1529 10.4044C36.4546 9.10266 36.4546 6.99211 35.1529 5.69036L30.4388 0.976318ZM16.8861 1.56546C18.18 0.271504 20.2731 0.26376 21.5767 1.54223L34.587 14.5525C35.8654 15.8561 35.8577 17.9492 34.5637 19.2431C33.262 20.5449 31.1514 20.5449 29.8497 19.2431L26.3142 15.7076L26.3141 15.7077L20.4215 9.81515L20.4216 9.81504L16.8861 6.27951C15.5843 4.97776 15.5843 2.86721 16.8861 1.56546ZM18.6537 11.5829L11.5827 18.654L17.4752 24.5465L24.5463 17.4755L18.6537 11.5829ZM1.56543 16.8861C2.85941 15.5921 4.95258 15.5844 6.2561 16.863L19.2662 29.8731C20.5448 31.1766 20.5371 33.2698 19.2431 34.5638C17.9414 35.8655 15.8308 35.8655 14.5291 34.5638L12.7616 32.7964L12.7615 32.7965L3.33344 23.3684L3.33355 23.3683L1.56543 21.6002C0.263681 20.2984 0.263682 18.1879 1.56543 16.8861ZM1.56567 25.1362L0.977083 25.7247C-0.324668 27.0265 -0.324667 29.137 0.977081 30.4388L5.69113 35.1528C6.99287 36.4546 9.10342 36.4546 10.4052 35.1528L10.9938 34.5642L1.56567 25.1362Z" fill="#BA9BF7"/>
</svg>
