<svg width="29" height="29" viewBox="0 0 29 29" fill="none" xmlns="http://www.w3.org/2000/svg">
<path fill-rule="evenodd" clip-rule="evenodd" d="M24.3495 0.781031C23.3081 -0.260367 21.6197 -0.260367 20.5783 0.781031L20.1069 1.25249L27.6494 8.79497L28.1207 8.3235C29.1621 7.28211 29.1621 5.59367 28.1207 4.55227L24.3495 0.781031ZM13.5073 1.25235C14.5425 0.217179 16.217 0.210984 17.2598 1.23376L27.668 11.642C28.6908 12.6848 28.6846 14.3593 27.6494 15.3945C26.608 16.4359 24.9196 16.4359 23.8782 15.3945L21.0498 12.5661L21.0497 12.5661L16.3356 7.8521L16.3357 7.85201L13.5073 5.02358C12.4659 3.98218 12.4659 2.29374 13.5073 1.25235ZM14.9214 9.26631L9.26457 14.9232L13.9786 19.6372L19.6355 13.9804L14.9214 9.26631ZM1.25078 13.5089C2.28597 12.4737 3.9605 12.4675 5.00332 13.4903L15.4114 23.8985C16.4343 24.9413 16.4281 26.6158 15.3929 27.651C14.3515 28.6924 12.6631 28.6924 11.6217 27.651L10.2078 26.2371L10.2077 26.2372L2.66519 18.6947L2.66528 18.6946L1.25078 17.2801C0.209381 16.2387 0.209382 14.5503 1.25078 13.5089ZM1.25097 20.1089L0.780102 20.5798C-0.261297 21.6212 -0.261296 23.3096 0.780102 24.351L4.55134 28.1222C5.59274 29.1636 7.28118 29.1636 8.32257 28.1222L8.79345 27.6514L1.25097 20.1089Z" fill="#161616"/>
</svg>
