<svg width="35" height="35" viewBox="0 0 35 35" fill="none" xmlns="http://www.w3.org/2000/svg">
<path fill-rule="evenodd" clip-rule="evenodd" d="M26.2504 9.21743e-10C23.9493 4.78833e-05 22.0838 1.86551 22.0837 4.16667C22.0837 6.46788 23.9492 8.33338 26.2504 8.33333C28.5516 8.33328 30.417 6.46782 30.4171 4.16667C30.4171 1.86544 28.5516 -4.78815e-05 26.2504 9.21743e-10ZM3.75046 4.16667C2.59986 4.16667 1.66712 5.09941 1.66712 6.25C1.66712 7.40059 2.59986 8.33333 3.75046 8.33333C5.8894 8.33333 10.5295 8.73321 14.6006 9.63789C15.7187 9.88635 16.7519 10.164 17.6554 10.466C17.2784 10.8554 16.9311 11.2247 16.6208 11.5733C15.8233 12.4695 15.0356 13.4776 14.683 14.5777C14.4911 15.1761 14.4125 15.8436 14.552 16.545C14.6909 17.2434 15.0183 17.8362 15.4279 18.3302C15.4847 18.3987 15.5439 18.4662 15.6051 18.5326C14.4926 19.6397 13.3865 20.6477 12.4594 21.4042C11.9066 21.8552 11.4536 22.1872 11.1228 22.3948C11.0861 22.4179 11.0528 22.4382 11.0227 22.4561C10.7343 22.3702 10.1955 22.133 9.32853 21.5317C8.20673 20.7538 6.83511 19.5847 5.15822 18.0476C4.67632 17.6059 4.01501 17.4159 3.37215 17.5346C2.72929 17.6533 2.17942 18.0669 1.88707 18.6516L0.2204 21.985C-0.294161 23.0141 0.122973 24.2655 1.15209 24.7801C2.18122 25.2946 3.43262 24.8775 3.94718 23.8484L4.39752 22.9477C5.30638 23.7255 6.16011 24.405 6.95406 24.9556C8.23809 25.8461 9.72916 26.6667 11.2505 26.6667C11.7886 26.6667 12.2427 26.4905 12.4903 26.3823C12.7832 26.2543 13.0717 26.091 13.3377 25.924C13.8728 25.5882 14.4745 25.1377 15.0936 24.6325C16.3261 23.6268 17.7718 22.2859 19.1534 20.871C20.0577 21.3508 20.5762 21.7172 20.8799 22.0398C21.1384 22.3145 21.251 22.5578 21.2509 23.0206C21.2509 23.6142 21.0541 24.545 20.4556 26.0784C19.8679 27.5839 18.9678 29.4895 17.7201 31.9849C17.3972 32.6307 17.4317 33.3977 17.8113 34.0119C18.1909 34.6261 18.8614 35 19.5835 35H22.915C24.0656 35 24.9983 34.0673 24.9983 32.9167C24.9983 31.7673 24.0675 30.8353 22.9186 30.8333C23.4872 29.628 23.9621 28.5539 24.337 27.5935C24.9888 25.9237 25.4174 24.4067 25.4176 23.0211C25.4178 21.5047 24.9056 20.2376 23.9141 19.1841C23.3793 18.6159 22.7264 18.1344 22.0142 17.7023C22.3671 17.2735 22.6992 16.8508 23.0029 16.4407C23.128 16.2717 23.2502 16.1024 23.3683 15.9334C23.5102 16.0164 23.6551 16.093 23.8021 16.1633C25.1382 16.8023 26.6865 16.9529 28.1076 16.7499C30.8447 16.3589 34.1671 14.3714 34.1671 10.4167C34.1671 9.26607 33.2344 8.33333 32.0838 8.33333C30.9332 8.33333 30.0005 9.26607 30.0005 10.4167C30.0005 11.462 29.1562 12.3911 27.5183 12.6251C26.7519 12.7346 26.0606 12.6248 25.5998 12.4044C25.2393 12.232 25.0666 12.0272 24.9893 11.788C24.9098 10.7412 24.4151 9.8801 23.8166 9.22787C23.4067 8.78116 22.9193 8.39767 22.4006 8.06592C22.3753 8.04912 22.3497 8.03293 22.3239 8.01736C22.062 7.85334 21.7927 7.70222 21.5219 7.56255C19.847 6.69853 17.6769 6.0532 15.5045 5.57044C11.138 4.60012 6.19484 4.16667 3.75046 4.16667ZM10.8219 22.5642C10.7941 22.5764 10.7966 22.5729 10.8248 22.563L10.8219 22.5642Z" fill="#BA9BF7"/>
</svg>
