<svg width="24" height="24" viewBox="0 0 24 24" fill="none" xmlns="http://www.w3.org/2000/svg">
  <path d="M12 7.5C14.76 7.5 17 9.74 17 12.5C17 13.17 16.87 13.82 16.64 14.42L19.56 17.34C21.07 16.03 22.27 14.36 23 12.5C21.27 8.11 17 5 12 5C10.73 5 9.51 5.2 8.36 5.57L10.53 7.74C11.13 7.51 11.78 7.5 12 7.5ZM2.71 3.16C2.32 3.55 2.32 4.18 2.71 4.57L5.53 7.39C3.91 8.71 2.61 10.44 1 12.5C2.73 16.89 7 20 12 20C13.52 20 14.97 19.7 16.31 19.18L19.03 21.9C19.42 22.29 20.05 22.29 20.44 21.9C20.83 21.51 20.83 20.88 20.44 20.49L4.13 4.18C3.74 3.79 3.11 3.79 2.71 3.16ZM12 17.5C9.24 17.5 7 15.26 7 12.5C7 11.73 7.18 11 7.49 10.36L8.97 11.84C8.96 11.89 8.96 11.95 8.96 12C8.96 13.66 10.3 15 11.96 15C12.01 15 12.07 15 12.12 14.99L13.6 16.47C13.13 16.65 12.62 16.75 12.08 16.75C12.05 16.75 12.03 16.75 12 17.5ZM14.97 11.17C14.82 9.77 13.72 8.67 12.32 8.52L14.97 11.17Z" fill="currentColor"/>
</svg>

