<svg width="32" height="32" viewBox="0 0 32 32" fill="none" xmlns="http://www.w3.org/2000/svg">
<g clip-path="url(#clip0_723_8719)">
<path d="M17.9225 2.23123C17.7992 2.12874 17.6531 2.05739 17.4965 2.0232C17.3399 1.989 17.1773 1.99296 17.0225 2.03475C16.8678 2.07654 16.7253 2.15493 16.6072 2.2633C16.489 2.37168 16.3987 2.50687 16.3438 2.65748L13.5938 10.2087L10.5737 7.28248C10.4723 7.18411 10.3512 7.10835 10.2184 7.06019C10.0856 7.01203 9.94403 6.99257 9.80313 7.00308C9.66223 7.01359 9.52516 7.05384 9.40095 7.12117C9.27674 7.18851 9.1682 7.2814 9.0825 7.39373C6.375 10.9412 5 14.51 5 18C5 20.9174 6.15893 23.7153 8.22183 25.7782C10.2847 27.8411 13.0826 29 16 29C18.9174 29 21.7153 27.8411 23.7782 25.7782C25.8411 23.7153 27 20.9174 27 18C27 10.5687 20.6513 4.49998 17.9225 2.23123ZM22.9862 19.1675C22.7269 20.6159 22.0301 21.95 20.9896 22.9904C19.949 24.0307 18.6147 24.7272 17.1663 24.9862C17.1113 24.9956 17.0557 25.0002 17 25C16.7492 24.9999 16.5075 24.9056 16.323 24.7357C16.1384 24.5658 16.0245 24.3327 16.0037 24.0828C15.9829 23.8328 16.0569 23.5841 16.2108 23.3861C16.3648 23.1881 16.5876 23.0552 16.835 23.0137C18.9062 22.665 20.6637 20.9075 21.015 18.8325C21.0594 18.5709 21.2059 18.3377 21.4223 18.1842C21.6387 18.0306 21.9072 17.9693 22.1688 18.0137C22.4303 18.0582 22.6635 18.2047 22.8171 18.421C22.9706 18.6374 23.0319 18.9059 22.9875 19.1675H22.9862Z" fill="black"/>
</g>
<defs>
<clipPath id="clip0_723_8719">
<rect width="32" height="32" fill="white"/>
</clipPath>
</defs>
</svg>
