<svg width="32" height="34" viewBox="0 0 32 34" fill="none" xmlns="http://www.w3.org/2000/svg">
<path fill-rule="evenodd" clip-rule="evenodd" d="M15.0001 4.16667C15.0001 1.86548 16.8655 0 19.1667 0C21.4679 0 23.3334 1.86548 23.3334 4.16667C23.3334 6.46786 21.4679 8.33333 19.1667 8.33333C16.8655 8.33333 15.0001 6.46785 15.0001 4.16667ZM26.8109 19.4657C28.1582 20.9389 29.4423 22.1025 30.6171 22.7739C31.6161 23.3448 31.9631 24.6174 31.3922 25.6164C30.8213 26.6154 29.5487 26.9624 28.5497 26.3915C26.8078 25.396 25.1753 23.8513 23.7362 22.2777C22.384 20.7993 21.097 19.1752 19.9718 17.7551C19.914 17.6822 19.8567 17.6099 19.7998 17.5381C19.6358 18.4352 19.4138 19.2787 19.1195 20.0116C18.9716 20.3799 18.7802 20.7848 18.5294 21.1778C19.0771 21.5592 19.6629 21.9546 20.2722 22.3618C20.5089 22.52 20.7491 22.68 20.9911 22.8411C22.3417 23.7403 23.7474 24.6762 24.9035 25.5489C25.5884 26.0659 26.242 26.602 26.7753 27.1368C27.2666 27.6295 27.8485 28.3069 28.1299 29.1252C28.2831 29.5707 28.3746 30.1376 28.2364 30.7566C28.0942 31.3936 27.7493 31.9033 27.3314 32.2778C26.5873 32.9446 25.5773 33.2195 24.6961 33.3646C22.5412 33.7197 18.9774 33.712 13.6016 33.328C12.454 33.2461 11.5901 32.2492 11.672 31.1016C11.754 29.9539 12.7508 29.09 13.8985 29.172C18.3397 29.4892 21.2405 29.5199 23.0283 29.3711C22.8361 29.2145 22.6243 29.0489 22.3932 28.8745C21.3448 28.0831 20.0623 27.2289 18.7058 26.3253C18.4583 26.1605 18.2084 25.9941 17.957 25.8261C16.5927 24.9143 15.1729 23.949 14.0173 23.0221C11.8861 27.0553 8.51063 31.3381 2.83127 33.5224C2.07883 33.8118 1.22695 33.6411 0.644095 33.0842C0.0612397 32.5272 -0.147961 31.684 0.106976 30.9191C0.518961 29.6832 1.51683 26.6848 2.11335 23.2052C2.25119 22.4012 2.36441 21.5884 2.44483 20.7797C1.52155 20.5658 0.833399 19.7383 0.833399 18.75C0.833399 17.7326 1.56264 16.8856 2.52693 16.7031C2.4312 15.4233 2.20182 14.2166 1.79941 13.1436C1.39537 12.0663 1.94117 10.8654 3.01848 10.4614C4.0958 10.0574 5.29668 10.6032 5.70072 11.6805C6.2012 13.0149 6.49453 14.4394 6.63765 15.8869C7.85802 15.3831 9.00954 14.6753 10.1074 13.8848C10.8844 13.3254 11.5741 12.7715 12.2483 12.2301C12.5206 12.0114 12.7904 11.7947 13.0624 11.5806C13.8779 10.9384 14.8971 10.1602 15.9146 9.81129C16.53 9.59004 17.1204 9.62795 17.5884 9.75011C18.4367 9.97151 19.1393 10.5359 19.6187 10.9723C20.6439 11.9056 21.8269 13.3888 22.9865 14.8508C23.0638 14.9482 23.1413 15.0461 23.2191 15.1442C24.3626 16.5868 25.5626 18.1009 26.8109 19.4657ZM11.8502 17.7501C10.3886 18.7407 8.65629 19.7078 6.66931 20.2873C6.57859 21.5449 6.41582 22.7676 6.22011 23.9092C6.02183 25.0659 5.78376 26.1709 5.53655 27.1845C7.86682 25.2688 9.50575 22.7951 10.7333 20.2892C11.1546 19.4292 11.5223 18.5758 11.8502 17.7501Z" fill="#BA9BF7"/>
</svg>
