<svg width="40" height="40" viewBox="0 0 40 40" fill="none" xmlns="http://www.w3.org/2000/svg">
<path opacity="0.2" d="M24.2047 31.7047C22.6314 33.2781 20.6269 34.3496 18.4446 34.7838C16.2622 35.2179 14.0002 34.9952 11.9445 34.1437C9.88878 33.2923 8.13173 31.8503 6.89553 30.0002C5.65933 28.1502 4.99951 25.9751 4.99951 23.75C4.99951 21.5249 5.65933 19.3498 6.89553 17.4998C8.13173 15.6497 9.88878 14.2078 11.9445 13.3563C14.0002 12.5048 16.2622 12.2821 18.4446 12.7162C20.6269 13.1504 22.6314 14.2219 24.2047 15.7953C26.3144 17.9051 27.4995 20.7664 27.4995 23.75C27.4995 26.7336 26.3144 29.5949 24.2047 31.7047Z" fill="#3E63DD"/>
<path d="M33.7499 5H26.2499C25.9184 5 25.6004 5.1317 25.366 5.36612C25.1316 5.60054 24.9999 5.91848 24.9999 6.25C24.9999 6.58152 25.1316 6.89946 25.366 7.13388C25.6004 7.3683 25.9184 7.5 26.2499 7.5H30.7327L24.1593 14.0734C21.6763 12.0439 18.5083 11.0462 15.3104 11.2868C12.1126 11.5274 9.12948 12.9879 6.97819 15.3662C4.82689 17.7445 3.67194 20.8586 3.75221 24.0645C3.83248 27.2704 5.14184 30.3228 7.40946 32.5904C9.67709 34.858 12.7295 36.1674 15.9354 36.2477C19.1413 36.3279 22.2554 35.173 24.6337 33.0217C27.012 30.8704 28.4724 27.8873 28.7131 24.6895C28.9537 21.4916 27.956 18.3236 25.9264 15.8406L32.4999 9.26875V13.75C32.4999 14.0815 32.6316 14.3995 32.866 14.6339C33.1004 14.8683 33.4184 15 33.7499 15C34.0814 15 34.3993 14.8683 34.6338 14.6339C34.8682 14.3995 34.9999 14.0815 34.9999 13.75V6.25C34.9999 5.91848 34.8682 5.60054 34.6338 5.36612C34.3993 5.1317 34.0814 5 33.7499 5ZM23.3186 30.8266C21.9199 32.2246 20.1381 33.1766 18.1984 33.5621C16.2587 33.9476 14.2483 33.7493 12.4213 32.9923C10.5943 32.2353 9.03276 30.9535 7.93415 29.3091C6.83553 27.6647 6.24916 25.7315 6.24916 23.7539C6.24916 21.7763 6.83553 19.8431 7.93415 18.1987C9.03276 16.5543 10.5943 15.2725 12.4213 14.5155C14.2483 13.7585 16.2587 13.5602 18.1984 13.9457C20.1381 14.3312 21.9199 15.2832 23.3186 16.6813C25.1911 18.5588 26.2427 21.1022 26.2427 23.7539C26.2427 26.4056 25.1911 28.949 23.3186 30.8266Z" fill="#3E63DD"/>
</svg>
