<svg width="40" height="40" viewBox="0 0 40 40" fill="none" xmlns="http://www.w3.org/2000/svg">
<path opacity="0.2" d="M31.25 15C31.25 17.225 30.5902 19.4001 29.354 21.2502C28.1179 23.1002 26.3609 24.5422 24.3052 25.3936C22.2495 26.2451 19.9875 26.4679 17.8052 26.0338C15.623 25.5998 13.6184 24.5283 12.0451 22.9549C10.4717 21.3816 9.40025 19.3771 8.96617 17.1948C8.53209 15.0125 8.75487 12.7505 9.60636 10.6948C10.4578 8.63914 11.8998 6.88213 13.7498 5.64597C15.5999 4.4098 17.775 3.75 20 3.75C22.9837 3.75 25.8452 4.93526 27.955 7.04505C30.0647 9.15483 31.25 12.0163 31.25 15Z" fill="#E93D82"/>
<path d="M32.5 15C32.5 12.581 31.7981 10.214 30.4794 8.18606C29.1608 6.15811 27.2821 4.55633 25.0711 3.57498C22.8601 2.59364 20.4119 2.27489 18.0234 2.6574C15.6349 3.0399 13.4086 4.10723 11.6147 5.72993C9.82075 7.35264 8.53617 9.461 7.91676 11.7993C7.29734 14.1376 7.3697 16.6054 8.12506 18.9034C8.88042 21.2015 10.2863 23.2309 12.1723 24.7457C14.0582 26.2605 16.3432 27.1956 18.75 27.4375V31.25H13.75C13.4185 31.25 13.1005 31.3817 12.8661 31.6161C12.6317 31.8505 12.5 32.1685 12.5 32.5C12.5 32.8315 12.6317 33.1494 12.8661 33.3839C13.1005 33.6183 13.4185 33.75 13.75 33.75H18.75V37.5C18.75 37.8315 18.8817 38.1494 19.1161 38.3839C19.3505 38.6183 19.6685 38.75 20 38.75C20.3315 38.75 20.6495 38.6183 20.8839 38.3839C21.1183 38.1494 21.25 37.8315 21.25 37.5V33.75H26.25C26.5815 33.75 26.8995 33.6183 27.1339 33.3839C27.3683 33.1494 27.5 32.8315 27.5 32.5C27.5 32.1685 27.3683 31.8505 27.1339 31.6161C26.8995 31.3817 26.5815 31.25 26.25 31.25H21.25V27.4375C24.3318 27.1239 27.1879 25.6787 29.2659 23.3813C31.3439 21.084 32.4962 18.0977 32.5 15ZM10 15C10 13.0222 10.5865 11.0888 11.6853 9.44427C12.7841 7.79978 14.3459 6.51805 16.1732 5.76118C18.0004 5.0043 20.0111 4.80627 21.9509 5.19212C23.8907 5.57797 25.6725 6.53038 27.0711 7.9289C28.4696 9.32743 29.422 11.1093 29.8079 13.0491C30.1937 14.9889 29.9957 16.9995 29.2388 18.8268C28.4819 20.6541 27.2002 22.2159 25.5557 23.3147C23.9112 24.4135 21.9778 25 20 25C17.3487 24.9971 14.8069 23.9426 12.9321 22.0678C11.0574 20.1931 10.0029 17.6512 10 15Z" fill="#E93D82"/>
</svg>
