<svg width="40" height="40" viewBox="0 0 40 40" fill="none" xmlns="http://www.w3.org/2000/svg">
<path fill-rule="evenodd" clip-rule="evenodd" d="M19.5836 7.08329C19.5836 4.78211 21.449 2.91663 23.7502 2.91663C26.0514 2.91663 27.9169 4.7821 27.9169 7.08329C27.9169 9.38448 26.0514 11.25 23.7502 11.25C21.449 11.25 19.5836 9.38448 19.5836 7.08329ZM31.3944 22.3824C32.7417 23.8556 34.0258 25.0192 35.2006 25.6905C36.1996 26.2614 36.5466 27.5341 35.9757 28.533C35.4048 29.532 34.1322 29.879 33.1332 29.3081C31.3913 28.3127 29.7588 26.7679 28.3196 25.1943C26.9675 23.7159 25.6805 22.0918 24.5553 20.6718C24.4975 20.5989 24.4402 20.5265 24.3833 20.4547C24.2193 21.3518 23.9973 22.1954 23.703 22.9282C23.5551 23.2965 23.3637 23.7014 23.1129 24.0945C23.6606 24.4758 24.2464 24.8713 24.8557 25.2785C25.0924 25.4366 25.3326 25.5966 25.5746 25.7577C26.9252 26.657 28.3309 27.5928 29.487 28.4656C30.1719 28.9825 30.8255 29.5186 31.3588 30.0535C31.8501 30.5461 32.432 31.2236 32.7134 32.0418C32.8666 32.4874 32.9581 33.0542 32.8199 33.6732C32.6777 34.3102 32.3328 34.8199 31.9149 35.1944C31.1708 35.8612 30.1608 36.1361 29.2796 36.2813C27.1247 36.6363 23.5609 36.6286 18.1851 36.2447C17.0375 36.1627 16.1735 35.1659 16.2555 34.0182C16.3375 32.8705 17.3343 32.0066 18.482 32.0886C22.9232 32.4058 25.824 32.4365 27.6118 32.2877C27.4196 32.1312 27.2078 31.9656 26.9767 31.7911C25.9283 30.9997 24.6458 30.1455 23.2893 29.242C23.0418 29.0772 22.7919 28.9107 22.5405 28.7427C21.1762 27.8309 19.7564 26.8657 18.6008 25.9387C16.4696 29.972 13.0941 34.2547 7.41477 36.439C6.66232 36.7284 5.81045 36.5578 5.22759 36.0008C4.64474 35.4438 4.43553 34.6006 4.69047 33.8358C5.10246 32.5998 6.10032 29.6015 6.69685 26.1218C6.83469 25.3178 6.94791 24.5051 7.02833 23.6963C6.10505 23.4825 5.4169 22.6549 5.4169 21.6666C5.4169 20.6493 6.14614 19.8022 7.11042 19.6197C7.01469 18.3399 6.78531 17.1332 6.3829 16.0603C5.97886 14.9829 6.52466 13.7821 7.60198 13.378C8.6793 12.974 9.88018 13.5198 10.2842 14.5971C10.7847 15.9316 11.078 17.3561 11.2212 18.8035C12.4415 18.2997 13.593 17.5919 14.6909 16.8015C15.4679 16.2421 16.1576 15.6882 16.8318 15.1467C17.1041 14.928 17.3739 14.7114 17.6459 14.4972C18.4614 13.855 19.4806 13.0768 20.4981 12.7279C21.1135 12.5067 21.7039 12.5446 22.1719 12.6667C23.0202 12.8881 23.7228 13.4525 24.2022 13.8889C25.2274 14.8223 26.4104 16.3055 27.57 17.7674C27.6473 17.8648 27.7248 17.9627 27.8026 18.0609C28.9461 19.5035 30.1461 21.0175 31.3944 22.3824ZM16.4337 20.6667C14.972 21.6573 13.2398 22.6245 11.2528 23.2039C11.1621 24.4616 10.9993 25.6842 10.8036 26.8259C10.6053 27.9825 10.3673 29.0875 10.1201 30.1011C12.4503 28.1854 14.0892 25.7118 15.3168 23.2058C15.7381 22.3458 16.1058 21.4924 16.4337 20.6667Z" fill="white"/>
</svg>
