<svg width="32" height="24" viewBox="0 0 32 24" fill="none" xmlns="http://www.w3.org/2000/svg">
<path fill-rule="evenodd" clip-rule="evenodd" d="M4.66705 3.33333C4.66709 1.49241 6.15946 3.83067e-05 8.00038 7.37394e-10C9.84136 -3.83052e-05 11.3338 1.49236 11.3337 3.33333C11.3337 5.17425 9.84131 6.66663 8.00038 6.66667C6.1594 6.66671 4.66701 5.17431 4.66705 3.33333ZM2.00045 2C2.92092 2.00002 3.6671 2.74623 3.66708 3.6667C3.66705 5.08183 3.74624 6.67611 5.41258 7.50929C6.55722 8.08162 7.40435 8.23351 8.03779 8.2057C8.65923 8.17842 9.20305 7.97288 9.74269 7.61318C10.6278 7.02319 11.636 7.03786 12.3895 7.1707C13.1701 7.30832 13.9592 7.62011 14.6649 7.96585C15.4157 8.33361 16.161 8.78432 16.8282 9.23256C17.2804 8.15366 17.8966 6.83682 18.7672 5.87921C19.3352 5.25431 20.1014 4.67593 21.1044 4.45769C22.126 4.23541 23.1672 4.43558 24.1789 4.95553C26.0938 5.93964 28.2098 8.22617 30.7298 12.0904C31.2326 12.8614 31.0152 13.894 30.2442 14.3968C29.4732 14.8996 28.4405 14.6822 27.9377 13.9112C26.5526 11.7873 25.4054 10.341 24.4734 9.3808L30.9423 21.2035C31.3842 22.011 31.0877 23.0238 30.2802 23.4656C29.4727 23.9074 28.4599 23.611 28.0181 22.8035L23.2969 14.1749L2.34636 23.5254C1.5058 23.9006 0.520273 23.5233 0.14512 22.6828C-0.230032 21.8422 0.147252 20.8567 0.987807 20.4815L14.283 14.5477C13.6683 14.3578 13.0914 14.0815 12.5704 13.7942C11.6704 13.2977 10.6699 12.6066 9.67749 11.9211C9.44812 11.7626 9.21918 11.6045 8.99201 11.4491C8.73186 11.494 8.46264 11.5236 8.18399 11.5358C6.85497 11.5942 5.44382 11.2517 3.92185 10.4907C0.327644 8.69357 0.332071 5.06565 0.333683 3.74395C0.333716 3.71723 0.333747 3.69144 0.333748 3.66663C0.333767 2.74616 1.07998 1.99998 2.00045 2ZM19.126 12.3862L21.6916 11.2411L20.5447 9.14498C20.2341 9.72437 19.9395 10.424 19.6276 11.1909C19.6148 11.2223 19.602 11.2539 19.5891 11.2856C19.4432 11.6447 19.2878 12.0271 19.126 12.3862Z" fill="white"/>
</svg>
