<svg width="30" height="29" viewBox="0 0 30 29" fill="none" xmlns="http://www.w3.org/2000/svg">
<path fill-rule="evenodd" clip-rule="evenodd" d="M3.19465 1C2.93747 0.411365 2.35011 0 1.66667 0C0.746192 0 0 0.746192 0 1.66667V3.66667C0 4.58714 0.746192 5.33333 1.66667 5.33333C2.35011 5.33333 2.93747 4.92197 3.19465 4.33333H3.36157C3.45254 5.88994 3.76512 7.21612 4.32477 8.32427C5.01808 9.69706 6.03985 10.6334 7.25456 11.2407C8.43116 11.8291 9.74394 12.0873 11.0273 12.2111C11.3396 12.2413 11.6575 12.264 11.9786 12.2811C11.8665 16.4696 11.3129 20.4225 10.2963 25.6665H8.99988C8.07941 25.6665 7.33322 26.4127 7.33322 27.3332C7.33322 28.2537 8.07941 28.9999 8.99988 28.9999H11.6666C12.461 28.9999 13.145 28.4391 13.3009 27.6601C14.1025 23.6518 14.6716 20.329 14.9999 17.1323C15.3282 20.329 15.8973 23.6518 16.6989 27.6601C16.8547 28.4391 17.5387 28.9999 18.3332 28.9999H20.9999C21.9204 28.9999 22.6666 28.2537 22.6666 27.3332C22.6666 26.4127 21.9204 25.6665 20.9999 25.6665H19.7035C18.6869 20.4225 18.1334 16.4696 18.0213 12.2811C18.3425 12.264 18.6603 12.2413 18.9726 12.2111C20.256 12.0873 21.5688 11.8291 22.7454 11.2408C23.9601 10.6334 24.9819 9.69712 25.6752 8.32435C26.2349 7.21621 26.5475 5.89005 26.6384 4.33347H26.8053C27.0625 4.92211 27.6499 5.33347 28.3333 5.33347C29.2538 5.33347 30 4.58728 30 3.6668V1.6668C30 0.746329 29.2538 0.000137329 28.3333 0.000137329C27.6499 0.000137329 27.0625 0.411502 26.8053 1.00014H23.1947C22.9375 0.411502 22.3501 0.000137329 21.6667 0.000137329C20.7462 0.000137329 20 0.746329 20 1.6668V3.6668C20 4.58728 20.7462 5.33347 21.6667 5.33347C22.3501 5.33347 22.9375 4.92211 23.1947 4.33347H23.2978C23.2136 5.45729 22.9869 6.25326 22.6998 6.82163C22.3515 7.51133 21.8733 7.95004 21.2547 8.25935C20.5979 8.58771 19.7441 8.78786 18.6524 8.8932C17.5598 8.99863 16.3521 9.00008 15 9.00008C13.6478 9.00008 12.4401 8.99863 11.3475 8.89319C10.2559 8.78786 9.40202 8.58771 8.74531 8.25934C8.12671 7.95003 7.64852 7.51132 7.30018 6.82159C7.01313 6.2532 6.78641 5.45719 6.70215 4.33333H6.80535C7.06253 4.92197 7.64989 5.33333 8.33333 5.33333C9.25381 5.33333 10 4.58714 10 3.66667V1.66667C10 0.746192 9.25381 0 8.33333 0C7.64989 0 7.06253 0.411365 6.80535 1H3.19465ZM11.6666 4.33333C11.6667 2.49241 13.159 1.00004 15 1C16.8409 0.999962 18.3333 2.49235 18.3333 4.33333C18.3333 6.17425 16.8409 7.66663 15 7.66667C13.159 7.66671 11.6666 6.1743 11.6666 4.33333Z" fill="white"/>
</svg>
