<svg width="40" height="40" viewBox="0 0 40 40" fill="none" xmlns="http://www.w3.org/2000/svg">
<path d="M27.658 10C29.499 10 30.9914 8.50762 30.9914 6.66671C30.9914 4.82576 29.499 3.33337 27.658 3.33337C25.817 3.33337 24.3247 4.82576 24.3247 6.66671C24.3247 8.50762 25.817 10 27.658 10Z" fill="white"/>
<path d="M9.71587 8.05177C9.30946 7.83575 8.80487 7.99006 8.58887 8.39643C8.37285 8.80285 8.5272 9.30743 8.93354 9.52343L12.0288 11.1688L10.6364 11.7518C10.3415 11.8752 10.1433 12.1563 10.126 12.4755C10.1088 12.7947 10.2756 13.0956 10.5555 13.25L14.6694 15.5206C15.0723 15.743 15.5792 15.5966 15.8016 15.1937C16.024 14.7908 15.8776 14.2838 15.4747 14.0614L12.8696 12.6236L14.2945 12.0271C14.5916 11.9027 14.7904 11.6183 14.8052 11.2968C14.82 10.9751 14.6482 10.6737 14.3639 10.5225L9.71587 8.05177Z" fill="white"/>
<path d="M17.807 14.7388C19.1135 12.5997 21.263 10.9115 24.3245 10.9115C25.0876 10.9115 25.7532 11.4297 25.9403 12.1694L27.3987 17.935L30.7769 19.2862C31.6315 19.6282 32.0472 20.5981 31.7053 21.4527C31.3635 22.3073 30.3935 22.7231 29.5389 22.3812L25.3722 20.7146C24.8768 20.5164 24.5063 20.0931 24.3755 19.5758L23.745 17.0832C23.555 17.544 23.368 18.037 23.1894 18.558C22.4446 20.7298 21.8865 23.2636 21.8237 25.7812C21.8243 25.7987 21.8245 25.8162 21.8245 25.8337V35.0004C21.8245 35.9209 21.0784 36.6671 20.1579 36.6671C19.2374 36.6671 18.4912 35.9209 18.4912 35.0004V26.8496L18.4477 26.7941C18.1964 26.472 17.8581 26.0202 17.5166 25.5065C17.1786 24.9982 16.8165 24.3982 16.5335 23.7832C16.2663 23.2027 15.9912 22.4452 15.9912 21.6671C15.9912 19.4169 16.5322 16.826 17.807 14.7388Z" fill="white"/>
<path d="M26.8247 25.6942C26.8247 24.3135 27.944 23.1942 29.3247 23.1942C30.7054 23.1942 31.8247 24.3135 31.8247 25.6942V35.8331C31.8247 36.2934 31.4516 36.6665 30.9914 36.6665C30.5311 36.6665 30.158 36.2934 30.158 35.8331V25.6942C30.158 25.234 29.785 24.8609 29.3247 24.8609C28.8645 24.8609 28.4914 25.234 28.4914 25.6942V25.8795C28.4914 26.3396 28.1183 26.7128 27.658 26.7128C27.1978 26.7128 26.8247 26.3396 26.8247 25.8795V25.6942Z" fill="white"/>
<path d="M8.35122 16.649C8.44353 16.182 8.87073 15.8763 9.30531 15.9663L12.3608 16.5989C12.6536 16.6595 12.8877 16.8899 12.9684 17.1969C13.0491 17.5038 12.9629 17.8365 12.7449 18.0605L12.0803 18.7432L13.6954 19.1634C14.1251 19.2752 14.3823 19.7406 14.2696 20.2029C14.1571 20.6652 13.7173 20.9494 13.2876 20.8375L10.2666 20.0516C9.98356 19.978 9.76314 19.7449 9.69098 19.4429C9.61873 19.1409 9.70623 18.8175 9.91931 18.5986L10.5226 17.9789L8.97098 17.6576C8.53639 17.5676 8.2589 17.1161 8.35122 16.649Z" fill="white"/>
</svg>
