<svg width="40" height="40" viewBox="0 0 40 40" fill="none" xmlns="http://www.w3.org/2000/svg">
<path fill-rule="evenodd" clip-rule="evenodd" d="M15.8335 5.41667C15.8335 3.11551 17.699 1.25005 20.0002 1.25C22.3014 1.24995 24.1669 3.11544 24.1668 5.41667C24.1668 7.71782 22.3013 9.58329 20.0002 9.58333C17.6989 9.58338 15.8335 7.71788 15.8335 5.41667ZM10.7685 14.0339C13.362 12.1815 16.7189 11.2503 20 11.25C23.2814 11.2497 26.6384 12.1811 29.2319 14.0337C31.3505 15.547 32.9825 17.7051 33.5413 20.4167H33.7502V19.5833C33.7502 18.4327 34.6829 17.5 35.8335 17.5C36.9841 17.5 37.9168 18.4327 37.9168 19.5833V25.4167C37.9168 26.5673 36.9841 27.5 35.8335 27.5C34.6829 27.5 33.7502 26.5673 33.7502 25.4167V24.5833H24.399C24.7508 27.7607 25.2461 31.1544 25.886 34.583H27.5002C28.6508 34.583 29.5835 35.5157 29.5835 36.6663C29.5835 37.8169 28.6508 38.7496 27.5002 38.7496H24.1668C23.1737 38.7496 22.3187 38.0487 22.124 37.0749C21.2712 32.8108 20.6317 28.5393 20.2077 24.5833H19.7926C19.3686 28.5393 18.7292 32.8108 17.8764 37.0749C17.6816 38.0487 16.8266 38.7496 15.8335 38.7496H12.5002C11.3496 38.7496 10.4168 37.8169 10.4168 36.6663C10.4168 35.5157 11.3496 34.583 12.5002 34.583H14.1143C14.7542 31.1544 15.2495 27.7607 15.6013 24.5833H6.25016V25.4167C6.25016 26.5673 5.31742 27.5 4.16683 27.5C3.01624 27.5 2.0835 26.5673 2.0835 25.4167V19.5833C2.0835 18.4327 3.01624 17.5 4.16683 17.5C5.31742 17.5 6.25016 18.4327 6.25016 19.5833V20.4167H6.45901C7.01781 17.7051 8.64979 15.5471 10.7685 14.0339ZM10.7845 20.4167H15.991C16.11 18.8386 16.188 17.3464 16.225 15.9678C15.0957 16.31 14.0601 16.8032 13.1902 17.4245C12.0612 18.2309 11.2293 19.2312 10.7845 20.4167ZM23.7753 15.9675C23.8123 17.3461 23.8903 18.8385 24.0093 20.4167H29.2157C28.771 19.2311 27.939 18.2307 26.8101 17.4242C25.9402 16.8028 24.9045 16.3096 23.7753 15.9675Z" fill="white"/>
</svg>
