<svg width="30" height="22" viewBox="0 0 30 22" fill="none" xmlns="http://www.w3.org/2000/svg">
<path fill-rule="evenodd" clip-rule="evenodd" d="M0.17632 0.921676C0.587969 0.0983783 1.58909 -0.235329 2.41239 0.17632C7.67106 2.80565 11.2844 4.03327 14.8114 4.33996C18.3523 4.64786 21.9582 4.04295 27.2628 2.71679C27.705 2.60625 28.1731 2.68162 28.5583 2.92535C28.9434 3.16908 29.2119 3.5599 29.3013 4.00684L29.968 7.34017C30.1485 8.24277 29.5632 9.12081 28.6606 9.30133C27.758 9.48185 26.8799 8.89649 26.6994 7.99389L26.3734 6.36394C24.0878 6.9032 22.0341 7.30899 20.0892 7.53846C20.2252 9.62962 20.3553 12.2782 20.4569 14.5505C20.5195 15.9497 20.5717 17.213 20.6082 18.1264C20.6264 18.5832 20.6408 18.9526 20.6506 19.208L20.6655 19.6037L20.6656 19.6053C20.6656 19.6054 20.6656 19.6054 19.0001 19.667L20.6656 19.6053C20.6823 20.0577 20.5143 20.4976 20.2002 20.8236C19.886 21.1495 19.4528 21.3337 19.0001 21.3337H16.3337C15.4132 21.3337 14.667 20.5875 14.667 19.667C14.667 18.7466 15.4132 18.0004 16.3337 18.0004H17.2671C17.2315 17.1178 17.1835 15.9643 17.1269 14.6995C17.0745 13.5271 17.0149 12.264 16.9512 11.0348C16.7753 11.0419 16.591 11.0475 16.4024 11.0505C15.8463 11.0595 15.213 11.0475 14.626 10.9793C14.1166 10.9202 13.3488 10.7918 12.7423 10.3873C11.656 9.6628 11.362 8.57754 11.2977 7.80542C11.2784 7.57369 11.2776 7.35229 11.2838 7.15741C10.9289 7.07834 10.5719 6.9912 10.212 6.89585C9.82083 8.3019 8.5311 9.3337 7.00037 9.3337C5.15941 9.3337 3.66703 7.84131 3.66703 6.00037C3.66703 5.50393 3.77556 5.03285 3.97017 4.60954C2.99921 4.17372 1.98671 3.69026 0.921676 3.15774C0.0983783 2.7461 -0.235329 1.74497 0.17632 0.921676Z" fill="white"/>
</svg>
