<svg width="40" height="40" viewBox="0 0 40 40" fill="none" xmlns="http://www.w3.org/2000/svg">
<path fill-rule="evenodd" clip-rule="evenodd" d="M22.4999 7.08317C22.4999 4.78202 24.3654 2.91655 26.6665 2.9165C28.9678 2.91646 30.8333 4.78195 30.8332 7.08317C30.8332 9.38432 28.9677 11.2498 26.6665 11.2498C24.3653 11.2499 22.4998 9.38439 22.4999 7.08317ZM20.3844 6.6434C20.854 6.98194 21.1616 7.50066 21.2334 8.07516C21.3912 9.33853 21.8447 10.2347 22.4644 10.9156C23.1042 11.6185 24.0117 12.1893 25.202 12.6302C26.6209 13.1558 28.3044 13.4493 30.1175 13.6028L34.36 9.36022C35.1736 8.54663 36.4927 8.54663 37.3063 9.36022C38.1199 10.1738 38.1199 11.4929 37.3063 12.3065L35.4326 14.1802C35.929 14.561 36.2491 15.1602 36.2491 15.8341C36.2491 16.9847 35.3163 17.9175 34.1657 17.9175C33.7563 17.9175 33.3391 17.9145 32.9165 17.9072L32.9166 26.6056C35.3441 27.4636 37.0832 29.7787 37.0832 32.5C37.0831 35.9517 34.2849 38.75 30.8331 38.75C28.2983 38.7501 26.1159 37.2411 25.1353 35.0723C25.0249 35.1019 24.911 35.1324 24.7939 35.1638C23.3282 35.5557 21.348 36.0787 19.2939 36.6022C17.2428 37.1249 15.1041 37.6516 13.3259 38.0489C12.438 38.2472 11.6235 38.417 10.9465 38.5383C10.32 38.6506 9.66221 38.75 9.16647 38.75C5.71465 38.7501 2.91643 35.9519 2.9165 32.5001C2.91657 29.0483 5.71481 26.2501 9.16655 26.25C9.53435 26.25 9.99134 26.3047 10.4586 26.3788C10.5327 23.7373 10.7375 20.989 11.3028 18.5305C11.3048 18.5219 11.3068 18.5133 11.3087 18.5048C10.6419 18.0935 9.91502 17.4169 9.64577 16.339C8.96522 13.6145 10.405 11.2172 12.1238 9.62034C13.8831 7.98593 16.3227 6.77749 18.7576 6.29055C19.3253 6.17702 19.9147 6.30485 20.3844 6.6434ZM15.3086 19.7104C14.8159 21.9847 14.6578 24.5967 14.6071 27.2448C16.0851 27.591 17.7155 27.9956 19.294 28.3979C21.3481 28.9214 23.3283 29.4445 24.7939 29.8364C24.9111 29.8678 25.025 29.8983 25.1354 29.9279C25.8334 28.3841 27.1404 27.1746 28.7499 26.6057L28.7498 17.6537C27.0157 17.4538 25.3049 17.1117 23.7546 16.5374C22.148 15.9423 20.6217 15.0657 19.418 13.7584C18.3637 14.0823 17.5112 14.7377 16.8312 15.7453C17.5463 15.8704 18.3366 16.0169 19.0827 16.2178C19.8474 16.4237 20.6998 16.7203 21.4436 17.2036C22.216 17.7054 22.9659 18.4746 23.2823 19.6107C23.5912 20.7199 23.3946 21.8512 22.9556 22.9095C22.519 23.9623 21.7837 25.0909 20.7785 26.3194C20.0499 27.2099 18.7374 27.3411 17.8469 26.6125C16.9564 25.8839 16.8251 24.5713 17.5537 23.6808C18.4235 22.6178 18.8861 21.8455 19.1069 21.3131C19.2298 21.0167 19.2584 20.8434 19.264 20.7627C19.2441 20.7463 19.215 20.7245 19.1735 20.6976C18.9603 20.5591 18.5888 20.3999 17.9994 20.2412C17.4233 20.0861 16.7649 19.963 16.0258 19.8344C15.9193 19.8159 15.8104 19.7971 15.6998 19.7781C15.5714 19.7559 15.4407 19.7334 15.3086 19.7104ZM19.3019 20.7994C19.3017 20.7994 19.2994 20.797 19.2961 20.7921C19.3006 20.7969 19.3022 20.7993 19.3019 20.7994ZM19.2644 20.7116C19.2639 20.7088 19.2638 20.7073 19.2638 20.7073L19.2644 20.7116ZM18.5178 32.5C18.4337 32.4785 18.3494 32.457 18.265 32.4355C16.9887 32.1102 15.6903 31.7865 14.4757 31.4957C14.199 32.3216 13.4189 32.9167 12.4998 32.9167C11.3492 32.9167 10.4165 31.984 10.4165 30.8334L10.4165 30.7058C10.4165 30.6708 10.4165 30.6357 10.4165 30.6005C10.3464 30.5874 10.2781 30.5749 10.2118 30.5631C9.91435 30.5098 9.66933 30.4712 9.4771 30.4465C9.38156 30.4343 9.30625 30.4264 9.2492 30.4217C9.19492 30.4172 9.16948 30.4168 9.16679 30.4167C9.16653 30.4167 9.16648 30.4167 9.16663 30.4167C8.016 30.4167 7.08319 31.3495 7.08317 32.5002C7.08315 33.6507 8.01582 34.5834 9.16638 34.5834C9.16463 34.5834 9.18949 34.5832 9.24898 34.5784C9.30605 34.5737 9.38137 34.5658 9.4769 34.5535C9.66915 34.5288 9.91418 34.4903 10.2116 34.437C10.8063 34.3304 11.5567 34.1747 12.4174 33.9824C14.1361 33.5985 16.2286 33.0835 18.2649 32.5646C18.3493 32.5431 18.4336 32.5215 18.5178 32.5ZM30.8333 30.4167C29.6827 30.4167 28.7499 31.3495 28.7498 32.5002C28.7498 33.6507 29.6825 34.5834 30.833 34.5834C31.9837 34.5833 32.9165 33.6505 32.9165 32.4999C32.9165 31.3493 31.9839 30.4167 30.8333 30.4167Z" fill="white"/>
</svg>
