<svg width="40" height="40" viewBox="0 0 40 40" fill="none" xmlns="http://www.w3.org/2000/svg">
<path d="M18.1111 16.0879V25.5324M21.8882 25.5324L21.8888 16.0879M27.5556 34.9768C20 32.9731 4.88889 28.4849 4.88889 26.5612C4.88889 24.5583 13.6264 25.8922 18.0006 27.0885C19.2743 27.4368 20.7257 27.4368 21.9994 27.0885C26.3736 25.8922 35.1111 24.5583 35.1111 26.5612C35.1111 28.4849 20 32.9731 12.4444 34.9768M3 20.8101C12.0667 20.8101 14.3333 16.1502 16.6 15.2152C18.8667 14.2801 21.1333 14.28 23.4 15.2154C25.6667 16.1509 27.9333 20.8101 37 20.8101M22.3611 7.82404C22.3611 8.91071 21.304 9.79163 20 9.79163C18.696 9.79163 17.6389 8.91071 17.6389 7.82404C17.6389 6.73737 18.696 5.85645 20 5.85645C21.304 5.85645 22.3611 6.73737 22.3611 7.82404Z" stroke="white" stroke-width="4.72222" stroke-linecap="round" stroke-linejoin="round"/>
</svg>
