<svg width="40" height="40" viewBox="0 0 40 40" fill="none" xmlns="http://www.w3.org/2000/svg">
<path fill-rule="evenodd" clip-rule="evenodd" d="M29.1669 2.91675C26.8658 2.9168 25.0003 4.78226 25.0002 7.08341C25.0002 9.38463 26.8657 11.2501 29.1669 11.2501C31.4681 11.25 33.3335 9.38456 33.3336 7.08341C33.3336 4.78219 31.4681 2.9167 29.1669 2.91675ZM6.66696 7.08341C5.51637 7.08341 4.58363 8.01615 4.58363 9.16675C4.58363 10.3173 5.51637 11.2501 6.66696 11.2501C8.8059 11.2501 13.446 11.65 17.5171 12.5546C18.6352 12.8031 19.6684 13.0808 20.5719 13.3827C20.1949 13.7722 19.8476 14.1415 19.5373 14.4901C18.7398 15.3862 17.9521 16.3944 17.5995 17.4944C17.4076 18.0929 17.329 18.7604 17.4685 19.4617C17.6074 20.1601 17.9348 20.753 18.3444 21.2469C18.4012 21.3155 18.4604 21.3829 18.5216 21.4493C17.4091 22.5565 16.303 23.5644 15.3759 24.321C14.8231 24.772 14.3701 25.104 14.0393 25.3116C14.0026 25.3346 13.9693 25.3549 13.9392 25.3728C13.6509 25.287 13.112 25.0497 12.245 24.4485C11.1232 23.6705 9.75161 22.5015 8.07472 20.9643C7.59282 20.5226 6.93151 20.3327 6.28865 20.4514C5.64579 20.5701 5.09593 20.9837 4.80357 21.5684L3.1369 24.9017C2.62234 25.9308 3.03948 27.1822 4.0686 27.6968C5.09772 28.2114 6.34912 27.7942 6.86368 26.7651L7.31402 25.8644C8.22288 26.6423 9.07662 27.3218 9.87056 27.8724C11.1546 28.7629 12.6457 29.5834 14.167 29.5834C14.7051 29.5834 15.1592 29.4073 15.4068 29.2991C15.6997 29.1711 15.9882 29.0078 16.2542 28.8408C16.7893 28.505 17.391 28.0545 18.0101 27.5493C19.2426 26.5436 20.6883 25.2027 22.0699 23.7878C22.9742 24.2676 23.4928 24.6339 23.7964 24.9566C24.0549 25.2312 24.1675 25.4745 24.1674 25.9373C24.1674 26.5309 23.9706 27.4618 23.3721 28.9951C22.7844 30.5006 21.8843 32.4063 20.6366 34.9017C20.3137 35.5475 20.3482 36.3145 20.7278 36.9287C21.1074 37.5429 21.7779 37.9167 22.5 37.9167H25.8315C26.9821 37.9167 27.9148 36.984 27.9148 35.8334C27.9148 34.684 26.984 33.7521 25.8351 33.7501C26.4037 32.5448 26.8786 31.4707 27.2535 30.5102C27.9053 28.8405 28.3339 27.3234 28.3341 25.9379C28.3343 24.4215 27.8221 23.1543 26.8306 22.1009C26.2958 21.5327 25.6429 21.0512 24.9307 20.619C25.2836 20.1903 25.6157 19.7675 25.9194 19.3574C26.0445 19.1884 26.1667 19.0191 26.2848 18.8501C26.4267 18.9331 26.5716 19.0097 26.7186 19.08C28.0547 19.7191 29.603 19.8697 31.0241 19.6666C33.7612 19.2756 37.0836 17.2881 37.0836 13.3334C37.0836 12.1828 36.1509 11.2501 35.0003 11.2501C33.8497 11.2501 32.917 12.1828 32.917 13.3334C32.917 14.3787 32.0727 15.3079 30.4348 15.5419C29.6684 15.6513 28.9771 15.5415 28.5163 15.3212C28.1558 15.1487 27.9831 14.9439 27.9058 14.7048C27.8263 13.6579 27.3316 12.7968 26.7331 12.1446C26.3232 11.6979 25.8358 11.3144 25.3171 10.9827C25.2918 10.9659 25.2662 10.9497 25.2404 10.9341C24.9785 10.7701 24.7092 10.619 24.4384 10.4793C22.7635 9.61528 20.5934 8.96995 18.421 8.48719C14.0545 7.51687 9.11135 7.08341 6.66696 7.08341ZM13.7384 25.481C13.7106 25.4931 13.7131 25.4896 13.7413 25.4797L13.7384 25.481Z" fill="white"/>
</svg>
