<svg width="28" height="27" viewBox="0 0 28 27" fill="none" xmlns="http://www.w3.org/2000/svg">
<path fill-rule="evenodd" clip-rule="evenodd" d="M16.6659 2.67703C17.1333 2.64945 17.6128 2.67676 18.0975 2.76489C20.9239 3.27877 23.0043 5.723 23.0512 8.57406C23.0514 8.58603 23.0517 8.59796 23.0522 8.60986C23.0513 8.63077 23.0508 8.65181 23.0508 8.67297V9.88546H25.7174V8.67297C25.7174 8.65365 25.717 8.63442 25.7162 8.61529C25.7175 8.58713 25.718 8.55875 25.7175 8.53017C25.6495 4.3969 22.6426 0.88088 18.5745 0.141233C16.8671 -0.169202 15.1952 0.0448451 13.7174 0.658336C12.2397 0.0448702 10.5677 -0.169165 8.86036 0.141266C4.74534 0.889451 1.71745 4.47851 1.71745 8.67297V9.88546H4.38411V8.67297C4.38411 5.77923 6.47855 3.28471 9.33739 2.76492C9.82207 2.6768 10.3015 2.64949 10.7689 2.67706C9.30369 4.20584 8.38411 6.28119 8.38411 8.60741C8.38411 8.60742 8.38411 8.60743 8.38411 8.60744V11.8861C8.38411 14.8316 10.7719 17.2194 13.7174 17.2194C16.663 17.2194 19.0508 14.8316 19.0508 11.8861V8.60744C19.0508 6.28119 18.1312 4.20582 16.6659 2.67703ZM13.7174 3.66627C12.1197 4.72596 11.0508 6.52618 11.0508 8.60741C11.0508 8.60742 11.0508 8.60743 11.0508 8.60744V11.8861C11.0508 13.3588 12.2447 14.5527 13.7174 14.5527C15.1902 14.5527 16.3841 13.3588 16.3841 11.8861V8.60744C16.3841 6.52619 15.3152 4.72595 13.7174 3.66627ZM1.24356 11.8854C0.278439 11.8854 -0.317691 12.9383 0.178861 13.7659C0.744017 14.7078 0.980962 15.8106 0.852615 16.9015L0.0676299 23.5739C-0.118878 25.1592 1.11978 26.5521 2.71603 26.5521H3.38513C4.98138 26.5521 6.22004 25.1592 6.03353 23.5739L5.24855 16.9015C5.1202 15.8106 5.35715 14.7078 5.9223 13.7659C6.41885 12.9383 5.82272 11.8854 4.8576 11.8854H1.24356ZM22.5769 11.8854C21.6118 11.8854 21.0156 12.9383 21.5122 13.7659C22.0774 14.7078 22.3143 15.8106 22.1859 16.9015L21.401 23.5739C21.2145 25.1592 22.4531 26.5521 24.0494 26.5521H24.7185C26.3147 26.5521 27.5534 25.1592 27.3669 23.5739L26.5819 16.9015C26.4535 15.8106 26.6905 14.7078 27.2556 13.7659C27.7522 12.9383 27.1561 11.8854 26.1909 11.8854H22.5769Z" fill="white"/>
</svg>
