<svg width="40" height="40" viewBox="0 0 40 40" fill="none" xmlns="http://www.w3.org/2000/svg">
<path d="M23.4165 7.083C23.4165 9.15409 21.7376 10.833 19.6665 10.833C17.5954 10.833 15.9165 9.15409 15.9165 7.083C15.9165 5.01448 17.5913 3.33714 19.6588 3.33301H19.6742C21.7417 3.33714 23.4165 5.01448 23.4165 7.083Z" fill="white"/>
<path fill-rule="evenodd" clip-rule="evenodd" d="M13 18.3337C13.6072 18.3337 14.1764 18.1713 14.6667 17.8877V21.6546L14.6666 21.667V24.167L14.6665 24.1642L14.6661 24.1656L14.6648 24.1747C14.6592 24.2128 14.6381 24.3576 14.561 24.6487C14.4732 24.9804 14.3412 25.3996 14.1723 25.8874C14.1426 25.9736 14.1118 26.0612 14.0802 26.1503C12.9493 26.6835 12.1667 27.8338 12.1667 29.167C12.1667 29.6021 12.25 30.0177 12.4016 30.3987C12.1221 31.0624 11.8591 31.673 11.6412 32.1734C11.4671 32.5731 11.3222 32.9017 11.221 33.1297C11.1703 33.2438 11.1307 33.3327 11.1038 33.3928L11.0634 33.4831C10.7112 34.2656 11.0109 35.1877 11.7557 35.6137C12.5007 36.0397 13.4473 35.8306 13.9433 35.1303L15.8168 32.4855C17.5092 32.3259 18.8333 30.9011 18.8333 29.167C18.8333 28.8902 18.7996 28.6213 18.736 28.3642L19.6667 27.0504L25.39 35.1303C25.886 35.8306 26.8327 36.0397 27.5775 35.6137C28.3224 35.1877 28.622 34.2656 28.2699 33.4831L28.2294 33.3928C28.2026 33.3327 28.1629 33.2438 28.1123 33.1297C28.0111 32.9016 27.8662 32.5731 27.6921 32.1734C27.3437 31.3732 26.8801 30.2916 26.4176 29.1609C25.9534 28.0262 25.4978 26.8607 25.1609 25.8874C24.9921 25.3996 24.8601 24.9804 24.7723 24.6487C24.6953 24.3576 24.6742 24.2128 24.6686 24.1747C24.668 24.1707 24.6676 24.1677 24.6673 24.1661C24.6668 24.1632 24.6667 24.1637 24.6667 24.167V22.0544C25.663 21.478 26.3333 20.4008 26.3333 19.167C26.3333 18.1714 25.8968 17.2777 25.2048 16.667H29.6667C30.5872 16.667 31.3333 15.9208 31.3333 15.0003C31.3333 14.0798 30.5872 13.3337 29.6667 13.3337H15.8874C15.3111 12.3373 14.2338 11.667 13 11.667C11.7662 11.667 10.6889 12.3373 10.1126 13.3337H9.66667C8.74617 13.3337 8 14.0798 8 15.0003C8 15.9208 8.74617 16.667 9.66667 16.667H10.1126C10.6889 17.6633 11.7662 18.3337 13 18.3337ZM14.6667 15.0003C14.6667 15.9208 13.9205 16.667 13 16.667C12.0795 16.667 11.3333 15.9208 11.3333 15.0003C11.3333 14.0798 12.0795 13.3337 13 13.3337C13.9205 13.3337 14.6667 14.0798 14.6667 15.0003ZM24.6667 19.167C24.6667 20.0875 23.9205 20.8337 23 20.8337C22.0795 20.8337 21.3333 20.0875 21.3333 19.167C21.3333 18.2465 22.0795 17.5003 23 17.5003C23.9205 17.5003 24.6667 18.2465 24.6667 19.167ZM17.1667 29.167C17.1667 30.0875 16.4205 30.8337 15.5 30.8337C14.5795 30.8337 13.8333 30.0875 13.8333 29.167C13.8333 28.2465 14.5795 27.5003 15.5 27.5003C16.4205 27.5003 17.1667 28.2465 17.1667 29.167Z" fill="white"/>
</svg>
