<svg width="40" height="40" viewBox="0 0 40 40" fill="none" xmlns="http://www.w3.org/2000/svg">
<path fill-rule="evenodd" clip-rule="evenodd" d="M11.7787 8.24445C11.8277 7.78685 12.2373 7.45571 12.6937 7.50483C14.4798 7.69705 15.4546 8.60725 15.9302 9.60533C16.1698 10.1085 16.2712 10.6116 16.3137 10.9992C17.7337 11.4529 18.7622 12.7862 18.7622 14.3602V25.6397C18.7622 27.0359 17.953 28.2427 16.779 28.8142C16.8055 29.0672 16.8672 29.3753 17.0105 29.6762C17.2411 30.1602 17.72 30.7083 18.9243 30.838C19.3807 30.8871 19.711 31.2978 19.662 31.7555C19.613 32.2131 19.2033 32.5442 18.7469 32.4951C16.9608 32.3029 15.9861 31.3927 15.5106 30.3947C15.3037 29.9603 15.1997 29.5261 15.1479 29.1661C14.8963 29.1633 14.6472 29.1502 14.4011 29.127C14.3237 29.5063 13.9906 29.7916 13.5914 29.7916C13.1348 29.7916 12.7647 29.4185 12.7647 28.9582C12.7647 28.9107 12.7687 28.864 12.7763 28.8186C12.4638 28.7282 12.1585 28.6212 11.8612 28.4983C11.7931 28.6693 11.736 28.8627 11.7078 29.0672C11.6324 29.6144 11.743 30.3231 12.6924 30.9995C13.0654 31.2652 13.1427 31.7793 12.8651 32.1477C12.5874 32.5161 12.06 32.5992 11.6871 32.3336C10.2128 31.2832 9.88775 29.9709 10.0392 28.8718C10.1007 28.426 10.2372 28.0309 10.3813 27.7159C10.1872 27.5885 9.99817 27.4536 9.81492 27.3117C9.66341 27.5026 9.43041 27.6249 9.169 27.6249C8.7125 27.6249 8.34241 27.2518 8.34241 26.7916C8.34241 26.5507 8.44367 26.3338 8.60575 26.1817C8.40692 25.9581 8.21916 25.7243 8.04333 25.4814C7.90757 25.6282 7.78197 25.7877 7.68136 25.9603C7.53136 26.2177 7.44272 26.4931 7.45089 26.7981C7.45901 27.1013 7.56445 27.4976 7.90752 27.9966C8.16708 28.3741 8.06308 28.8823 7.67524 29.1317C7.28741 29.3811 6.76261 29.2772 6.50307 28.8997C6.01232 28.186 5.77924 27.4927 5.76152 26.8309C5.74385 26.1707 5.94207 25.6056 6.20898 25.1477C6.47255 24.6957 6.80816 24.339 7.08551 24.0793C7.1156 24.0512 7.14526 24.0239 7.17428 23.9976C7.10143 23.8401 7.03303 23.6801 6.96926 23.5177C6.90597 23.5333 6.83984 23.5416 6.77178 23.5416C6.31525 23.5416 5.94516 23.1685 5.94516 22.7082C5.94516 22.3407 6.18121 22.0287 6.50881 21.918C6.45556 21.6355 6.41562 21.3483 6.38963 21.0572C6.13492 21.1792 5.85696 21.3453 5.59708 21.5628C4.98374 22.0762 4.53535 22.815 4.70704 23.9068C4.77838 24.3606 4.467 24.7804 4.01155 24.8445C3.55609 24.9087 3.12903 24.5928 3.05769 24.1391C2.77638 22.3501 3.56605 21.0774 4.51067 20.2868C5.10749 19.7873 5.79407 19.4539 6.36616 19.2752C6.37344 19.1352 6.38396 18.9961 6.39761 18.8578C6.02141 18.7798 5.73852 18.444 5.73852 18.0417C5.73852 17.5814 6.10862 17.2083 6.56515 17.2083C6.61656 17.2083 6.66688 17.2131 6.7157 17.2222C6.7868 16.9803 6.86785 16.7428 6.95836 16.5101C6.77902 16.4133 6.56161 16.3267 6.32649 16.2931C6.08826 16.259 5.83168 16.2785 5.55703 16.399C5.2784 16.5213 4.93252 16.7692 4.55575 17.2653C4.27671 17.6327 3.74901 17.7139 3.37711 17.4467C3.00521 17.1797 2.92994 16.6652 3.20898 16.2979C3.7237 15.6202 4.28807 15.1628 4.88627 14.9003C5.48846 14.636 6.07529 14.5912 6.59486 14.6655C7.01502 14.7256 7.38977 14.8627 7.70407 15.0227C7.86135 14.7709 8.03083 14.5276 8.21166 14.2935C8.08708 14.1476 8.01175 13.9577 8.01175 13.75C8.01175 13.2897 8.38183 12.9167 8.83833 12.9167C9.02575 12.9167 9.19858 12.9796 9.33725 13.0855C9.53058 12.913 9.73141 12.7489 9.93933 12.5937C9.89375 12.5285 9.84792 12.4634 9.79558 12.3928C9.62642 12.1643 9.43858 11.9458 9.21433 11.775C8.99766 11.6099 8.75033 11.4916 8.44683 11.4551C8.14075 11.4182 7.71549 11.4572 7.13504 11.7035C6.71095 11.8834 6.21266 11.6912 6.02208 11.2742C5.83151 10.8571 6.02081 10.3732 6.4449 10.1932C7.24241 9.85475 7.96882 9.74325 8.62808 9.82258C9.28992 9.90225 9.82158 10.1668 10.2375 10.4837C10.6458 10.7949 10.9442 11.1576 11.1547 11.4418C11.2306 11.5443 11.3016 11.6459 11.3587 11.7277C11.6176 11.6013 11.8835 11.4872 12.1557 11.3861C12.1486 11.3418 12.1448 11.2963 12.1448 11.25C12.1448 10.7898 12.5149 10.4167 12.9714 10.4167C13.3266 10.4167 13.6294 10.6425 13.7464 10.9594C14.0297 10.9112 14.3175 10.8764 14.6092 10.8557C14.572 10.6847 14.5156 10.5029 14.4302 10.3237C14.1996 9.83975 13.7207 9.29158 12.5163 9.162C12.06 9.11283 11.7297 8.70208 11.7787 8.24445ZM14.7087 23.0455C14.2653 22.9263 13.8096 23.1902 13.6908 23.6347L13.4757 24.4397C13.3569 24.8842 13.62 25.3412 14.0634 25.4602C14.5068 25.5794 14.9625 25.3156 15.0813 24.871L15.2965 24.0661C15.4152 23.6215 15.1522 23.1646 14.7087 23.0455ZM11.5987 21.9107C11.9233 21.5852 12.4496 21.5852 12.7742 21.9107C13.0987 22.2362 13.0987 22.7637 12.7742 23.0892L12.1865 23.6784C11.8619 24.0039 11.3357 24.0039 11.0111 23.6784C10.6865 23.353 10.6865 22.8254 11.0111 22.4999L11.5987 21.9107ZM12.5737 18.9657C12.6925 18.5211 12.4293 18.0642 11.986 17.945L10.7817 17.6215C10.3383 17.5024 9.88258 17.7662 9.76383 18.2107C9.645 18.6553 9.90816 19.1122 10.3515 19.2314L11.5557 19.5549C11.9992 19.674 12.4549 19.4102 12.5737 18.9657ZM14.6515 15.2009C14.5327 14.7564 14.077 14.4926 13.6336 14.6117C13.1902 14.7308 12.9271 15.1877 13.0458 15.6323L13.3686 16.8397C13.4873 17.2842 13.9431 17.5481 14.3865 17.429C14.8298 17.3098 15.093 16.8529 14.9742 16.4083L14.6515 15.2009Z" fill="white"/>
<path fill-rule="evenodd" clip-rule="evenodd" d="M26.6396 32.4951C27.096 32.5442 27.5057 32.2131 27.5547 31.7554C27.6037 31.2979 27.2733 30.8871 26.817 30.8379C25.6127 30.7084 25.1337 30.1602 24.9032 29.6763C24.8177 29.497 24.7613 29.3153 24.7242 29.1442C25.0159 29.1235 25.3037 29.0887 25.587 29.0405C25.7041 29.3574 26.0068 29.5832 26.362 29.5832C26.8185 29.5832 27.1886 29.2101 27.1886 28.7499C27.1886 28.7035 27.1848 28.6581 27.1777 28.6139C27.4498 28.5127 27.7158 28.3986 27.9747 28.2723C28.0317 28.354 28.1027 28.4556 28.1787 28.5581C28.3892 28.8424 28.6875 29.205 29.0958 29.5162C29.5117 29.8331 30.0434 30.0977 30.7052 30.1774C31.3645 30.2567 32.0909 30.1452 32.8884 29.8068C33.3125 29.6268 33.5018 29.1429 33.3112 28.7258C33.1207 28.3087 32.6224 28.1165 32.1983 28.2964C31.6178 28.5428 31.1926 28.5817 30.8865 28.5449C30.583 28.5084 30.3357 28.39 30.119 28.2249C29.8947 28.0541 29.7069 27.8356 29.5377 27.6071C29.4854 27.5365 29.4396 27.4714 29.394 27.4063C29.6019 27.251 29.8028 27.0869 29.9962 26.9144C30.1348 27.0204 30.3077 27.0832 30.4951 27.0832C30.9516 27.0832 31.3217 26.7101 31.3217 26.2499C31.3217 26.0422 31.2463 25.8523 31.1217 25.7064C31.3026 25.4724 31.472 25.229 31.6292 24.9772C31.9436 25.1372 32.3183 25.2744 32.7385 25.3344C33.2581 25.4088 33.8449 25.3639 34.4471 25.0996C35.0452 24.8371 35.6097 24.3797 36.1243 23.702C36.4034 23.3347 36.3281 22.8203 35.9562 22.5532C35.5843 22.286 35.0566 22.3673 34.7776 22.7346C34.4008 23.2307 34.0549 23.4786 33.7763 23.6009C33.5017 23.7214 33.2451 23.7409 33.0068 23.7069C32.7717 23.6732 32.5543 23.5866 32.375 23.4899C32.4655 23.257 32.5466 23.0195 32.6177 22.7778C32.6665 22.7869 32.7168 22.7915 32.7682 22.7915C33.2248 22.7915 33.5949 22.4184 33.5949 21.9583C33.5949 21.5559 33.312 21.22 32.9357 21.142C32.9494 21.0039 32.9599 20.8647 32.9672 20.7247C33.5392 20.546 34.2258 20.2126 34.8227 19.7131C35.7672 18.9225 36.5569 17.6499 36.2757 15.8609C36.2043 15.4071 35.7772 15.0913 35.3217 15.1554C34.8663 15.2195 34.5549 15.6394 34.6263 16.0931C34.798 17.1849 34.3496 17.9238 33.7362 18.4371C33.4763 18.6546 33.1984 18.8207 32.9437 18.9428C32.9177 18.6516 32.8777 18.3644 32.8245 18.0819C33.1522 17.9712 33.3882 17.6592 33.3882 17.2916C33.3882 16.8314 33.0182 16.4583 32.5617 16.4583C32.4936 16.4583 32.4274 16.4666 32.3641 16.4823C32.3003 16.3199 32.2319 16.1599 32.1591 16.0024C32.1881 15.976 32.2177 15.9488 32.2478 15.9206C32.5252 15.6609 32.8607 15.3043 33.1243 14.8522C33.3912 14.3944 33.5895 13.8292 33.5718 13.169C33.5541 12.5072 33.321 11.8139 32.8302 11.1002C32.5707 10.7227 32.0459 10.6189 31.6581 10.8683C31.2702 11.1176 31.1662 11.6259 31.4258 12.0034C31.7689 12.5024 31.8743 12.8986 31.8824 13.2019C31.8906 13.5069 31.802 13.7823 31.652 14.0396C31.5513 14.2122 31.4257 14.3718 31.29 14.5185C31.1142 14.2756 30.9264 14.0419 30.7277 13.8183C30.8897 13.6661 30.9911 13.4492 30.9911 13.2083C30.9911 12.7481 30.6209 12.375 30.1644 12.375C29.903 12.375 29.6699 12.4974 29.5184 12.6883C29.3352 12.5464 29.1462 12.4114 28.952 12.284C29.0962 11.969 29.2327 11.5739 29.2942 11.1281C29.4456 10.029 29.1205 8.71677 27.6462 7.66639C27.2733 7.40065 26.7459 7.48386 26.4683 7.85224C26.1907 8.22062 26.2679 8.73469 26.6409 9.00044C27.5903 9.67685 27.7009 10.3855 27.6256 10.9327C27.5973 11.1372 27.5402 11.3306 27.4722 11.5016C27.1749 11.3789 26.8695 11.2718 26.5571 11.1814C26.5647 11.1359 26.5687 11.0893 26.5687 11.0417C26.5687 10.5814 26.1986 10.2084 25.742 10.2084C25.3428 10.2084 25.0097 10.4936 24.9323 10.873C24.6862 10.8498 24.4371 10.8366 24.1854 10.8339C24.1336 10.4739 24.0297 10.0396 23.8227 9.60527C23.3472 8.60719 22.3725 7.69705 20.5864 7.50483C20.13 7.45571 19.7203 7.78685 19.6713 8.24446C19.6223 8.7021 19.9526 9.11285 20.409 9.16194C21.6133 9.2916 22.0922 9.83977 22.3228 10.3237C22.4662 10.6246 22.5278 10.9327 22.5543 11.1857C21.3803 11.7572 20.5711 12.964 20.5711 14.3603V25.6397C20.5711 27.2138 21.5996 28.547 23.0196 29.0007C23.0621 29.3884 23.1635 29.8914 23.4032 30.3946C23.8787 31.3927 24.8535 32.3029 26.6396 32.4951ZM25.4562 16.4485C25.3374 16.8931 24.8817 17.1569 24.4383 17.0378C23.9949 16.9187 23.7318 16.4617 23.8506 16.0172L24.0657 15.2123C24.1845 14.7677 24.6402 14.5039 25.0837 14.623C25.527 14.7421 25.7902 15.199 25.6713 15.6436L25.4562 16.4485ZM26.3729 18.1725C26.6974 18.498 27.2237 18.498 27.5482 18.1725L28.136 17.5833C28.4606 17.2579 28.4606 16.7303 28.136 16.4048C27.8114 16.0794 27.2852 16.0794 26.9606 16.4048L26.3729 16.994C26.0483 17.3195 26.0483 17.8471 26.3729 18.1725ZM27.1611 22.1382C26.7177 22.0191 26.4546 21.5622 26.5733 21.1176C26.6922 20.673 27.1479 20.4093 27.5913 20.5284L28.7955 20.8519C29.2389 20.971 29.5021 21.4279 29.3832 21.8725C29.2644 22.317 28.8087 22.5809 28.3653 22.4618L27.1611 22.1382ZM25.5135 25.4715C25.0701 25.5907 24.6143 25.3269 24.4956 24.8823L24.1728 23.6749C24.0541 23.2304 24.3172 22.7734 24.7606 22.6543C25.204 22.5352 25.6597 22.799 25.7785 23.2435L26.1012 24.4509C26.22 24.8955 25.9568 25.3524 25.5135 25.4715Z" fill="white"/>
</svg>
