<svg width="40" height="40" viewBox="0 0 40 40" fill="none" xmlns="http://www.w3.org/2000/svg">
<path d="M10.286 35V24.9187C8.84339 23.4317 6.0003 19.7199 6.00024 14.9352C6.0002 11.5337 8.51189 5 18.3665 5C23.4314 5 25.6811 6.238 27.6561 8.05619C27.7407 8.13403 27.8236 8.20957 27.9046 8.28339C28.6146 8.93075 29.1795 9.44575 29.4711 10.2171C30.5547 13.083 32.5046 17.2602 33.7566 19.8731C34.2909 20.988 33.4793 22.2864 32.2429 22.2864H31.1511V26.25C31.1511 27.1705 30.405 27.9167 29.4845 27.9167H26.8107C26.7732 27.9123 26.7351 27.9106 26.6964 27.9114C26.5378 27.9148 26.3737 27.9166 26.2051 27.9167C26.1989 27.9167 26.1927 27.9167 26.1865 27.9167C25.1259 27.9163 23.8895 27.8498 22.7279 27.7284C21.355 27.5849 20.1649 27.3722 19.496 27.1322C19.0627 26.9768 18.5856 27.2021 18.4301 27.6353C18.2747 28.0685 18.5 28.5457 18.9331 28.7011C19.8027 29.013 21.1623 29.2405 22.5546 29.386C23.0986 29.4429 23.6596 29.4884 24.2146 29.5213V35H10.286Z" fill="white"/>
</svg>
