<svg width="40" height="40" viewBox="0 0 40 40" fill="none" xmlns="http://www.w3.org/2000/svg">
<path d="M16.3333 9.99967C18.1743 9.99967 19.6667 8.50726 19.6667 6.66634C19.6667 4.82539 18.1743 3.33301 16.3333 3.33301C14.4923 3.33301 13 4.82539 13 6.66634C13 8.50726 14.4923 9.99967 16.3333 9.99967Z" fill="white"/>
<path d="M27.1672 8.33333C27.1672 7.8731 26.7941 7.5 26.3338 7.5C25.8736 7.5 25.5005 7.8731 25.5005 8.33333V10.2523L26.4737 11.7122C26.7291 12.0952 27.2465 12.1987 27.6294 11.9434C28.0123 11.6881 28.1158 11.1707 27.8606 10.7878L27.1672 9.74767V8.33333Z" fill="white"/>
<path fill-rule="evenodd" clip-rule="evenodd" d="M26.3335 15C29.0949 15 31.3335 12.7614 31.3335 10C31.3335 7.23857 29.0949 5 26.3335 5C23.5721 5 21.3335 7.23857 21.3335 10C21.3335 12.7614 23.5721 15 26.3335 15ZM26.3335 13.3333C28.1744 13.3333 29.6668 11.8409 29.6668 10C29.6668 8.15905 28.1744 6.66667 26.3335 6.66667C24.4926 6.66667 23.0002 8.15905 23.0002 10C23.0002 11.8409 24.4926 13.3333 26.3335 13.3333Z" fill="white"/>
<path fill-rule="evenodd" clip-rule="evenodd" d="M12.7923 22.5517C13.1288 22.821 13.5376 22.9386 13.9364 22.9138C13.9454 24.0131 13.9049 25.1508 13.8608 26.3955C13.7844 28.5483 13.6966 31.0208 13.8335 34.167V35.0003C13.8335 35.9208 14.5796 36.667 15.5001 36.667C16.4206 36.667 17.1668 35.9208 17.1668 35.0003V34.167L18.3852 27.7569C18.5512 27.7062 18.7588 27.6376 18.9935 27.5487C19.5574 27.3354 20.3297 26.9862 21.0637 26.4524C21.794 25.9213 22.5765 25.141 23.0039 24.0419C23.4486 22.8985 23.4349 21.5996 22.8809 20.2147C21.9245 17.8237 20.1786 15.7593 18.7619 14.3427C18.0408 13.6215 17.3758 13.0396 16.8889 12.6362C16.645 12.4342 16.4445 12.2757 16.3022 12.1658C16.231 12.1109 16.1744 12.068 16.134 12.0378L16.0859 12.0021L16.0715 11.9915L16.0668 11.988L16.0637 11.9857L15.9447 12.1493L15.9451 12.1486L15.9459 12.1475C16.0635 11.9857 16.0637 11.9857 16.0637 11.9857C15.7789 11.7786 15.4353 11.667 15.083 11.667H13.4168C12.7802 11.667 12.2729 11.9434 11.9723 12.1438C11.6434 12.3632 11.3479 12.6371 11.0979 12.899C10.5951 13.4257 10.1059 14.0852 9.69595 14.6864C9.27845 15.2988 8.90703 15.9045 8.64203 16.353C8.50887 16.5784 8.40087 16.7669 8.32553 16.9002C8.28778 16.967 8.2582 17.0201 8.23762 17.0572L8.21353 17.1008L8.20678 17.1132L8.20362 17.1189C7.81657 17.8285 7.99445 18.7135 8.62562 19.2184L12.7923 22.5517ZM13.5982 18.9277L11.8337 17.5162C12.0187 17.2168 12.2284 16.8893 12.45 16.5642C12.5842 16.3675 12.7182 16.1783 12.8496 16.0013C13.1914 17.0357 13.4319 17.9977 13.5982 18.9277Z" fill="white"/>
</svg>
