<svg width="40" height="40" viewBox="0 0 40 40" fill="none" xmlns="http://www.w3.org/2000/svg">
<path d="M27.3245 9.99967C29.1655 9.99967 30.6579 8.50726 30.6579 6.66634C30.6579 4.82539 29.1655 3.33301 27.3245 3.33301C25.4835 3.33301 23.9912 4.82539 23.9912 6.66634C23.9912 8.50726 25.4835 9.99967 27.3245 9.99967Z" fill="white"/>
<path d="M9.38238 8.05177C8.97596 7.83575 8.47138 7.99006 8.25538 8.39643C8.03935 8.80285 8.19371 9.30743 8.60004 9.52343L11.6953 11.1688L10.3029 11.7518C10.008 11.8752 9.80979 12.1563 9.79254 12.4755C9.77529 12.7947 9.94213 13.0956 10.222 13.25L14.3359 15.5206C14.7388 15.743 15.2457 15.5966 15.4681 15.1937C15.6905 14.7908 15.5441 14.2838 15.1412 14.0614L12.5361 12.6236L13.961 12.0271C14.2581 11.9027 14.4569 11.6183 14.4717 11.2968C14.4865 10.9751 14.3147 10.6737 14.0304 10.5225L9.38238 8.05177Z" fill="white"/>
<path d="M17.474 14.7385C18.7805 12.5994 20.93 10.9111 23.9915 10.9111C24.7546 10.9111 25.4202 11.4293 25.6073 12.169L27.0657 17.9346L30.4439 19.2859C31.2985 19.6278 31.7142 20.5977 31.3723 21.4524C31.0305 22.307 30.0605 22.7227 29.2059 22.3809L25.0392 20.7142C24.5438 20.516 24.1733 20.0927 24.0425 19.5755L23.412 17.0829C23.222 17.5436 23.035 18.0366 22.8564 18.5576C22.1116 20.7295 21.5535 23.2632 21.4907 25.7809C21.4913 25.7983 21.4915 25.8158 21.4915 25.8334V35C21.4915 35.9205 20.7454 36.6667 19.8249 36.6667C18.9044 36.6667 18.1582 35.9205 18.1582 35V26.8492L18.1147 26.7937C17.8634 26.4716 17.5251 26.0198 17.1836 25.5061C16.8456 24.9979 16.4835 24.3979 16.2005 23.7829C15.9333 23.2024 15.6582 22.4448 15.6582 21.6667C15.6582 19.4165 16.1992 16.8256 17.474 14.7385Z" fill="white"/>
<path d="M26.4912 25.6943C26.4912 24.3137 27.6105 23.1943 28.9912 23.1943C30.3719 23.1943 31.4912 24.3137 31.4912 25.6943V35.8333C31.4912 36.2935 31.1181 36.6666 30.6579 36.6666C30.1976 36.6666 29.8245 36.2935 29.8245 35.8333V25.6943C29.8245 25.2342 29.4515 24.861 28.9912 24.861C28.531 24.861 28.1579 25.2342 28.1579 25.6943V25.8796C28.1579 26.3398 27.7848 26.7129 27.3245 26.7129C26.8643 26.7129 26.4912 26.3398 26.4912 25.8796V25.6943Z" fill="white"/>
<path d="M8.01772 16.6487C8.11004 16.1817 8.53723 15.8759 8.97181 15.9659L12.0273 16.5985C12.3201 16.6592 12.5542 16.8895 12.6349 17.1965C12.7156 17.5034 12.6294 17.8362 12.4114 18.0602L11.7468 18.7428L13.3619 19.163C13.7916 19.2748 14.0488 19.7402 13.9361 20.2025C13.8236 20.6648 13.3838 20.949 12.9541 20.8372L9.93315 20.0512C9.65006 19.9777 9.42965 19.7445 9.35748 19.4425C9.28523 19.1405 9.37273 18.8172 9.58581 18.5982L10.1891 17.9785L8.63748 17.6572C8.2029 17.5672 7.9254 17.1157 8.01772 16.6487Z" fill="white"/>
</svg>
