<svg width="40" height="40" viewBox="0 0 40 40" fill="none" xmlns="http://www.w3.org/2000/svg">
<path fill-rule="evenodd" clip-rule="evenodd" d="M29.1667 7.91667C29.1667 6.30583 30.4725 5 32.0833 5C33.6942 5 35 6.30583 35 7.91667V12.9167C35 14.2356 34.1246 15.3501 32.923 15.7107C32.9298 16.5889 32.9412 17.4396 32.9522 18.2615C32.9935 21.3622 33.0293 24.0529 32.7967 26.264C32.4632 29.4338 31.5542 31.9265 29.0832 33.3828C26.2772 35.0365 22.2459 35.5358 18.9406 35.1196C17.2818 34.9108 15.7273 34.4624 14.5615 33.7498C13.7163 33.2332 13.0149 32.5338 12.6917 31.6478C10.954 31.5703 9.22525 31.2543 7.85793 30.6874C6.38769 30.0779 5 29.0205 5 27.3663V10.9351H5.00243C5.00082 10.9013 5 10.8673 5 10.8333C5 8.53217 8.731 6.66667 13.3333 6.66667C17.9357 6.66667 21.6667 8.53217 21.6667 10.8333C21.6667 10.8673 21.6658 10.9013 21.6642 10.9351H21.6667V15.8924C21.7728 15.9076 21.8781 15.9257 21.9823 15.9465C22.225 15.9949 22.4623 16.0585 22.6932 16.1361C25.0029 16.9125 26.6667 19.0953 26.6667 21.6667C26.6667 24.6057 24.4932 27.0371 21.6658 27.4411C21.6271 29.1202 20.2847 30.1831 18.8038 30.7858C17.5968 31.2769 16.1128 31.5518 14.5928 31.6374C14.7933 31.8758 15.0693 32.1069 15.4307 32.3278C16.3253 32.8747 17.6266 33.2743 19.1488 33.466C22.2055 33.8508 25.8374 33.3612 28.2369 31.947C30.0225 30.8946 30.8252 29.0738 31.1392 26.0897C31.361 23.9816 31.3271 21.4462 31.2864 18.4037V18.4025C31.275 17.5472 31.263 16.6516 31.2561 15.7143C30.0482 15.3578 29.1667 14.2402 29.1667 12.9167V7.91667ZM18.4805 12.2889C19.8114 11.6235 20 11.0126 20 10.8333C20 10.6541 19.8114 10.0432 18.4805 9.37775C17.2493 8.76217 15.4319 8.33333 13.3333 8.33333C11.2347 8.33333 9.41733 8.76217 8.18613 9.37775C6.85527 10.0432 6.66667 10.6541 6.66667 10.8333C6.66667 11.0126 6.85527 11.6235 8.18613 12.2889C9.41733 12.9045 11.2347 13.3333 13.3333 13.3333C15.4319 13.3333 17.2493 12.9045 18.4805 12.2889ZM13.3333 15C16.0593 15 18.4796 14.3456 20 13.3337V15.8924C19.8938 15.9076 19.7886 15.9257 19.6843 15.9465C19.4417 15.9949 19.2043 16.0585 18.9735 16.1361C16.6637 16.9125 15 19.0953 15 21.6667C15 24.6047 17.172 27.0353 19.9979 27.4406C19.9611 28.0892 19.4369 28.7287 18.1754 29.2421C16.9049 29.7592 15.1492 30.0196 13.3428 29.999C13.0858 29.9961 12.8298 29.9874 12.5758 29.9733V14.983C12.8253 14.9943 13.078 15 13.3333 15ZM20.8333 17.9167L19.5833 22.0833L20.8333 23.75L22.0833 22.0833L20.8333 17.9167Z" fill="white"/>
</svg>
