<svg width="40" height="40" viewBox="0 0 40 40" fill="none" xmlns="http://www.w3.org/2000/svg">
<path fill-rule="evenodd" clip-rule="evenodd" d="M27.2216 17.8071C26.8105 16.9977 25.9226 16.5476 25.0268 16.6946L13.983 18.5067C13.066 18.6571 12.2756 19.2356 11.8548 20.0641L8.22584 27.2093C7.87176 27.9064 7.93789 28.7432 8.39709 29.3761L13.1723 35.9577C13.848 36.8889 15.1508 37.0961 16.082 36.4204C17.0133 35.7448 17.2205 34.442 16.5448 33.5108L15.1376 31.5712C15.2395 31.0873 15.5547 30.6535 16.0327 30.4183L18.7253 29.0928L16.0326 27.7673C15.4628 27.4869 15.1019 26.9071 15.1019 26.272V22.9813C15.1019 22.0608 15.8482 21.3146 16.7686 21.3146C17.6891 21.3146 18.4353 22.0608 18.4353 22.9813V25.2348L23.2349 27.5973C23.5538 27.754 23.8253 28.0134 23.9943 28.3568C24.3016 28.9809 24.1825 29.7039 23.7495 30.1954L23.767 30.1911L22.7228 31.6303C22.0471 32.5616 22.2543 33.8643 23.1856 34.54C24.1169 35.2157 25.4196 35.0085 26.0953 34.0772L30.8705 27.4957C31.3298 26.8628 31.3958 26.026 31.0418 25.3288L27.2216 17.8071ZM28 23.7503C28 25.3611 26.6942 26.6669 25.0833 26.6669C23.4725 26.6669 22.1667 25.3611 22.1667 23.7503C22.1667 22.1394 23.4725 20.8336 25.0833 20.8336C26.6942 20.8336 28 22.1394 28 23.7503Z" fill="white"/>
<path d="M25.4997 9.16634C25.4997 12.388 22.888 14.9997 19.6663 14.9997C16.4447 14.9997 13.833 12.388 13.833 9.16634C13.833 5.94468 16.4447 3.33301 19.6663 3.33301C22.888 3.33301 25.4997 5.94468 25.4997 9.16634Z" fill="white"/>
</svg>
