<svg width="40" height="40" viewBox="0 0 40 40" fill="none" xmlns="http://www.w3.org/2000/svg">
<path fill-rule="evenodd" clip-rule="evenodd" d="M19.7162 3.33301H18.1092L17.3177 8.78417L20.5733 29.42C20.5733 29.42 14.1957 32.2102 12.9999 32.2102C12.5843 32.2102 12.1687 32.1139 11.7709 32.0217C11.024 31.8486 10.3395 31.6899 9.83424 32.2101C9.05999 33.0073 8.42797 33.9862 9.83407 35.3987C11.2402 36.8111 13.8036 36.9917 16.9862 36.196C21.1307 35.1598 22.4172 35.6554 23.4802 36.065C24.0529 36.2856 24.5608 36.4813 25.4158 36.3991C27.548 36.194 28.2939 35.0089 28.7877 34.2245C28.8594 34.1107 28.926 34.0048 28.9905 33.9121C29.4995 33.1804 29.1116 30.3048 27.2847 29.0171C27.1512 28.3019 28.1522 23.2643 29.3834 18.8853C31.3068 12.0453 28.9599 7.45509 27.4101 4.4238C27.2458 4.10264 27.0905 3.61999 26.9502 3.33301H25.1401L25.9537 5.08636L25.9571 5.08642L25.9892 5.14948C26.174 5.5123 26.3667 5.89074 26.5598 6.28667L26.5677 6.30219C27.9715 9.18476 29.3838 12.9941 27.8487 18.4538C27.2217 20.6831 26.6548 23.0748 26.2602 25.0059C26.0632 25.9703 25.9059 26.8352 25.8058 27.5161C25.756 27.8549 25.7176 28.1662 25.6967 28.4303C25.6802 28.6379 25.6575 28.9886 25.7175 29.3098L25.8365 29.9468L26.3662 30.3202C26.8785 30.6813 27.2732 31.3423 27.4742 32.0879C27.571 32.4473 27.6053 32.7665 27.6015 32.9926C27.6005 33.0535 27.5971 33.0989 27.5935 33.1307C27.4954 33.2766 27.4186 33.3995 27.3503 33.5086C27.1848 33.7734 27.0702 33.9566 26.8272 34.1886C26.5625 34.4413 26.1306 34.7286 25.2632 34.812C24.906 34.8464 24.6939 34.8029 24.4596 34.7264C24.3399 34.6874 24.2297 34.645 24.0735 34.5849L24.0722 34.5844L24.0113 34.561L23.9255 34.5281C23.7024 34.443 23.4272 34.3416 23.1037 34.2517C21.7292 33.8695 19.9272 33.8173 16.5994 34.6493C13.4969 35.4249 11.7249 35.0382 10.964 34.2738C10.7144 34.0231 10.6292 33.8646 10.6033 33.8027L10.6008 33.7963C10.6089 33.7787 10.6233 33.7508 10.6485 33.712C10.6936 33.6423 10.7577 33.5601 10.8481 33.4596C10.8814 33.464 10.9225 33.4704 10.9722 33.4795C11.1162 33.5058 11.2215 33.5306 11.3555 33.5622C11.4648 33.5879 11.5935 33.6182 11.7774 33.6574C12.1063 33.7275 12.5337 33.8045 12.9999 33.8045C13.3743 33.8045 13.7797 33.71 14.0758 33.6318C14.4156 33.542 14.8022 33.4199 15.2029 33.283C16.007 33.0085 16.9454 32.6481 17.8272 32.2954C18.7126 31.9413 19.5579 31.5879 20.1808 31.3237C20.4926 31.1914 20.7495 31.0811 20.9289 31.0037C21.0186 30.9649 21.0889 30.9344 21.1371 30.9135L21.2119 30.8809L22.34 30.3873L18.9301 8.77426L19.7162 3.33301ZM10.7288 33.4494C10.726 33.4495 10.7247 33.4497 10.7247 33.4497L10.7263 33.4496L10.7288 33.4494Z" fill="white"/>
<path fill-rule="evenodd" clip-rule="evenodd" d="M25.9534 5.08636L25.1398 3.33301H19.716L18.9298 8.77426L22.3398 30.3873L21.2117 30.8809L21.1368 30.9135C21.0887 30.9344 21.0183 30.9649 20.9287 31.0037C20.7493 31.0811 20.4923 31.1914 20.1806 31.3237C19.5577 31.5879 18.7123 31.9413 17.8269 32.2954C16.9452 32.6481 16.0068 33.0085 15.2027 33.283C14.8019 33.4199 14.4153 33.542 14.0756 33.6318C13.7795 33.71 13.3741 33.8045 12.9997 33.8045C12.5335 33.8045 12.1061 33.7275 11.7772 33.6574C11.5933 33.6182 11.4646 33.5879 11.3553 33.5622C11.2213 33.5306 11.1159 33.5058 10.972 33.4795C10.9223 33.4704 10.8812 33.464 10.8478 33.4596C10.7575 33.5601 10.6933 33.6423 10.6483 33.712C10.6231 33.7508 10.6087 33.7787 10.6006 33.7963L10.6031 33.8027C10.629 33.8646 10.7142 34.0231 10.9638 34.2738C11.7247 35.0382 13.4967 35.4249 16.5992 34.6493C19.9269 33.8173 21.729 33.8695 23.1035 34.2517C23.4269 34.3416 23.7022 34.443 23.9253 34.5281L24.0111 34.561L24.072 34.5844L24.0733 34.5849C24.2294 34.645 24.3397 34.6874 24.4593 34.7264C24.6937 34.8029 24.9058 34.8464 25.2629 34.812C26.1303 34.7286 26.5623 34.4413 26.827 34.1886C27.07 33.9566 27.1846 33.7734 27.3501 33.5086C27.4183 33.3995 27.4952 33.2766 27.5933 33.1307C27.5968 33.0989 27.6003 33.0535 27.6013 32.9926C27.6051 32.7665 27.5708 32.4473 27.4739 32.0879C27.273 31.3423 26.8783 30.6813 26.3659 30.3202L25.8363 29.9468L25.7173 29.3098C25.6573 28.9886 25.68 28.6379 25.6964 28.4303C25.7173 28.1662 25.7558 27.8549 25.8056 27.5161C25.9057 26.8352 26.0629 25.9703 26.2599 25.0059C26.6546 23.0748 27.2215 20.6831 27.8484 18.4538C29.3836 12.9941 27.9713 9.18476 26.5674 6.30219L26.5596 6.28667C26.3665 5.89074 26.1738 5.5123 25.9889 5.14948L25.9568 5.08642L25.9534 5.08636ZM21.1343 7.43329C21.4502 7.12652 21.9548 7.13383 22.2616 7.44962C22.617 7.81548 22.872 8.17984 23.0339 8.55167C23.6458 8.21352 24.4324 8.00057 25.3761 8.13759C25.8118 8.20086 26.1137 8.60534 26.0504 9.04101C25.9872 9.47676 25.5827 9.77867 25.147 9.71534C24.0683 9.55876 23.3446 10.1999 23.084 10.5767C23.0593 10.6612 23.0353 10.7382 23.0128 10.8103C22.9275 11.0833 22.8643 11.2858 22.8697 11.559C22.8754 11.8532 22.9797 12.2839 23.5614 12.8683C23.872 13.1804 23.8708 13.6851 23.5588 13.9958C23.2468 14.3063 22.742 14.3052 22.4314 13.9931C21.6073 13.1651 21.2907 12.3577 21.2756 11.5903C21.2645 11.0259 21.4366 10.4895 21.5319 10.1923C21.5478 10.143 21.5615 10.1001 21.5719 10.0649C21.5748 10.0551 21.5775 10.0458 21.5798 10.0373C21.6556 9.76092 21.6753 9.56976 21.636 9.38442C21.5975 9.20267 21.4819 8.93517 21.118 8.56051C20.8113 8.24475 20.8186 7.74007 21.1343 7.43329ZM24.8971 17.1802C25.021 16.7577 25.4639 16.5157 25.8864 16.6395C26.3088 16.7634 26.5509 17.2063 26.427 17.6288C26.0672 18.8558 25.0606 19.1757 24.7508 19.2742C24.7348 19.2792 24.7208 19.2837 24.7087 19.2877C24.6543 19.3057 24.6003 19.3193 24.5468 19.3293C24.3847 19.3758 24.1518 19.4828 23.9628 19.6618C23.7673 19.8471 23.611 20.1123 23.6263 20.5349C23.6423 20.9748 23.2985 21.3445 22.8586 21.3604C22.4186 21.3764 22.049 21.0327 22.033 20.5927C22.0018 19.7343 22.3207 19.0766 22.7559 18.615C22.5433 18.4173 22.3484 18.192 22.1875 17.9566C21.9391 17.5931 22.0323 17.097 22.3958 16.8486C22.7593 16.6002 23.2553 16.6934 23.5038 17.0569C23.6655 17.2936 23.8869 17.5108 24.0902 17.6455C24.1768 17.7028 24.2432 17.7339 24.2849 17.7487C24.4072 17.7083 24.5077 17.672 24.6112 17.6004C24.7143 17.529 24.8283 17.4144 24.8971 17.1802Z" fill="white"/>
</svg>
