<svg width="40" height="40" viewBox="0 0 40 40" fill="none" xmlns="http://www.w3.org/2000/svg">
<path d="M15.2779 16.3934L17.9417 3.99171C18.0242 3.60767 18.3637 3.33337 18.7564 3.33337H27.5541C28.0559 3.33337 28.4452 3.77333 28.3448 4.26504C27.0543 10.5876 20.9998 17.3505 20.9998 17.3505L22.0673 19.146C22.73 20.2609 23.0533 21.545 22.9973 22.8408L22.6664 30.4915L24.2027 32.3757C24.7956 33.1029 24.9379 34.0983 24.5725 34.9625L24.5262 35.0722C23.9738 36.3788 22.4223 36.9336 21.1666 36.2736C20.519 35.9333 19.7752 35.8227 19.0566 35.96L15.7382 36.5944C15.635 36.614 15.5303 36.624 15.4253 36.624H12.6664C11.7459 36.624 10.9998 35.8778 10.9998 34.9573V33.9958H13.4998L18.9164 31.8056L15.4173 21.1785C15.2511 20.6739 15.1664 20.146 15.1664 19.6147V17.4434C15.1664 17.0904 15.2038 16.7385 15.2779 16.3934Z" fill="white"/>
</svg>
