<svg width="40" height="40" viewBox="0 0 40 40" fill="none" xmlns="http://www.w3.org/2000/svg">
<path fill-rule="evenodd" clip-rule="evenodd" d="M17.6605 2.80092C19.4086 1.73302 21.6519 1.73303 23.4001 2.80092L25.439 4.04646C28.2975 5.79264 31.5548 6.1824 34.826 6.5739C35.8836 6.7005 36.9426 6.8272 37.9901 7C37.9901 7 38.0132 8.8335 37.9889 9.6659L37.7799 16.817C37.6006 22.9498 34.8719 28.7654 30.1911 32.991C27.9828 34.9844 25.699 36.7851 23.0748 38.2813C21.5189 39.1684 19.594 39.2387 17.9711 38.4676C14.9411 37.028 12.2577 35.2023 9.80816 32.991C5.12727 28.7654 2.39861 22.9498 2.21934 16.817L2.01097 9.6887C1.98629 8.8445 2.01097 7 2.01097 7C2.86139 6.8996 3.72816 6.8173 4.6015 6.7344C8.45697 6.3682 12.4402 5.98986 15.708 3.99367L17.6605 2.80092ZM17.9895 18V11H21.9915V18H28.9951V22H21.9915V29H17.9895V22H10.9859V18H17.9895Z" fill="white"/>
</svg>
