<svg width="39" height="34" viewBox="0 0 39 34" fill="none" xmlns="http://www.w3.org/2000/svg">
<path d="M17.4724 12.5926V22.037M21.2495 22.037L21.2501 12.5926M26.9169 31.4815C19.3613 29.4778 4.25022 24.9895 4.25022 23.0659C4.25022 21.0629 12.9877 22.3968 17.362 23.5931C18.6357 23.9415 20.087 23.9415 21.3607 23.5931C25.7349 22.3968 34.4724 21.0629 34.4724 23.0659C34.4724 24.9895 19.3613 29.4778 11.8058 31.4815M2.36133 17.3148C11.428 17.3148 13.6947 12.6549 15.9613 11.7198C18.228 10.7848 20.4947 10.7846 22.7613 11.72C25.028 12.6555 27.2947 17.3148 36.3613 17.3148M21.7224 4.32868C21.7224 5.41535 20.6653 6.29627 19.3613 6.29627C18.0573 6.29627 17.0002 5.41535 17.0002 4.32868C17.0002 3.24201 18.0573 2.36108 19.3613 2.36108C20.6653 2.36108 21.7224 3.24201 21.7224 4.32868Z" stroke="#BA9BF7" stroke-width="4.72222" stroke-linecap="round" stroke-linejoin="round"/>
</svg>
