<svg width="40" height="40" viewBox="0 0 40 40" fill="none" xmlns="http://www.w3.org/2000/svg">
<path fill-rule="evenodd" clip-rule="evenodd" d="M15.8334 7.08341C15.8334 4.78223 17.6989 2.91675 20.0001 2.91675C22.3013 2.91675 24.1668 4.78223 24.1668 7.08341C24.1668 9.3846 22.3013 11.2501 20.0001 11.2501C17.6989 11.2501 15.8334 9.3846 15.8334 7.08341ZM37.0212 12.828C37.3003 13.9442 36.6218 15.0754 35.5055 15.3545C32.1973 16.1818 28.8999 16.8035 24.5359 17.1365C24.6013 20.6822 26.398 24.4932 28.512 27.7101C29.6498 29.4416 30.8169 30.9072 31.7004 31.9401C32.141 32.4552 32.5082 32.8593 32.762 33.1313C32.8888 33.2672 32.9871 33.3699 33.0518 33.4368C33.0842 33.4702 33.1081 33.4947 33.123 33.5098L33.1385 33.5255L33.1399 33.5269C33.1401 33.5271 33.1403 33.5273 33.1405 33.5275C33.7359 34.1234 33.9139 35.0191 33.5915 35.7973C33.2691 36.5758 32.5094 37.0834 31.6668 37.0834H28.3334C27.1828 37.0834 26.2501 36.1507 26.2501 35.0001C26.2501 34.2152 26.6841 33.5317 27.3253 33.1765C26.6058 32.2639 25.8134 31.1907 25.0299 29.9984C23.9998 28.4308 22.938 26.5874 22.0884 24.5827C21.5664 24.5818 21.0759 24.5796 20.6137 24.5774C18.7885 24.5689 17.4055 24.5625 16.276 24.6544C14.7876 24.7754 14.2721 25.043 14.0259 25.2729C13.7799 25.5025 13.4247 26.0504 13.1968 27.7061C12.9719 29.3392 12.9168 31.6463 12.9168 35.0001C12.9168 35.5526 12.6972 36.0826 12.3065 36.4733C11.9158 36.864 11.3858 37.0835 10.8333 37.0834L7.49929 37.0832C6.34869 37.0831 5.41602 36.1503 5.4161 34.9997C5.41618 33.8491 6.34899 32.9164 7.49958 32.9165L8.75905 32.9166C8.78237 30.5779 8.85852 28.6668 9.06906 27.1377C9.33592 25.1995 9.86627 23.4557 11.1829 22.2269C12.4992 20.9983 14.2234 20.6409 15.9383 20.5014C16.2374 20.4771 16.5524 20.4587 16.8825 20.4448C16.7978 19.6865 16.7351 18.8878 16.6892 18.2052C16.6705 17.9258 16.654 17.658 16.6398 17.4105C13.3287 17.415 9.48176 17.3105 4.89641 17.0814C3.74725 17.024 2.86222 16.0458 2.91964 14.8967C2.97705 13.7475 3.95518 12.8625 5.10434 12.9199C21.6567 13.747 28.0994 12.9117 34.4946 11.3123C35.6109 11.0332 36.742 11.7118 37.0212 12.828Z" fill="#F2F2F2"/>
</svg>
