<svg width="40" height="40" viewBox="0 0 40 40" fill="none" xmlns="http://www.w3.org/2000/svg">
<path d="M27.6576 10C29.4985 10 30.9909 8.50762 30.9909 6.66671C30.9909 4.82576 29.4985 3.33337 27.6576 3.33337C25.8166 3.33337 24.3242 4.82576 24.3242 6.66671C24.3242 8.50762 25.8166 10 27.6576 10Z" fill="#BA9BF7"/>
<path d="M9.71587 8.05177C9.30946 7.83575 8.80487 7.99006 8.58887 8.39643C8.37285 8.80285 8.5272 9.30743 8.93354 9.52343L12.0288 11.1688L10.6364 11.7518C10.3415 11.8752 10.1433 12.1563 10.126 12.4755C10.1088 12.7947 10.2756 13.0956 10.5555 13.25L14.6694 15.5206C15.0723 15.743 15.5792 15.5966 15.8016 15.1937C16.024 14.7908 15.8776 14.2838 15.4747 14.0614L12.8696 12.6236L14.2945 12.0271C14.5916 11.9027 14.7904 11.6183 14.8052 11.2968C14.82 10.9751 14.6482 10.6737 14.3639 10.5225L9.71587 8.05177Z" fill="#BA9BF7"/>
<path d="M17.807 14.7388C19.1135 12.5997 21.263 10.9115 24.3245 10.9115C25.0876 10.9115 25.7532 11.4297 25.9403 12.1694L27.3987 17.935L30.7769 19.2862C31.6315 19.6282 32.0472 20.5981 31.7053 21.4527C31.3635 22.3073 30.3935 22.7231 29.5389 22.3812L25.3722 20.7146C24.8768 20.5164 24.5063 20.0931 24.3755 19.5758L23.745 17.0832C23.555 17.544 23.368 18.037 23.1894 18.558C22.4446 20.7298 21.8865 23.2636 21.8237 25.7812C21.8243 25.7987 21.8245 25.8162 21.8245 25.8337V35.0004C21.8245 35.9209 21.0784 36.6671 20.1579 36.6671C19.2374 36.6671 18.4912 35.9209 18.4912 35.0004V26.8496L18.4477 26.7941C18.1964 26.472 17.8581 26.0202 17.5166 25.5065C17.1786 24.9982 16.8165 24.3982 16.5335 23.7832C16.2663 23.2027 15.9912 22.4452 15.9912 21.6671C15.9912 19.4169 16.5322 16.826 17.807 14.7388Z" fill="#BA9BF7"/>
<path d="M26.8242 25.6942C26.8242 24.3135 27.9435 23.1942 29.3242 23.1942C30.7049 23.1942 31.8242 24.3135 31.8242 25.6942V35.8331C31.8242 36.2934 31.4511 36.6665 30.9909 36.6665C30.5306 36.6665 30.1576 36.2934 30.1576 35.8331V25.6942C30.1576 25.234 29.7845 24.8609 29.3242 24.8609C28.864 24.8609 28.4909 25.234 28.4909 25.6942V25.8795C28.4909 26.3396 28.1178 26.7128 27.6576 26.7128C27.1973 26.7128 26.8242 26.3396 26.8242 25.8795V25.6942Z" fill="#BA9BF7"/>
<path d="M8.35073 16.649C8.44305 16.182 8.87024 15.8763 9.30482 15.9663L12.3603 16.5989C12.6532 16.6595 12.8872 16.8899 12.9679 17.1969C13.0486 17.5038 12.9624 17.8365 12.7444 18.0605L12.0798 18.7432L13.6949 19.1634C14.1247 19.2752 14.3818 19.7406 14.2692 20.2029C14.1566 20.6652 13.7168 20.9494 13.2871 20.8375L10.2662 20.0516C9.98307 19.978 9.76265 19.7449 9.69049 19.4429C9.61824 19.1409 9.70574 18.8175 9.91882 18.5986L10.5222 17.9789L8.97049 17.6576C8.5359 17.5676 8.25841 17.1161 8.35073 16.649Z" fill="#BA9BF7"/>
</svg>
