<svg xmlns="http://www.w3.org/2000/svg" width="24" height="24" viewBox="0 0 24 24" fill="none">
  <path d="M21.1525 10.8995L12.1369 19.9151C9.79349 22.2585 5.97257 22.2585 3.62913 19.9151C1.28569 17.5717 1.28569 13.7507 3.62913 11.4073L11.9419 3.09451C13.4914 1.54503 15.9948 1.54503 17.5443 3.09451C19.0938 4.64399 19.0938 7.14743 17.5443 8.69691L9.93132 16.3099C9.15658 17.0846 7.90486 17.0846 7.13012 16.3099C6.35538 15.5351 6.35538 14.2834 7.13012 13.5087L13.3408 7.29799L12.2801 6.23733L6.06946 12.448C4.70038 13.8171 4.70038 16.0015 6.06946 17.3705C7.43854 18.7396 9.62291 18.7396 10.992 17.3705L18.605 9.75757C20.7488 7.61375 20.7488 4.17767 18.605 2.03385C16.4612 -0.109969 13.0251 -0.109969 10.8813 2.03385L2.56847 10.3466C-0.369308 13.2844 -0.369308 18.038 2.56847 20.9758C5.50625 23.9135 10.2599 23.9135 13.1976 20.9758L22.2132 11.9602L21.1525 10.8995Z" fill="currentColor"/>
</svg>

