<svg width="27" height="26" viewBox="0 0 27 26" fill="none" xmlns="http://www.w3.org/2000/svg">
<path d="M12.0039 17.2425V25.41C12.0044 25.4808 11.9898 25.5509 11.9612 25.6157C11.9325 25.6804 11.8905 25.7383 11.8378 25.7856C11.7851 25.8328 11.7229 25.8684 11.6555 25.8898C11.588 25.9113 11.5167 25.9182 11.4464 25.91C9.13572 25.6262 6.9432 24.7288 5.09671 23.311C3.25022 21.8931 1.81714 20.0066 0.946411 17.8475C0.920384 17.7819 0.908554 17.7115 0.911699 17.641C0.914845 17.5704 0.932895 17.5013 0.964661 17.4383C0.996426 17.3752 1.04119 17.3196 1.096 17.2751C1.15081 17.2306 1.21443 17.1982 1.28266 17.18L9.16891 15.0625C9.26986 15.036 9.37658 15.0418 9.47409 15.079C9.5716 15.1162 9.65502 15.183 9.71266 15.27C10.1902 15.9608 10.8715 16.4852 11.6614 16.77C11.7608 16.803 11.8473 16.8664 11.9087 16.9511C11.9702 17.0359 12.0035 17.1378 12.0039 17.2425ZM13.0114 2.81278e-05C12.8795 -0.000961537 12.7486 0.0241737 12.6264 0.0739851C12.5042 0.123797 12.3931 0.197299 12.2995 0.290257C12.2058 0.383214 12.1315 0.493787 12.0807 0.615604C12.03 0.737422 12.0039 0.868073 12.0039 1.00003V8.00003C12.0019 8.26304 12.1044 8.5161 12.2889 8.7036C12.4733 8.8911 12.7246 8.99772 12.9877 9.00003C13.9321 8.99595 14.8475 9.32618 15.5718 9.93225C16.2961 10.5383 16.7827 11.3811 16.9452 12.3115C17.1078 13.2418 16.9359 14.1997 16.4601 15.0155C15.9842 15.8312 15.235 16.4523 14.3452 16.7688C14.2458 16.802 14.1594 16.8657 14.0982 16.9507C14.037 17.0357 14.004 17.1378 14.0039 17.2425V25.41C14.0035 25.4807 14.018 25.5507 14.0466 25.6153C14.0751 25.68 14.1171 25.7378 14.1697 25.7851C14.2222 25.8323 14.2842 25.8679 14.3515 25.8894C14.4188 25.911 14.4899 25.918 14.5602 25.91C17.8545 25.5204 20.8753 23.8861 23.0039 21.3418C25.1326 18.7975 26.208 15.5357 26.0101 12.2243C25.8122 8.91293 24.3558 5.80247 21.9392 3.52986C19.5227 1.25726 16.3287 -0.00554731 13.0114 2.81278e-05ZM9.01141 12.6863C9.05795 12.0956 9.23514 11.5226 9.53016 11.0088V11C9.62925 10.8289 9.67537 10.6322 9.66269 10.4348C9.65 10.2375 9.57909 10.0483 9.45891 9.89128C9.37484 9.78324 9.27036 9.69278 9.15141 9.62503L3.11016 6.13253C2.99634 6.06689 2.87069 6.02433 2.74041 6.00728C2.61013 5.99023 2.47776 5.99902 2.35088 6.03315C2.224 6.06728 2.10508 6.12608 2.00094 6.20619C1.89679 6.2863 1.80945 6.38615 1.74391 6.50003C0.289047 9.01974 -0.279553 11.9543 0.128911 14.835C0.138549 14.9053 0.163044 14.9728 0.200767 15.0329C0.23849 15.093 0.288577 15.1444 0.347698 15.1837C0.406819 15.2229 0.47362 15.2491 0.543659 15.2606C0.613698 15.272 0.68537 15.2684 0.753911 15.25L8.65641 13.125C8.75435 13.098 8.84151 13.0413 8.90596 12.9627C8.97041 12.8842 9.00899 12.7876 9.01641 12.6863H9.01141Z" fill="white"/>
</svg>
