<svg width="34" height="37" viewBox="0 0 34 37" fill="none" xmlns="http://www.w3.org/2000/svg">
<path fill-rule="evenodd" clip-rule="evenodd" d="M20.5195 8.20913C22.1918 3.0734 25.987 0 30.4173 0C31.5679 0 32.5007 0.93274 32.5007 2.08333C32.5007 3.23393 31.5679 4.16667 30.4173 4.16667C28.1811 4.16667 25.7261 5.6766 24.4814 9.49921C23.2214 13.3688 23.2963 19.5194 26.5298 28.0084C26.9394 29.0836 26.3998 30.2873 25.3246 30.6969C24.2493 31.1064 23.0457 30.5668 22.6361 29.4916C20.9969 25.1883 20.0627 21.302 19.7145 17.8616C19.2326 17.7069 18.9739 17.7556 18.8393 17.7921C18.5197 17.8787 18.2545 18.0689 17.5794 18.5598C17.5656 18.5698 17.5515 18.5801 17.537 18.5907C17.303 18.7612 16.9713 19.0029 16.5554 19.2206L22.5915 32.5H24.5833C25.7339 32.5 26.6667 33.4327 26.6667 34.5833C26.6667 35.7339 25.7339 36.6667 24.5833 36.6667H21.25C20.433 36.6667 19.6915 36.1892 19.3534 35.4454L12.0446 19.3661C10.3128 22.1862 8.61639 26.9165 7.47906 34.8778C7.33244 35.9041 6.45347 36.6665 5.41673 36.6665L2.08339 36.6666C0.9328 36.6666 3.29821e-05 35.7339 8.74648e-10 34.5833C-3.29804e-05 33.4328 0.93268 32.5 2.08327 32.5L3.62691 32.4999C5.35401 21.8657 8.24142 16.251 11.6926 13.395C14.6539 10.9443 17.8041 10.7721 19.8834 10.8038C20.0416 9.88631 20.2551 9.02106 20.5195 8.20913ZM25 15C25 12.6988 26.8655 10.8333 29.1667 10.8333C31.4679 10.8333 33.3333 12.6988 33.3333 15C33.3333 17.3012 31.4679 19.1667 29.1667 19.1667C26.8655 19.1667 25 17.3012 25 15Z" fill="#BA9BF7"/>
</svg>
