<svg width="24" height="24" viewBox="0 0 24 24" fill="none" xmlns="http://www.w3.org/2000/svg">
<path opacity="0.2" d="M21.5307 8.46937L8.4695 21.5306C8.32886 21.6712 8.13817 21.7501 7.93934 21.7501C7.74051 21.7501 7.54982 21.6712 7.40918 21.5306L2.4695 16.5938C2.32895 16.4531 2.25 16.2624 2.25 16.0636C2.25 15.8648 2.32895 15.6741 2.4695 15.5334L15.5307 2.46937C15.6714 2.32883 15.8621 2.24988 16.0609 2.24988C16.2597 2.24988 16.4504 2.32883 16.5911 2.46937L21.5307 7.40625C21.6008 7.47594 21.6563 7.55877 21.6942 7.64999C21.7321 7.74121 21.7517 7.83903 21.7517 7.93781C21.7517 8.0366 21.7321 8.13441 21.6942 8.22563C21.6563 8.31685 21.6008 8.39968 21.5307 8.46937Z" fill="#C5F680"/>
<path d="M22.0615 6.87846L17.1218 1.93971C16.9825 1.80038 16.8171 1.68986 16.6351 1.61446C16.4531 1.53905 16.258 1.50024 16.061 1.50024C15.864 1.50024 15.6689 1.53905 15.4869 1.61446C15.3049 1.68986 15.1395 1.80038 15.0002 1.93971L1.93897 15C1.79965 15.1393 1.68913 15.3047 1.61373 15.4867C1.53832 15.6687 1.49951 15.8638 1.49951 16.0608C1.49951 16.2578 1.53832 16.4529 1.61373 16.6349C1.68913 16.8169 1.79965 16.9823 1.93897 17.1216L6.87866 22.0603C7.01795 22.1997 7.18333 22.3102 7.36534 22.3856C7.54735 22.461 7.74243 22.4998 7.93944 22.4998C8.13645 22.4998 8.33154 22.461 8.51355 22.3856C8.69556 22.3102 8.86093 22.1997 9.00022 22.0603L22.0615 9.00002C22.2008 8.86072 22.3113 8.69535 22.3867 8.51334C22.4621 8.33133 22.5009 8.13625 22.5009 7.93924C22.5009 7.74222 22.4621 7.54714 22.3867 7.36513C22.3113 7.18312 22.2008 7.01775 22.0615 6.87846ZM7.93897 21L3.00022 16.0603L6.00022 13.0603L8.4696 15.5306C8.53928 15.6003 8.62201 15.6556 8.71305 15.6933C8.8041 15.731 8.90168 15.7504 9.00022 15.7504C9.09877 15.7504 9.19635 15.731 9.2874 15.6933C9.37844 15.6556 9.46117 15.6003 9.53085 15.5306C9.60053 15.461 9.65581 15.3782 9.69352 15.2872C9.73123 15.1961 9.75064 15.0986 9.75064 15C9.75064 14.9015 9.73123 14.8039 9.69352 14.7128C9.65581 14.6218 9.60053 14.5391 9.53085 14.4694L7.06054 12L9.00022 10.0603L11.4696 12.5306C11.6103 12.6714 11.8012 12.7504 12.0002 12.7504C12.1992 12.7504 12.3901 12.6714 12.5308 12.5306C12.6716 12.3899 12.7506 12.199 12.7506 12C12.7506 11.801 12.6716 11.6101 12.5308 11.4694L10.0605 9.00002L12.0002 7.06033L14.4696 9.53064C14.5393 9.60033 14.622 9.6556 14.7131 9.69331C14.8041 9.73102 14.9017 9.75043 15.0002 9.75043C15.0988 9.75043 15.1964 9.73102 15.2874 9.69331C15.3784 9.6556 15.4612 9.60033 15.5308 9.53064C15.6005 9.46096 15.6558 9.37823 15.6935 9.28719C15.7312 9.19615 15.7506 9.09856 15.7506 9.00002C15.7506 8.90147 15.7312 8.80389 15.6935 8.71284C15.6558 8.6218 15.6005 8.53907 15.5308 8.46939L13.0605 6.00002L16.0605 3.00002L21.0002 7.9397L7.93897 21Z" fill="#C5F680"/>
</svg>
