<svg width="36" height="38" viewBox="0 0 36 38" fill="none" xmlns="http://www.w3.org/2000/svg">
<path fill-rule="evenodd" clip-rule="evenodd" d="M13.75 4.16667C13.75 1.86551 15.6155 4.78833e-05 17.9167 9.21743e-10C20.2179 -4.78815e-05 22.0834 1.86544 22.0833 4.16667C22.0833 6.46782 20.2178 8.33329 17.9167 8.33333C15.6154 8.33338 13.75 6.46788 13.75 4.16667ZM8.68497 12.7839C11.2785 10.9315 14.6354 10.0003 17.9165 10C21.1979 9.99974 24.5549 10.9311 27.1484 12.7837C29.267 14.297 30.899 16.4551 31.4578 19.1667H31.6667V18.3333C31.6667 17.1827 32.5994 16.25 33.75 16.25C34.9006 16.25 35.8333 17.1827 35.8333 18.3333V24.1667C35.8333 25.3173 34.9006 26.25 33.75 26.25C32.5994 26.25 31.6667 25.3173 31.6667 24.1667V23.3333H22.3155C22.6673 26.5107 23.1626 29.9044 23.8025 33.333H25.4167C26.5673 33.333 27.5 34.2657 27.5 35.4163C27.5 36.5669 26.5673 37.4996 25.4167 37.4996H22.0833C21.0902 37.4996 20.2352 36.7987 20.0405 35.8249C19.1877 31.5608 18.5482 27.2893 18.1242 23.3333H17.7091C17.2851 27.2893 16.6457 31.5608 15.7929 35.8249C15.5981 36.7987 14.7431 37.4996 13.75 37.4996H10.4167C9.26607 37.4996 8.33333 36.5669 8.33333 35.4163C8.33333 34.2657 9.26607 33.333 10.4167 33.333H12.0308C12.6708 29.9044 13.166 26.5107 13.5178 23.3333H4.16667V24.1667C4.16667 25.3173 3.23393 26.25 2.08333 26.25C0.93274 26.25 0 25.3173 0 24.1667V18.3333C0 17.1827 0.93274 16.25 2.08333 16.25C3.23393 16.25 4.16667 17.1827 4.16667 18.3333V19.1667H4.37551C4.93432 16.4551 6.5663 14.2971 8.68497 12.7839ZM8.70104 19.1667H13.9075C14.0266 17.5886 14.1045 16.0964 14.1415 14.7178C13.0122 15.06 11.9766 15.5532 11.1067 16.1745C9.9777 16.9809 9.14581 17.9812 8.70104 19.1667ZM21.6918 14.7175C21.7288 16.0961 21.8068 17.5885 21.9258 19.1667H27.1323C26.6875 17.9811 25.8555 16.9807 24.7266 16.1742C23.8567 15.5528 22.821 15.0596 21.6918 14.7175Z" fill="#BA9BF7"/>
</svg>
