<svg width="36" height="27" viewBox="0 0 36 27" fill="none" xmlns="http://www.w3.org/2000/svg">
<path fill-rule="evenodd" clip-rule="evenodd" d="M23.9992 12.8033C26.9281 9.87437 26.9281 5.12563 23.9992 2.1967C21.0702 -0.732232 16.3215 -0.732233 13.3926 2.1967L2.1967 13.3926C-0.732232 16.3215 -0.732234 21.0702 2.1967 23.9992C4.29442 26.0969 7.32563 26.6922 9.95318 25.7851C9.97213 25.7795 9.99142 25.7733 10.011 25.7663C11.0299 25.4049 11.9862 24.8165 12.8015 24.0012C12.8049 23.9979 12.8081 23.9946 12.8113 23.9912L20.4663 16.3361L20.4624 16.3404L21.651 15.1518C21.6529 15.1498 21.6548 15.1479 21.6565 15.1459L23.9992 12.8033ZM7.49919 15.7786C5.88836 15.7786 4.58252 17.0845 4.58252 18.6953C4.58252 20.3061 5.88836 21.612 7.49919 21.612C9.11002 21.612 10.4159 20.3061 10.4159 18.6953C10.4159 17.0845 9.11002 15.7786 7.49919 15.7786ZM2.08252 18.6953C2.08252 15.7038 4.50764 13.2786 7.49919 13.2786C10.4907 13.2786 12.9159 15.7037 12.9159 18.6953C12.9159 21.6868 10.4907 24.112 7.49919 24.112C4.50764 24.112 2.08252 21.6868 2.08252 18.6953ZM14.7678 26.2737C14.5122 26.2737 14.3886 25.9497 14.5693 25.769L25.7652 14.5731C25.7659 14.5724 25.767 14.5719 25.768 14.5719L34.0289 14.5719C35.5166 14.572 36.2589 16.3731 35.2032 17.4213L26.7751 25.7898C26.4629 26.0998 26.0408 26.2737 25.6008 26.2737L14.7678 26.2737Z" fill="#BA9BF7"/>
</svg>
