<svg width="24" height="24" viewBox="0 0 24 24" fill="none" xmlns="http://www.w3.org/2000/svg">
<path d="M21 5.75C21 5.94891 20.921 6.13968 20.7803 6.28033C20.6397 6.42098 20.4489 6.5 20.25 6.5H19.5V20C19.5 20.3978 19.342 20.7794 19.0607 21.0607C18.7794 21.342 18.3978 21.5 18 21.5H6C5.60218 21.5 5.22064 21.342 4.93934 21.0607C4.65804 20.7794 4.5 20.3978 4.5 20V6.5H3.75C3.55109 6.5 3.36032 6.42098 3.21967 6.28033C3.07902 6.13968 3 5.94891 3 5.75C3 5.55109 3.07902 5.36032 3.21967 5.21967C3.36032 5.07902 3.55109 5 3.75 5H20.25C20.4489 5 20.6397 5.07902 20.7803 5.21967C20.921 5.36032 21 5.55109 21 5.75ZM8.25 3.5H15.75C15.9489 3.5 16.1397 3.42098 16.2803 3.28033C16.421 3.13968 16.5 2.94891 16.5 2.75C16.5 2.55109 16.421 2.36032 16.2803 2.21967C16.1397 2.07902 15.9489 2 15.75 2H8.25C8.05109 2 7.86032 2.07902 7.71967 2.21967C7.57902 2.36032 7.5 2.55109 7.5 2.75C7.5 2.94891 7.57902 3.13968 7.71967 3.28033C7.86032 3.42098 8.05109 3.5 8.25 3.5Z" fill="black"/>
</svg>
