<svg width="35" height="36" viewBox="0 0 35 36" fill="none" xmlns="http://www.w3.org/2000/svg">
<path fill-rule="evenodd" clip-rule="evenodd" d="M19.5834 4.16667C19.5834 1.86551 21.4489 4.78833e-05 23.75 9.21743e-10C26.0513 -4.78815e-05 27.9168 1.86544 27.9167 4.16667C27.9167 6.46781 26.0512 8.33329 23.75 8.33333C21.4488 8.33338 19.5833 6.46789 19.5834 4.16667ZM17.4679 3.72689C17.9375 4.06544 18.2451 4.58416 18.3169 5.15865C18.4747 6.42203 18.9282 7.31821 19.5479 7.99913C20.1877 8.70204 21.0952 9.27276 22.2855 9.71369C23.7044 10.2393 25.3878 10.5328 27.201 10.6863L31.4435 6.44372C32.2571 5.63013 33.5762 5.63013 34.3898 6.44372C35.2034 7.25731 35.2034 8.57641 34.3898 9.39L32.5161 11.2637C33.0125 11.6445 33.3326 12.2437 33.3326 12.9176C33.3326 14.0682 32.3998 15.001 31.2492 15.001C30.8398 15.001 30.4226 14.998 30 14.9907L30.0001 23.6891C32.4276 24.5471 34.1667 26.8622 34.1667 29.5835C34.1666 33.0352 31.3684 35.8335 27.9166 35.8335C25.3818 35.8336 23.1994 34.3246 22.2188 32.1558C22.1084 32.1854 21.9945 32.2159 21.8774 32.2473C20.4117 32.6392 18.4315 33.1622 16.3774 33.6857C14.3263 34.2084 12.1876 34.7351 10.4093 35.1324C9.5215 35.3307 8.70699 35.5005 8.03003 35.6218C7.40351 35.7341 6.74571 35.8335 6.24996 35.8335C2.79815 35.8336 -7.05308e-05 33.0354 1.33335e-09 29.5836C7.05335e-05 26.1318 2.7983 23.3336 6.25004 23.3335C6.61785 23.3335 7.07483 23.3882 7.54205 23.4623C7.6162 20.8208 7.82099 18.0725 8.38632 15.614C8.38829 15.6054 8.39026 15.5968 8.39224 15.5883C7.72537 15.177 6.99851 14.5004 6.72927 13.4225C6.04872 10.698 7.48846 8.30067 9.2073 6.70384C10.9666 5.06942 13.4062 3.86098 15.8411 3.37405C16.4088 3.26051 16.9982 3.38835 17.4679 3.72689ZM12.3921 16.7939C11.8994 19.0682 11.7413 21.6802 11.6906 24.3283C13.1686 24.6745 14.799 25.0791 16.3775 25.4814C18.4316 26.0049 20.4118 26.528 21.8774 26.9199C21.9946 26.9513 22.1085 26.9818 22.2189 27.0114C22.9169 25.4676 24.2239 24.2581 25.8334 23.6892L25.8333 14.7372C24.0992 14.5373 22.3884 14.1952 20.8381 13.6209C19.2315 13.0257 17.7052 12.1492 16.5015 10.8419C15.4472 11.1658 14.5947 11.8212 13.9147 12.8288C14.6298 12.9539 15.4201 13.1004 16.1662 13.3013C16.9309 13.5072 17.7833 13.8038 18.5271 14.2871C19.2995 14.7889 20.0494 15.5581 20.3658 16.6942C20.6747 17.8034 20.478 18.9347 20.0391 19.993C19.6024 21.0458 18.8672 22.1744 17.862 23.4029C17.1334 24.2934 15.8209 24.4246 14.9304 23.696C14.0399 22.9674 13.9086 21.6548 14.6372 20.7643C15.507 19.7013 15.9696 18.929 16.1904 18.3966C16.3133 18.1002 16.3419 17.9269 16.3475 17.8462C16.3276 17.8298 16.2984 17.808 16.257 17.7811C16.0438 17.6426 15.6723 17.4834 15.0829 17.3247C14.5068 17.1696 13.8484 17.0465 13.1093 16.9179C13.0028 16.8994 12.8939 16.8806 12.7833 16.8616C12.6549 16.8394 12.5241 16.8169 12.3921 16.7939ZM16.3854 17.8829C16.3852 17.8829 16.3829 17.8805 16.3796 17.8756C16.384 17.8804 16.3857 17.8828 16.3854 17.8829ZM16.3479 17.7951C16.3474 17.7923 16.3473 17.7908 16.3473 17.7908L16.3479 17.7951ZM15.6013 29.5835C15.5172 29.562 15.4329 29.5405 15.3485 29.519C14.0722 29.1937 12.7738 28.87 11.5592 28.5792C11.2825 29.4051 10.5024 30.0002 9.58333 30.0002C8.43274 30.0002 7.5 29.0675 7.5 27.9169L7.5 27.7893C7.5 27.7543 7.5 27.7192 7.5 27.684C7.42986 27.6709 7.3616 27.6584 7.29527 27.6466C6.99785 27.5933 6.75283 27.5547 6.56059 27.53C6.46506 27.5178 6.38975 27.5099 6.3327 27.5052C6.27842 27.5007 6.25298 27.5003 6.25028 27.5002C6.25002 27.5002 6.24998 27.5002 6.25013 27.5002C5.0995 27.5002 4.16669 28.433 4.16667 29.5836C4.16664 30.7342 5.09932 31.6669 6.24988 31.6669C6.24812 31.6669 6.27299 31.6667 6.33248 31.6619C6.38954 31.6572 6.46486 31.6493 6.5604 31.637C6.75265 31.6123 6.99768 31.5738 7.29511 31.5205C7.8898 31.4139 8.64024 31.2582 9.5009 31.0659C11.2196 30.682 13.3121 30.167 15.3484 29.6481C15.4328 29.6266 15.5171 29.605 15.6013 29.5835ZM27.9168 27.5002C26.7662 27.5002 25.8334 28.433 25.8333 29.5836C25.8333 30.7342 26.766 31.6669 27.9165 31.6669C29.0672 31.6668 30 30.734 30 29.5834C30 28.4328 29.0674 27.5002 27.9168 27.5002Z" fill="#BA9BF7"/>
</svg>
