<svg width="36" height="37" viewBox="0 0 36 37" fill="none" xmlns="http://www.w3.org/2000/svg">
<path fill-rule="evenodd" clip-rule="evenodd" d="M15.6605 0.800921C17.4086 -0.266979 19.6519 -0.266969 21.4001 0.800921L23.439 2.04646C26.2975 3.79264 29.5548 4.1824 32.826 4.5739C33.8836 4.7005 34.9426 4.8272 35.9901 5C35.9901 5 36.0132 6.8335 35.9889 7.6659L35.7799 14.817C35.6006 20.9498 32.8719 26.7654 28.1911 30.991C25.9828 32.9844 23.699 34.7851 21.0748 36.2813C19.5189 37.1684 17.594 37.2387 15.9711 36.4676C12.9411 35.028 10.2577 33.2023 7.80816 30.991C3.12727 26.7654 0.39861 20.9498 0.219337 14.817L0.0109701 7.6887C-0.0137126 6.8445 0.0109701 5 0.0109701 5C0.861388 4.8996 1.72816 4.8173 2.6015 4.7344C6.45697 4.3682 10.4402 3.98986 13.708 1.99367L15.6605 0.800921ZM15.9895 16V9H19.9915V16H26.9951V20H19.9915V27H15.9895V20H8.98587V16H15.9895Z" fill="#BA9BF7"/>
</svg>
