<svg width="40" height="40" viewBox="0 0 40 40" fill="none" xmlns="http://www.w3.org/2000/svg">
<g clip-path="url(#clip0_96_2849)">
<path fill-rule="evenodd" clip-rule="evenodd" d="M32.3744 2.91028C31.0726 1.60853 28.9621 1.60853 27.6603 2.91028L27.0712 3.49961L36.4993 12.9277L37.0884 12.3384C38.3902 11.0366 38.3902 8.92607 37.0884 7.62432L32.3744 2.91028ZM18.8216 3.49942C20.1156 2.20546 22.2087 2.19772 23.5122 3.47619L36.5225 16.4865C37.801 17.79 37.7933 19.8831 36.4993 21.1771C35.1975 22.4788 33.087 22.4788 31.7852 21.1771L28.2497 17.6416L28.2496 17.6417L22.357 11.7491L22.3572 11.749L18.8216 8.21347C17.5199 6.91172 17.5199 4.80117 18.8216 3.49942ZM20.5893 13.5169L13.5182 20.5879L19.4108 26.4805L26.4818 19.4094L20.5893 13.5169ZM3.50097 18.8201C4.79496 17.5261 6.88813 17.5184 8.19165 18.7969L21.2018 31.8071C22.4803 33.1106 22.4726 35.2038 21.1786 36.4977C19.8769 37.7995 17.7663 37.7995 16.4646 36.4977L14.6972 34.7303L14.6971 34.7304L5.26899 25.3023L5.2691 25.3022L3.50097 23.5341C2.19923 22.2324 2.19923 20.1218 3.50097 18.8201ZM3.50122 27.0701L2.91263 27.6587C1.61088 28.9605 1.61088 31.071 2.91263 32.3728L7.62667 37.0868C8.92842 38.3885 11.039 38.3885 12.3407 37.0868L12.9293 36.4982L3.50122 27.0701Z" fill="white"/>
</g>
<defs>
<clipPath id="clip0_96_2849">
<rect width="40" height="40" fill="white"/>
</clipPath>
</defs>
</svg>
