<svg width="40" height="40" viewBox="0 0 40 40" fill="none" xmlns="http://www.w3.org/2000/svg">
<path d="M18.3335 10.8334C20.4046 10.8334 22.0835 9.15446 22.0835 7.08337C22.0835 5.01231 20.4046 3.33337 18.3335 3.33337C16.2624 3.33337 14.5835 5.01231 14.5835 7.08337C14.5835 9.15446 16.2624 10.8334 18.3335 10.8334Z" fill="white"/>
<path d="M29.1665 20.8334C27.7858 20.8334 26.6665 21.9526 26.6665 23.3334V23.6192C26.6665 24.0795 27.0396 24.4525 27.4998 24.4525C27.9601 24.4525 28.3332 24.0795 28.3332 23.6192V23.3334C28.3332 22.8731 28.7063 22.5 29.1665 22.5C29.6268 22.5 29.9998 22.8731 29.9998 23.3334V35.788C29.9998 36.2483 30.3729 36.6214 30.8332 36.6214C31.2934 36.6214 31.6665 36.2483 31.6665 35.788V23.3334C31.6665 21.9526 30.5473 20.8334 29.1665 20.8334Z" fill="white"/>
<path d="M24.7574 16.8159L23.3335 16.1938L24.663 16.7587C24.6951 16.7776 24.7266 16.7967 24.7574 16.8159Z" fill="white"/>
<path d="M25.7794 17.7009C25.5475 17.419 25.2217 17.1046 24.7573 16.8156L30.0007 19.1064C30.0014 19.135 30.0018 19.137 29.9999 19.0266L30.0001 19.028C30.0795 19.9453 29.3712 20.7509 28.4179 20.8273C27.4724 20.9031 26.6412 20.2332 26.5501 19.3272L26.5499 19.326C26.5487 19.3166 26.5451 19.2919 26.5378 19.254C26.5232 19.1778 26.4944 19.0516 26.4415 18.8923C26.335 18.5715 26.1377 18.1364 25.7794 17.7009Z" fill="white"/>
<path fill-rule="evenodd" clip-rule="evenodd" d="M30 19.0259L24.663 16.7586C24.3042 16.5464 23.8672 16.3503 23.3335 16.1938V35C23.3335 35.8882 22.637 36.6203 21.7498 36.6646C20.8628 36.7088 20.0968 36.0497 20.0084 35.1658L19.1751 26.8325C19.1696 26.7772 19.1668 26.7218 19.1668 26.6667H17.5002C17.5002 26.7218 17.4974 26.7772 17.4919 26.8325L16.6586 35.1658C16.5702 36.0497 15.8043 36.7088 14.9172 36.6646C14.0301 36.6203 13.3335 35.8882 13.3335 35V23.2658C11.9346 23.0801 10.7588 22.5177 9.88642 21.6617C8.82201 20.6173 8.32037 19.2426 8.33376 17.9007C8.34717 16.5599 8.87442 15.1992 9.93251 14.1678C11.0093 13.118 12.5415 12.5 14.3793 12.5H20.4801C24.6231 12.5 27.0993 13.935 28.4955 15.6322C29.1656 16.4467 29.5366 17.2616 29.7413 17.8782C29.8629 18.2444 29.958 18.6229 29.9981 19.0061L29.9993 19.0182L29.9998 19.0234L30 19.0259ZM12.3597 19.3278C12.5733 19.5375 12.8853 19.7407 13.3335 19.8678V15.975C12.9162 16.1016 12.6136 16.299 12.3978 16.5093C12.0133 16.8842 11.803 17.3984 11.7977 17.9327C11.7923 18.4657 11.9909 18.9661 12.3597 19.3278Z" fill="white"/>
</svg>
