<svg width="40" height="40" viewBox="0 0 40 40" fill="none" xmlns="http://www.w3.org/2000/svg">
<path fill-rule="evenodd" clip-rule="evenodd" d="M26.8932 20.2252C29.8221 17.2962 29.8221 12.5475 26.8932 9.61857C23.9643 6.68964 19.2155 6.68964 16.2866 9.61857L5.09074 20.8144C2.16181 23.7434 2.16181 28.4921 5.09074 31.421C7.18847 33.5188 10.2197 34.1141 12.8472 33.207C12.8662 33.2014 12.8855 33.1951 12.9051 33.1882C13.9239 32.8268 14.8803 32.2384 15.6956 31.4231C15.6989 31.4198 15.7021 31.4164 15.7053 31.4131L23.3604 23.758L23.3564 23.7622L24.545 22.5737C24.547 22.5717 24.5488 22.5697 24.5506 22.5678L26.8932 20.2252ZM10.3932 23.2005C8.7824 23.2005 7.47656 24.5063 7.47656 26.1172C7.47656 27.728 8.7824 29.0338 10.3932 29.0338C12.0041 29.0338 13.3099 27.728 13.3099 26.1172C13.3099 24.5063 12.0041 23.2005 10.3932 23.2005ZM4.97656 26.1172C4.97656 23.1256 7.40169 20.7005 10.3932 20.7005C13.3848 20.7005 15.8099 23.1256 15.8099 26.1172C15.8099 29.1087 13.3848 31.5338 10.3932 31.5338C7.40169 31.5338 4.97656 29.1087 4.97656 26.1172ZM17.6619 33.6956C17.4063 33.6956 17.2826 33.3716 17.4633 33.1909L28.6592 21.995C28.66 21.9942 28.661 21.9938 28.6621 21.9938L36.9229 21.9938C38.4106 21.9938 39.1529 23.795 38.0972 24.8432L29.6692 33.2116C29.357 33.5216 28.9348 33.6956 28.4949 33.6956L17.6619 33.6956Z" fill="white"/>
</svg>
