<svg width="40" height="40" viewBox="0 0 40 40" fill="none" xmlns="http://www.w3.org/2000/svg">
<path fill-rule="evenodd" clip-rule="evenodd" d="M23.6854 6.82285C24.2697 6.78838 24.869 6.82251 25.4749 6.93267C29.0079 7.57503 31.6084 10.6303 31.667 14.1941C31.6673 14.2091 31.6677 14.224 31.6683 14.2389C31.6671 14.265 31.6665 14.2913 31.6665 14.3178V15.8334H34.9998V14.3178C34.9998 14.2936 34.9993 14.2696 34.9983 14.2457C34.9999 14.2105 35.0005 14.175 34.9999 14.1393C34.9149 8.97268 31.1563 4.57766 26.0712 3.6531C23.9369 3.26506 21.847 3.53262 19.9998 4.29948C18.1526 3.53265 16.0627 3.26511 13.9285 3.65314C8.7847 4.58838 4.99984 9.07471 4.99984 14.3178V15.8334H8.33317V14.3178C8.33317 10.7006 10.9512 7.58245 14.5248 6.93271C15.1306 6.82256 15.73 6.78842 16.3142 6.82289C14.4826 8.73387 13.3332 11.328 13.3332 14.2358C13.3332 14.2358 13.3332 14.2358 13.3332 14.2359V18.3342C13.3332 22.0161 16.3179 25.0008 19.9998 25.0008C23.6817 25.0008 26.6665 22.0161 26.6665 18.3342V14.2359C26.6665 11.328 25.517 8.73384 23.6854 6.82285ZM19.9998 8.0594C18.0026 9.38401 16.6665 11.6343 16.6665 14.2358C16.6665 14.2358 16.6665 14.2358 16.6665 14.2359V18.3342C16.6665 20.1751 18.1589 21.6675 19.9998 21.6675C21.8408 21.6675 23.3332 20.1751 23.3332 18.3342V14.2359C23.3332 11.6343 21.997 9.384 19.9998 8.0594ZM4.40748 18.3334C3.20108 18.3334 2.45591 19.6495 3.0766 20.684C3.78305 21.8614 4.07923 23.2398 3.9188 24.6034L2.93756 32.9439C2.70443 34.9256 4.25276 36.6667 6.24807 36.6667H7.08444C9.07975 36.6667 10.6281 34.9256 10.3949 32.9439L9.41371 24.6034C9.25328 23.2398 9.54946 21.8614 10.2559 20.684C10.8766 19.6495 10.1314 18.3334 8.92503 18.3334H4.40748ZM31.0741 18.3334C29.8677 18.3334 29.1226 19.6495 29.7433 20.684C30.4497 21.8614 30.7459 23.2398 30.5855 24.6034L29.6042 32.9439C29.3711 34.9256 30.9194 36.6667 32.9147 36.6667H33.7511C35.7464 36.6667 37.2947 34.9256 37.0616 32.9439L36.0804 24.6034C35.9199 23.2398 36.2161 21.8614 36.9226 20.684C37.5433 19.6495 36.7981 18.3334 35.5917 18.3334H31.0741Z" fill="#F2F2F2"/>
</svg>
