<svg width="40" height="40" viewBox="0 0 40 40" fill="none" xmlns="http://www.w3.org/2000/svg">
<path fill-rule="evenodd" clip-rule="evenodd" d="M6.66682 10.4167C6.66686 8.11551 8.53233 6.25005 10.8335 6.25C13.1347 6.24995 15.0002 8.11544 15.0002 10.4167C15.0001 12.7178 13.1346 14.5833 10.8335 14.5833C8.53226 14.5834 6.66677 12.7179 6.66682 10.4167ZM3.33357 8.75C4.48416 8.75002 5.41688 9.68278 5.41686 10.8334C5.41682 12.6023 5.5158 14.5951 7.59873 15.6366C9.02953 16.352 10.0884 16.5419 10.8802 16.5071C11.657 16.473 12.3368 16.2161 13.0114 15.7665C14.1178 15.029 15.378 15.0473 16.3199 15.2134C17.2957 15.3854 18.282 15.7751 19.1642 16.2073C20.1026 16.667 21.0343 17.2304 21.8683 17.7907C22.4335 16.4421 23.2038 14.796 24.292 13.599C25.0021 12.8179 25.9597 12.0949 27.2135 11.8221C28.4905 11.5443 29.792 11.7945 31.0567 12.4444C33.4502 13.6745 36.0952 16.5327 39.2452 21.363C39.8737 22.3267 39.602 23.6175 38.6382 24.246C37.6744 24.8745 36.3837 24.6028 35.7551 23.639C34.0238 20.9841 32.5898 19.1763 31.4247 17.976L39.5109 32.7543C40.0632 33.7637 39.6927 35.0297 38.6833 35.582C37.6739 36.1343 36.4079 35.7637 35.8556 34.7544L29.9541 23.9687L3.76595 35.6568C2.71526 36.1257 1.48335 35.6541 1.01441 34.6035C0.545467 33.5528 1.01707 32.3208 2.06777 31.8519L18.6867 24.4346C17.9184 24.1973 17.1973 23.8519 16.546 23.4927C15.421 22.8721 14.1703 22.0082 12.9299 21.1513C12.6432 20.9533 12.357 20.7556 12.073 20.5614C11.7478 20.6175 11.4113 20.6545 11.063 20.6698C9.40173 20.7427 7.63779 20.3146 5.73531 19.3634C1.24256 17.117 1.2481 12.5821 1.25011 10.9299C1.25015 10.8965 1.25019 10.8643 1.25019 10.8333C1.25022 9.6827 2.18298 8.74998 3.33357 8.75ZM24.7405 21.7327L27.9475 20.3014L26.5138 17.6812C26.1256 18.4055 25.7574 19.28 25.3675 20.2387C25.3515 20.2779 25.3355 20.3173 25.3194 20.357C25.137 20.8059 24.9427 21.2838 24.7405 21.7327Z" fill="white"/>
</svg>
