<svg width="40" height="40" viewBox="0 0 40 40" fill="none" xmlns="http://www.w3.org/2000/svg">
<path fill-rule="evenodd" clip-rule="evenodd" d="M20.2342 1.33792C21.3362 1.0073 22.4977 1.63268 22.8283 2.73475C23.9641 6.52099 23.385 9.59455 22.0961 11.9893C25.0566 10.3931 27.3388 8.20588 27.9664 5.38145C28.216 4.25826 29.3289 3.55007 30.4521 3.79967C31.5753 4.04927 32.2835 5.16214 32.0339 6.28533C31.1659 10.1911 28.435 12.9471 25.4995 14.8202C28.0738 16.1043 30.2056 17.8563 31.7668 20.3542C33.9392 23.83 34.8181 28.458 34.6723 34.5834H35.8335C36.9841 34.5834 37.9168 35.5161 37.9168 36.6667C37.9168 37.8173 36.9841 38.7501 35.8335 38.7501H32.5002C31.9264 38.7501 31.378 38.5134 30.9844 38.096C30.5908 37.6785 30.3867 37.1172 30.4204 36.5444C30.8281 29.6132 29.9744 25.3479 28.2335 22.5626C27.3072 21.0804 26.0612 19.9107 24.4118 18.9617C25.4877 20.1704 26.3537 21.7388 26.8233 23.758C27.4746 26.5584 27.3339 30.0959 26.1351 34.5834H26.6661C27.8167 34.5834 28.7495 35.5161 28.7495 36.6667C28.7495 37.8173 27.8167 38.7501 26.6661 38.7501H23.3325C22.6628 38.7501 22.0339 38.4281 21.6423 37.8848C21.2508 37.3415 21.1443 36.6432 21.3561 36.0078C23.1668 30.5763 23.3025 27.013 22.7649 24.7018C22.2491 22.4837 21.0793 21.2625 19.7896 20.509C18.4231 19.7106 16.852 19.402 15.571 19.2344C15.4165 19.2142 15.236 19.1931 15.0484 19.1712C14.629 19.1222 14.1745 19.0691 13.8979 19.0126C13.7737 18.9872 13.5688 18.9406 13.3501 18.8527L13.3472 18.8515C13.2113 18.7969 12.624 18.5609 12.243 17.9195C12.0122 17.5311 11.8993 17.0612 11.9566 16.5739C12.0092 16.1254 12.1901 15.7919 12.329 15.5904C12.5804 15.2258 12.8903 15.0132 13.0102 14.9333C13.2067 14.8023 13.4257 14.6635 13.6614 14.5142C14.7962 13.7954 16.3155 12.833 17.544 11.3272C18.9104 9.65215 19.8609 7.34402 18.8373 3.93203C18.5067 2.82997 19.1321 1.66854 20.2342 1.33792ZM4.5835 9.58339C4.5835 7.28221 6.44897 5.41673 8.75016 5.41673C11.0513 5.41673 12.9168 7.28221 12.9168 9.58339C12.9168 11.8846 11.0513 13.7501 8.75016 13.7501C6.44897 13.7501 4.5835 11.8846 4.5835 9.58339Z" fill="white"/>
</svg>
