<svg width="29" height="29" viewBox="0 0 29 29" fill="none" xmlns="http://www.w3.org/2000/svg">
<path fill-rule="evenodd" clip-rule="evenodd" d="M24.3495 0.781153C23.3081 -0.260245 21.6197 -0.260245 20.5783 0.781153L20.1069 1.25261L27.6494 8.79509L28.1207 8.32363C29.1621 7.28223 29.1621 5.59379 28.1207 4.55239L24.3495 0.781153ZM13.5073 1.25247C14.5425 0.217301 16.217 0.211106 17.2598 1.23388L27.668 11.6421C28.6908 12.685 28.6846 14.3594 27.6494 15.3946C26.608 16.436 24.9196 16.436 23.8782 15.3946L21.0498 12.5662L21.0497 12.5663L16.3356 7.85222L16.3357 7.85213L13.5073 5.0237C12.4659 3.98231 12.4659 2.29387 13.5073 1.25247ZM14.9214 9.26643L9.26457 14.9233L13.9786 19.6373L19.6355 13.9805L14.9214 9.26643ZM1.25078 13.509C2.28597 12.4738 3.9605 12.4676 5.00332 13.4905L15.4114 23.8986C16.4343 24.9414 16.4281 26.6159 15.3929 27.6511C14.3515 28.6925 12.6631 28.6925 11.6217 27.6511L10.2078 26.2372L10.2077 26.2373L2.66519 18.6948L2.66528 18.6947L1.25078 17.2802C0.209381 16.2388 0.209382 14.5504 1.25078 13.509ZM1.25097 20.109L0.780102 20.5799C-0.261297 21.6213 -0.261296 23.3097 0.780102 24.3511L4.55134 28.1224C5.59274 29.1638 7.28118 29.1638 8.32257 28.1224L8.79345 27.6515L1.25097 20.109Z" fill="white"/>
</svg>
