 <svg width="68" height="431" viewBox="0 0 68 431" fill="none" xmlns="http://www.w3.org/2000/svg">
<path d="M34.7421 0.223858C31.4186 -0.391512 26.2266 0.352764 23.0947 1.3527C9.30565 5.68513 4.45822 21.9912 9.32766 34.5615C11.6983 40.6813 13.6184 44.1182 12.9903 50.9258C12.6277 56.1938 12.2215 62.2657 10.2725 67.2593C5.39878 78.9635 1.44787 89.328 0.404137 102.016C-0.702377 115.461 0.395844 124.992 4.53579 137.842C5.85625 141.941 6.80222 146.55 8.22044 150.775C7.49707 145.407 4.07471 112.398 5.3562 109.263C6.49843 111.9 6.92198 129.356 7.42527 133.445C8.5325 142.441 8.86731 151.617 10.6878 160.72C13.7541 176.052 19.6849 190.262 25.6486 204.643C28.0745 210.828 31.3547 217.077 33.3015 223.42C35.6133 230.952 34.518 238.78 38.2524 246.107C40.8555 251.482 44.0671 256.434 49.9464 258.49C58.6116 261.521 60.1759 257.82 57.7118 250.211C56.5519 246.629 55.0536 241.332 56.0042 237.661C56.1868 236.957 56.343 236.702 56.961 236.389C57.8835 237.233 59.572 244.851 61.1728 245.835C66.7313 244.488 49.2966 220.142 48.2197 216.902C46.2206 210.886 44.9687 204.229 43.6111 198.013C42.1121 190.914 40.5488 183.83 38.9217 176.76C37.6211 170.96 35.8056 164.867 36.3338 158.919C36.6654 155.187 37.0713 151.454 37.4288 147.723C38.0562 141.318 38.5353 134.898 38.8661 128.471C39.1356 124.426 39.2785 120.375 39.294 116.321C39.2994 114.774 38.996 109.495 39.2121 108.541L39.6342 108.425C41.9811 111.442 38.2983 148.769 37.786 154.328C37.7336 156.108 37.1795 158.818 37.27 160.536C37.8072 170.741 41.1657 181.031 43.1598 191.15C44.7804 199.374 46.7578 208.814 49.2418 216.761C50.1899 219.794 56.0916 227.835 58.0459 231.211C59.6748 225.202 61.3261 210.018 61.9899 203.716C64.1622 184.057 65.3538 164.303 65.5609 144.527C65.6226 130.685 65.8207 115.849 60.7434 102.721C57.8002 95.5735 53.1216 88.8357 48.0451 83.0252C42.7405 76.9539 36.5607 71.2986 38.8679 62.3212C40.3659 56.493 48.017 59.0013 51.8232 56.8383C57.2168 53.773 54.0993 45.9978 57.8016 41.8742C58.6296 40.9578 60.0529 40.2507 61.1291 39.6518C59.7726 36.4547 56.4711 32.3106 54.6513 28.9032C54.9511 23.1589 55.9101 20.431 54.1181 14.3867C51.277 4.80655 44.0347 1.34514 34.7421 0.223858Z" fill="white" fill-opacity="0.2"/>
<path d="M34.6513 0.71582C33.0583 0.420856 30.9837 0.448055 28.9013 0.679688C26.8243 0.910758 24.7767 1.34077 23.247 1.8291L23.2441 1.83008C9.81021 6.05129 4.99638 21.9962 9.79392 34.3809C12.1478 40.4573 14.1269 44.0172 13.4892 50.959V50.96C13.128 56.2086 12.7203 62.3631 10.7383 67.4414L10.7344 67.4512C5.86256 79.1507 1.93917 89.453 0.902321 102.057C-0.198783 115.436 0.892014 124.901 5.0117 137.688C5.67693 139.753 6.24749 141.945 6.82517 144.134C6.89938 144.415 6.97508 144.696 7.04978 144.977C6.59309 140.711 6.01814 134.914 5.53806 129.224C5.14494 124.564 4.81446 119.968 4.66209 116.338C4.58594 114.524 4.55402 112.945 4.58201 111.716C4.596 111.102 4.62457 110.568 4.67185 110.133C4.71779 109.71 4.78538 109.339 4.89353 109.074L5.34275 107.975L5.81541 109.064C5.98498 109.456 6.1241 110.071 6.24607 110.81C6.3704 111.562 6.48327 112.489 6.58787 113.529C6.7971 115.611 6.97401 118.176 7.12986 120.779C7.44292 126.009 7.67275 131.36 7.92185 133.384C9.03665 142.442 9.36113 151.538 11.1777 160.622C14.2327 175.898 20.1432 190.063 26.1103 204.452L26.1142 204.461C27.3225 207.541 28.7416 210.633 30.1133 213.772C31.4812 216.904 32.7971 220.073 33.7793 223.273C34.9516 227.093 35.2613 230.995 35.7392 234.777C36.2198 238.581 36.8725 242.297 38.6982 245.88L38.7021 245.89C41.2957 251.245 44.4325 256.032 50.1113 258.019C52.2519 258.767 53.9086 259.083 55.1474 259.046C56.3749 259.009 57.1437 258.63 57.6084 258.033C58.0867 257.419 58.3186 256.478 58.2568 255.165C58.1953 253.858 57.8457 252.247 57.2363 250.365C56.6544 248.568 55.981 246.322 55.5742 244.058C55.1692 241.803 55.0181 239.476 55.5205 237.536C55.6136 237.177 55.7164 236.857 55.915 236.584C56.1212 236.301 56.3953 236.115 56.7353 235.942L57.0439 235.786L57.2988 236.02C57.4942 236.198 57.656 236.494 57.7929 236.783C57.9399 237.094 58.0938 237.481 58.2519 237.909C58.5671 238.763 58.9207 239.842 59.2851 240.896C59.6535 241.962 60.0371 243.013 60.4238 243.854C60.6171 244.275 60.8058 244.632 60.9873 244.906C61.0932 245.066 61.1897 245.184 61.2715 245.269C61.3911 245.208 61.4796 245.132 61.5459 245.037C61.6543 244.882 61.735 244.648 61.7578 244.305C61.804 243.607 61.6023 242.61 61.1728 241.364C60.3196 238.889 58.6478 235.654 56.75 232.326C54.8559 229.005 52.7546 225.624 51.0537 222.862C50.2046 221.483 49.4534 220.256 48.8808 219.271C48.3186 218.305 47.8992 217.523 47.7451 217.06C45.7351 211.012 44.4759 204.314 43.123 198.12L43.122 198.116C41.6237 191.021 40.0609 183.939 38.4345 176.872L38.4336 176.869C37.1451 171.124 35.2989 164.923 35.8359 158.875C36.1675 155.143 36.5741 151.396 36.9306 147.676L36.9316 147.674C37.5582 141.276 38.0367 134.865 38.3672 128.445V128.438L38.4619 126.925C38.6695 123.393 38.7804 119.857 38.7939 116.319C38.7966 115.556 38.7224 113.872 38.6738 112.224C38.6497 111.406 38.6327 110.601 38.6347 109.939C38.6367 109.302 38.656 108.734 38.7246 108.431L38.791 108.139L39.0791 108.059L39.501 107.942L39.8232 107.854L40.0293 108.117C40.2462 108.396 40.3882 108.81 40.4931 109.264C40.602 109.735 40.6845 110.318 40.747 110.989C40.8722 112.333 40.9189 114.079 40.9072 116.091C40.8839 120.117 40.6271 125.251 40.2812 130.456C39.5902 140.854 38.5437 151.57 38.2861 154.363C38.2574 155.279 38.1015 156.424 37.9707 157.515C37.8361 158.637 37.7269 159.701 37.7695 160.51C38.0359 165.569 39.0021 170.661 40.1562 175.766C41.3066 180.854 42.6521 185.988 43.6504 191.054C45.271 199.278 47.2438 208.693 49.7187 216.611C49.9374 217.311 50.4582 218.34 51.1748 219.572C51.8852 220.794 52.7668 222.18 53.6845 223.584C55.1788 225.869 56.7784 228.216 57.8506 229.927C59.3706 223.357 60.8665 209.612 61.4931 203.663V203.661L61.8886 199.977C63.6806 182.78 64.7221 165.513 65.0107 148.226L65.0605 144.521C65.1223 130.66 65.3134 115.931 60.2812 102.912C57.3653 95.8306 52.7224 89.1387 47.6689 83.3545C45.0451 80.3514 42.1211 77.3638 40.1699 74.0146C38.199 70.6316 37.1908 66.8383 38.3838 62.1963C38.79 60.6161 39.6269 59.5724 40.7236 58.8857C41.8001 58.2118 43.0989 57.899 44.4082 57.71C45.0661 57.615 45.7399 57.5503 46.4004 57.4893C47.0648 57.4278 47.7139 57.3708 48.3418 57.292C49.605 57.1335 50.7143 56.8931 51.5761 56.4033C54.0386 55.0038 54.5919 52.5378 54.9502 49.6904C55.1255 48.2966 55.2569 46.7976 55.5771 45.4082C55.9001 44.007 56.4264 42.6574 57.4297 41.54L57.4306 41.5391L57.6103 41.3516C58.0445 40.921 58.5783 40.5468 59.1103 40.2188C59.5688 39.936 60.0499 39.6724 60.4834 39.4355C59.8091 37.9825 58.7653 36.3347 57.6465 34.6309C56.4323 32.7818 55.1335 30.868 54.2099 29.1387L54.1445 29.0156L54.1523 28.877C54.4563 23.0537 55.3983 20.4648 53.6386 14.5293C52.2494 9.84478 49.7966 6.68405 46.5732 4.5498C43.3368 2.40701 39.2895 1.27663 34.6826 0.720703L34.667 0.71875L34.6513 0.71582Z" stroke="white" stroke-opacity="0.5"/>
<path d="M13.65 176.398C13.4793 177.309 13.5042 179.633 13.4999 180.645C13.4411 195.114 4.50853 207.624 4.48869 222.137C4.48075 227.948 5.33832 232.687 8.08241 237.916C9.54032 240.694 11.1292 243.924 11.495 247.067C11.6657 249.196 11.6812 253.021 11.4236 255.155C10.3048 264.423 9.13732 273.656 9.56521 283.023C9.96784 291.845 12.397 299.282 11.9114 308.214C11.6108 316.477 8.78557 325.126 6.42788 332.872C0.765442 351.47 3.3598 367.176 8.71485 385.328C10.32 390.768 11.3049 399.115 11.9431 404.851C12.4969 409.824 10.5667 416.363 10.1872 421.375C9.43749 425.545 11.6267 430.15 16.617 429.858C30.967 429.012 45.2629 429.887 59.6299 430.042C62.3949 430.071 65.2263 430.179 67.2441 428.166C67.2189 427.809 67.1727 426.924 66.8152 426.664C63.2373 424.05 58.4974 424.864 54.5909 422.815C46.8222 418.739 38.0488 413.338 32.2045 406.651C25.3046 395.428 29.3266 372.779 30.6254 360.396C31.5634 351.455 32.0605 342.691 34.2151 334.319C36.1381 326.848 40.6236 319.974 42.4044 312.455C43.3717 308.376 43.3926 303.92 44.3729 299.856C45.8867 293.582 47.6664 287.489 49.195 281.234C50.9268 274.147 51.828 267.517 52.7527 260.337C44.3729 258.306 41.3625 254.353 37.5011 246.908C33.3684 239.318 34.7559 230.346 31.9519 222.505C29.5488 215.786 26.3386 209.031 23.5638 202.437C19.9903 193.862 16.6841 185.178 13.65 176.398Z" fill="white" fill-opacity="0.2"/>
<path d="M14.0088 178.936C14.0014 179.598 14.0018 180.226 14 180.646C13.9702 187.974 11.6927 194.795 9.45408 201.532C7.20716 208.294 4.99815 214.975 4.98826 222.138C4.9804 227.887 5.82724 232.543 8.52537 237.684C9.97921 240.454 11.6132 243.761 11.9912 247.01L11.9931 247.019V247.027C12.1656 249.179 12.1826 253.038 11.9199 255.215C10.8 264.493 9.63879 273.682 10.0644 283.001C10.2643 287.38 10.967 291.41 11.5664 295.505C12.1638 299.587 12.6554 303.717 12.4111 308.23V308.231C12.1077 316.575 9.25652 325.297 6.90623 333.018C1.28575 351.478 3.85014 367.072 9.19431 385.187C10.8144 390.678 11.8036 399.072 12.4404 404.796C12.7255 407.356 12.37 410.293 11.9092 413.177C11.4436 416.089 10.8732 418.935 10.6855 421.413L10.6836 421.438L10.6797 421.463C10.3238 423.442 10.671 425.502 11.667 427.015C12.6487 428.505 14.2755 429.495 16.5879 429.359C30.062 428.565 43.5092 429.284 56.9472 429.505L59.6357 429.542C62.3821 429.571 64.8989 429.643 66.7275 427.968C66.7149 427.816 66.6972 427.643 66.664 427.477C66.6382 427.347 66.6072 427.239 66.5722 427.159C66.535 427.075 66.51 427.061 66.5215 427.069L66.5205 427.068C64.8341 425.836 62.8599 425.399 60.7383 425.02C58.6486 424.646 56.3958 424.326 54.3584 423.258C46.5789 419.176 37.7361 413.74 31.8281 406.98L31.8008 406.949L31.7783 406.913C28.2437 401.163 27.5352 392.56 27.8408 383.94C28.147 375.305 29.4819 366.503 30.1279 360.344C31.0624 351.436 31.5638 342.613 33.7304 334.194C34.7041 330.411 36.3249 326.786 37.9053 323.203C39.492 319.605 41.0397 316.048 41.9179 312.34C42.3936 310.334 42.6374 308.229 42.8867 306.092C43.1347 303.965 43.3883 301.805 43.8867 299.739C44.6452 296.595 45.4698 293.497 46.2949 290.408C47.1204 287.318 47.9462 284.236 48.709 281.115C50.3982 274.202 51.295 267.723 52.2002 260.712C48.1798 259.683 45.3665 258.184 43.0879 256.016C40.7423 253.783 38.9946 250.87 37.0625 247.146L37.0615 247.146C34.9465 243.262 34.2531 239.038 33.7324 234.862C33.2083 230.659 32.8598 226.528 31.4814 222.674C29.084 215.97 25.8899 209.255 23.1025 202.631V202.629C19.8475 194.818 16.8171 186.917 14.0088 178.936Z" stroke="white" stroke-opacity="0.5"/>
</svg>
