<svg width="11" height="13" viewBox="0 0 11 13" fill="white" xmlns="http://www.w3.org/2000/svg">
<path d="M0 11.84C0 12.0946 0.102723 12.3388 0.285571 12.5188C0.468419 12.6989 0.716414 12.8 0.975 12.8H1.95V0H0.975C0.716414 0 0.468419 0.101143 0.285571 0.281177C0.102723 0.461212 0 0.705392 0 0.96V11.84ZM2.6 0V12.8H9.1C9.44478 12.8 9.77544 12.6651 10.0192 12.4251C10.263 12.1851 10.4 11.8595 10.4 11.52V1.28C10.4 0.940523 10.263 0.61495 10.0192 0.374903C9.77544 0.134857 9.44478 0 9.1 0L2.6 0ZM7.15 5.12H3.9V4.48H7.15V5.12ZM9.1 3.84H3.9V3.2H9.1V3.84Z" fill="#a6f16d"/>
</svg>




