<svg width="21" height="26" viewBox="0 0 21 26" fill="none" xmlns="http://www.w3.org/2000/svg">
<path d="M0 23.68C0 24.1892 0.205446 24.6776 0.571142 25.0376C0.936838 25.3977 1.43283 25.6 1.95 25.6H3.9V0H1.95C1.43283 0 0.936838 0.202285 0.571142 0.562355C0.205446 0.922425 0 1.41078 0 1.92V23.68ZM5.2 0V25.6H18.2C18.8896 25.6 19.5509 25.3303 20.0385 24.8502C20.5261 24.3701 20.8 23.719 20.8 23.04V2.56C20.8 1.88105 20.5261 1.2299 20.0385 0.749807C19.5509 0.269714 18.8896 0 18.2 0L5.2 0ZM14.3 10.24H7.8V8.96H14.3V10.24ZM18.2 7.68H7.8V6.4H18.2V7.68Z" fill="white"/>
</svg>
