<svg width="31" height="30" viewBox="0 0 31 30" fill="none" xmlns="http://www.w3.org/2000/svg">
<path d="M14.3094 29.2779C14.2161 29.3247 14.103 29.2863 14.0564 29.1926C13.0521 27.1631 10.8785 22.7345 9.30403 18.2152C7.17089 12.0897 6.90797 8.07899 8.50076 5.95342C9.56083 4.53919 11.3393 4.05139 13.7881 4.50462L13.8103 4.50923L23.6101 6.58564C23.6643 6.59716 23.6995 6.65093 23.688 6.70548L23.3624 8.25875C23.351 8.31329 23.2975 8.34863 23.2432 8.3371L13.4549 6.263C11.707 5.94113 10.5514 6.19233 9.92311 7.03042C9.31549 7.84162 9.12289 9.24126 9.35218 11.1909C9.55777 12.9393 10.1065 15.1033 10.9847 17.6245C12.5225 22.0392 14.661 26.3964 15.6507 28.396C15.6973 28.4897 15.6591 28.6034 15.5659 28.6495L14.3094 29.2779Z" fill="#AAEC4D"/>
<path d="M27.2092 25.357C25.9382 25.357 25.0257 23.8997 24.441 22.7797C23.5804 21.1312 22.6319 18.5447 21.62 15.0871C21.6047 15.0341 21.5611 14.9942 21.5076 14.9842L14.2514 13.6199C14.1727 13.6053 14.1207 13.5285 14.1352 13.4493L14.4096 11.9775C14.4241 11.8984 14.5006 11.8461 14.5793 11.8607L22.9124 13.4278C22.9667 13.4378 23.0102 13.4778 23.0255 13.5308L23.1524 13.9748C24.1223 17.3625 25.0234 19.9213 25.832 21.5806C26.4534 22.8565 26.8837 23.3182 27.0923 23.4818C27.1534 23.5295 27.2406 23.5203 27.2903 23.4611C27.5088 23.2007 27.9819 22.3872 28.4038 19.9858C28.666 18.4932 28.7875 17.056 28.8211 16.6073C28.8272 16.5275 28.896 16.4683 28.9755 16.4737L30.4621 16.5697C30.5431 16.5751 30.6035 16.6442 30.5981 16.7249C30.5614 17.2196 30.4231 18.875 30.1067 20.5758C29.8835 21.7757 29.6145 22.7521 29.3088 23.478C29.1276 23.9082 28.575 25.2187 27.3927 25.347C27.3308 25.3539 27.2696 25.357 27.2092 25.357Z" fill="#AAEC4D"/>
<path d="M3.4638 6.96735C1.75331 6.96735 0.261409 5.69063 0.0305927 3.94146C-0.0909299 3.01887 0.152115 2.10473 0.714635 1.36573C1.27792 0.627508 2.09265 0.152768 3.01057 0.0306265C3.92849 -0.0915152 4.838 0.152768 5.57325 0.718154C6.30849 1.28354 6.78006 2.10319 6.90159 3.02579C7.15304 4.92935 5.81629 6.68389 3.92161 6.93662C3.76799 6.95737 3.61436 6.96735 3.4638 6.96735ZM3.46991 1.78977C3.39501 1.78977 3.32011 1.79438 3.24521 1.80437C2.79886 1.86352 2.40219 2.09474 2.12858 2.45349C1.85496 2.813 1.73649 3.25778 1.79611 3.70563C1.9184 4.6313 2.76676 5.28502 3.68773 5.16211C4.60871 5.0392 5.25836 4.18652 5.13683 3.26085C5.07798 2.81223 4.8487 2.41431 4.49101 2.13853C4.1937 1.90961 3.8383 1.78901 3.46991 1.78901V1.78977Z" fill="#AAEC4D"/>
</svg>
