<svg width="244" height="46" viewBox="0 0 244 46" fill="none" xmlns="http://www.w3.org/2000/svg">
<g clip-path="url(#clip0_1524_13368)">
<path d="M28.336 7.44426H9.05271L14.6776 19.9752L25.8321 19.9434V27.2637L17.982 27.2956L26.3259 45.7805L17.2731 45.7487L0 7.4124L2.9059 0.247803L28.336 0.279661V7.44426Z" fill="#151515"/>
<path d="M32.0142 8.77878V0.247803H40.2029V8.77878H32.0142ZM40.2029 12.0036V45.7204H32.0142V12.0036H40.2029Z" fill="#151515"/>
<path d="M67.7385 0.247803V7.4124H59.8284V45.7204H51.6997V7.4124H43.8213V0.247803H67.7385Z" fill="#151515"/>
<path d="M97.4039 45.8443C94.5191 45.8443 91.7296 45.6496 89.0283 45.2566C86.3304 44.8637 83.7948 44.269 81.4285 43.4726C79.0586 42.6761 76.8969 41.6673 74.9396 40.4496C72.9824 39.2283 71.3002 37.777 69.886 36.092C68.4754 34.4071 67.3786 32.4779 66.5957 30.308C65.8128 28.1381 65.4214 25.7168 65.4214 23.0513C65.4214 20.3859 65.8128 18.1805 66.5957 16.0708C67.3786 13.9611 68.4754 12.0602 69.886 10.3646C71.2967 8.66904 72.9824 7.18585 74.9396 5.91506C76.8969 4.64426 79.0586 3.58231 81.4285 2.73629C83.7984 1.89028 86.3304 1.25311 89.0283 0.82833C91.7261 0.403551 94.5191 0.191162 97.4039 0.191162L97.3721 7.82302C93.5176 7.84426 90.1144 8.29382 87.1592 9.17169C84.2039 10.0496 81.7247 11.2 79.7287 12.6159C77.7291 14.0319 76.2092 15.646 75.1688 17.4549C74.1285 19.2637 73.5889 21.1186 73.5466 23.023V23.2708C73.5466 25.0903 74.0192 26.8885 74.9678 28.669C75.9165 30.446 77.3835 32.0496 79.369 33.4761C81.358 34.9027 83.8513 36.0602 86.8488 36.9487C89.8464 37.8372 93.3518 38.2938 97.3721 38.3151L97.4039 45.8513V45.8443Z" fill="#151515"/>
<path d="M128.582 0.247803V45.7204H120.083V26.5204H110.533V45.7204H102.034V0.247803H110.533V19.3558H120.083V0.247803H128.582Z" fill="#151515"/>
<path d="M152.687 -2.16067e-07C154.355 -2.16067e-07 156.023 0.226548 157.694 0.683186C159.362 1.13982 160.963 1.80885 162.501 2.70088C164.035 3.58938 165.463 4.69027 166.779 6.00354C168.098 7.31681 169.24 8.82124 170.21 10.5168C171.176 12.2124 171.942 14.1097 172.495 16.2088C173.053 18.308 173.328 20.577 173.328 23.0159C173.328 25.4549 173.049 27.7912 172.495 29.9009C171.938 32.0106 171.176 33.9115 170.21 35.6071C169.24 37.3027 168.098 38.8035 166.779 40.1062C165.46 41.4089 164.035 42.4956 162.501 43.3628C160.967 44.2301 159.362 44.8885 157.694 45.331C156.026 45.777 154.358 45.9965 152.687 45.9965C151.015 45.9965 149.343 45.7734 147.665 45.331C145.986 44.8885 144.378 44.2301 142.844 43.3628C141.31 42.4956 139.882 41.4089 138.563 40.1062C137.244 38.8035 136.101 37.3027 135.131 35.6071C134.161 33.9115 133.4 32.0106 132.846 29.9009C132.289 27.7912 132.01 25.4973 132.01 23.0159C132.01 20.5345 132.289 18.2796 132.846 16.1912C133.403 14.1027 134.165 12.2124 135.131 10.5133C136.101 8.8177 137.244 7.31327 138.563 6C139.882 4.68673 141.306 3.58584 142.844 2.69735C144.378 1.80885 145.986 1.13628 147.665 0.679646C149.343 0.226548 151.018 -0.00354004 152.687 -0.00354004V-2.16067e-07ZM152.687 39.6106C154.312 39.5894 155.86 39.2248 157.324 38.5097C158.788 37.7982 160.068 36.7434 161.171 35.3451C162.272 33.9504 163.15 32.223 163.795 30.1664C164.444 28.1097 164.769 25.7274 164.769 23.0159C164.769 20.3044 164.444 17.8938 163.795 15.8372C163.146 13.7805 162.272 12.0566 161.171 10.6726C160.068 9.2885 158.788 8.23717 157.324 7.52566C155.86 6.81062 154.316 6.44602 152.687 6.42478C151.061 6.44602 149.509 6.81062 148.035 7.52566C146.561 8.23717 145.27 9.2885 144.156 10.6726C143.045 12.0566 142.156 13.7805 141.5 15.8372C140.841 17.8938 140.513 20.2867 140.513 23.0159C140.513 25.7451 140.841 28.1097 141.5 30.1664C142.16 32.223 143.045 33.9504 144.156 35.3451C145.267 36.7398 146.561 37.7947 148.035 38.5097C149.506 39.2248 151.057 39.5894 152.687 39.6106Z" fill="#151515"/>
<path d="M176.233 8.77878V0.247803H184.422V8.77878H176.233ZM184.422 12.0036V45.7204H176.233V12.0036H184.422Z" fill="#151515"/>
<path d="M219.557 45.8443C216.673 45.8443 213.883 45.6496 211.182 45.2566C208.484 44.8637 205.948 44.269 203.578 43.4726C201.209 42.6761 199.047 41.6673 197.09 40.4496C195.132 39.2283 193.447 37.777 192.036 36.092C190.625 34.4071 189.529 32.4779 188.746 30.308C187.963 28.1381 187.571 25.7168 187.571 23.0513C187.571 20.3859 187.963 18.1805 188.746 16.0708C189.529 13.9611 190.625 12.0602 192.036 10.3646C193.447 8.66904 195.132 7.18585 197.09 5.91506C199.047 4.64426 201.209 3.58231 203.578 2.73629C205.948 1.89028 208.48 1.25311 211.182 0.82833C213.88 0.403551 216.673 0.191162 219.557 0.191162L219.526 7.82302C215.671 7.84426 212.268 8.29382 209.313 9.17169C206.357 10.0496 203.878 11.2 201.882 12.6159C199.883 14.0319 198.366 15.646 197.326 17.4549C196.285 19.2637 195.746 21.1186 195.704 23.023V23.2708C195.704 25.0903 196.176 26.8885 197.125 28.669C198.07 30.446 199.54 32.0496 201.526 33.4761C203.515 34.9027 206.008 36.0602 209.006 36.9487C212.003 37.8372 215.512 38.2938 219.529 38.3151L219.561 45.8513L219.557 45.8443Z" fill="#151515"/>
<path d="M231.484 7.69205V19.2H241.803V26.6761H231.484V38.1841H244V45.692H223.606V0.21594L244 0.184082V7.69205H231.484Z" fill="#151515"/>
</g>
<defs>
<clipPath id="clip0_1524_13368">
<rect width="244" height="46" fill="white"/>
</clipPath>
</defs>
</svg>
