<svg width="32" height="32" viewBox="0 0 32 32" fill="none" xmlns="http://www.w3.org/2000/svg">
<path fill-rule="evenodd" clip-rule="evenodd" d="M12.6671 5.66659C12.6671 3.82564 14.1595 2.33325 16.0005 2.33325C17.8414 2.33325 19.3338 3.82563 19.3338 5.66659C19.3338 7.50754 17.8414 8.99992 16.0005 8.99992C14.1595 8.99992 12.6671 7.50753 12.6671 5.66659ZM29.6173 10.2622C29.8407 11.1552 29.2978 12.0601 28.4048 12.2835C25.7582 12.9453 23.1203 13.4426 19.6291 13.7091C19.6815 16.5456 21.1188 19.5944 22.81 22.168C23.7203 23.5532 24.6539 24.7256 25.3607 25.5519C25.7132 25.964 26.007 26.2873 26.21 26.5049C26.3115 26.6136 26.3901 26.6958 26.4418 26.7493C26.4677 26.776 26.4869 26.7956 26.4988 26.8077L26.5112 26.8203L26.5123 26.8214C26.5125 26.8216 26.5126 26.8217 26.5128 26.8219C26.9891 27.2986 27.1315 28.0151 26.8736 28.6377C26.6156 29.2605 26.0079 29.6666 25.3338 29.6666H22.6671C21.7467 29.6666 21.0005 28.9204 21.0005 27.9999C21.0005 27.372 21.3477 26.8252 21.8606 26.541C21.285 25.8109 20.6511 24.9524 20.0243 23.9985C19.2002 22.7445 18.3508 21.2698 17.6711 19.666C17.2535 19.6653 16.8611 19.6635 16.4913 19.6618C15.0312 19.655 13.9248 19.6499 13.0212 19.7233C11.8305 19.8202 11.4181 20.0343 11.2211 20.2182C11.0243 20.4019 10.7402 20.8402 10.5578 22.1647C10.3779 23.4712 10.3338 25.3169 10.3338 27.9999C10.3338 28.442 10.1582 28.8659 9.8456 29.1785C9.53302 29.491 9.10906 29.6666 8.66702 29.6666L5.99982 29.6664C5.07934 29.6663 4.33321 28.9201 4.33327 27.9996C4.33334 27.0791 5.07958 26.333 6.00005 26.3331L7.00763 26.3331C7.02629 24.4622 7.08721 22.9333 7.25564 21.71C7.46913 20.1595 7.89341 18.7644 8.94668 17.7813C9.99973 16.7985 11.3791 16.5125 12.7511 16.401C12.9903 16.3815 13.2423 16.3668 13.5064 16.3557C13.4387 15.749 13.3885 15.1101 13.3518 14.564C13.3368 14.3405 13.3236 14.1263 13.3123 13.9283C10.6633 13.9319 7.5858 13.8483 3.91752 13.665C2.99819 13.619 2.29016 12.8365 2.3361 11.9172C2.38203 10.9979 3.16454 10.2898 4.08386 10.3358C17.3257 10.9974 22.4799 10.3292 27.5961 9.04971C28.4891 8.82639 29.394 9.36926 29.6173 10.2622Z" fill="white"/>
</svg>
