<svg width="236" height="236" viewBox="0 0 236 236" fill="none" xmlns="http://www.w3.org/2000/svg">
<g clip-path="url(#clip0_1169_8531)">
<path d="M118 36.875C162.804 36.875 199.125 73.1959 199.125 118C199.125 162.804 162.804 199.125 118 199.125C73.1959 199.125 36.875 162.804 36.875 118C36.875 73.1959 73.1959 36.875 118 36.875Z" fill="#BA9BF7" fill-opacity="0.2"/>
<path d="M119.794 204.698C143.086 204.833 165.492 195.781 182.153 179.504C185.067 176.658 185.122 171.988 182.275 169.075C179.429 166.161 174.76 166.107 171.847 168.954C157.962 182.518 139.29 190.062 119.88 189.949C100.47 189.836 81.8857 182.075 68.1602 168.35L54.6865 154.875H81.125C85.198 154.875 88.4999 151.573 88.5 147.5C88.5 143.427 85.1981 140.125 81.125 140.125H37.1406C35.1658 140.055 33.1678 140.771 31.6602 142.279C30.7012 143.238 30.0635 144.396 29.7432 145.62C29.7385 145.637 29.7341 145.655 29.7295 145.673C29.7076 145.76 29.6877 145.846 29.6689 145.933C29.6613 145.968 29.6526 146.003 29.6455 146.039C29.6288 146.122 29.6154 146.206 29.6016 146.29C29.5955 146.326 29.5885 146.362 29.583 146.399C29.5719 146.473 29.5635 146.548 29.5547 146.623C29.5489 146.672 29.542 146.721 29.5371 146.77C29.5135 147.011 29.5 147.253 29.5 147.495V191.75C29.5001 195.823 32.802 199.125 36.875 199.125C40.948 199.125 44.2499 195.823 44.25 191.75V165.299L57.7305 178.78L58.5068 179.546C74.8984 195.539 96.8655 204.564 119.794 204.698Z" fill="url(#paint0_linear_1169_8531)"/>
<path d="M206.5 44.25C206.5 40.1769 203.198 36.875 199.125 36.875C195.052 36.875 191.75 40.1769 191.75 44.25V70.6953L178.269 57.2148C161.798 40.7447 139.498 31.4314 116.206 31.2959C92.9137 31.1604 70.5075 40.2132 53.8464 56.4902C50.9329 59.3365 50.8782 64.0054 53.7243 66.9189C56.5706 69.8324 61.2395 69.8871 64.153 67.041C78.0373 53.4767 96.7097 45.9331 116.12 46.0459C135.53 46.1589 154.114 53.9195 167.84 67.6445L181.32 81.125H154.875C150.802 81.125 147.5 84.4269 147.5 88.5C147.5 92.5731 150.802 95.875 154.875 95.875H199.125C203.198 95.875 206.5 92.5731 206.5 88.5V44.25Z" fill="url(#paint1_linear_1169_8531)"/>
</g>
<defs>
<linearGradient id="paint0_linear_1169_8531" x1="106.937" y1="204.699" x2="106.937" y2="140.121" gradientUnits="userSpaceOnUse">
<stop stop-color="#BA9BF7"/>
<stop offset="1" stop-color="#6D5B91"/>
</linearGradient>
<linearGradient id="paint1_linear_1169_8531" x1="129.062" y1="95.875" x2="129.062" y2="31.2944" gradientUnits="userSpaceOnUse">
<stop stop-color="#BA9BF7"/>
<stop offset="1" stop-color="#6D5B91"/>
</linearGradient>
<clipPath id="clip0_1169_8531">
<rect width="236" height="236" fill="white" transform="matrix(1 0 0 -1 0 236)"/>
</clipPath>
</defs>
</svg>
