<svg width="68" height="431" viewBox="0 0 68 431" fill="none" xmlns="http://www.w3.org/2000/svg">
<path d="M32.5021 0.223858C35.8256 -0.391512 41.0175 0.352764 44.1495 1.3527C57.9385 5.68513 62.7859 21.9912 57.9165 34.5615C55.5458 40.6813 53.6257 44.1182 54.2538 50.9258C54.6164 56.1938 55.0226 62.2657 56.9716 67.2593C61.8453 78.9635 65.7962 89.328 66.84 102.016C67.9465 115.461 66.8483 124.992 62.7083 137.842C61.3879 141.941 60.4419 146.55 59.0237 150.775C59.747 145.407 63.1694 112.398 61.8879 109.263C60.7457 111.9 60.3221 129.356 59.8189 133.445C58.7116 142.441 58.3768 151.617 56.5563 160.72C53.49 176.052 47.5592 190.262 41.5955 204.643C39.1696 210.828 35.8894 217.077 33.9426 223.42C31.6308 230.952 32.7261 238.78 28.9917 246.107C26.3886 251.482 23.177 256.434 17.2977 258.49C8.63253 261.521 7.06818 257.82 9.5323 250.211C10.6922 246.629 12.1905 241.332 11.2399 237.661C11.0573 236.957 10.9011 236.702 10.2831 236.389C9.36057 237.233 7.67213 244.851 6.07135 245.835C0.512819 244.488 17.9475 220.142 19.0244 216.902C21.0235 210.886 22.2754 204.229 23.633 198.013C25.1321 190.914 26.6953 183.83 28.3224 176.76C29.623 170.96 31.4385 164.867 30.9103 158.919C30.5787 155.187 30.1729 151.454 29.8153 147.723C29.1879 141.318 28.7088 134.898 28.378 128.471C28.1085 124.426 27.9656 120.375 27.9501 116.321C27.9447 114.774 28.2481 109.495 28.032 108.541L27.6099 108.425C25.263 111.442 28.9459 148.769 29.4582 154.328C29.5105 156.108 30.0646 158.818 29.9741 160.536C29.4369 170.741 26.0784 181.031 24.0843 191.15C22.4637 199.374 20.4863 208.814 18.0023 216.761C17.0542 219.794 11.1526 227.835 9.19822 231.211C7.5693 225.202 5.91801 210.018 5.25418 203.716C3.08192 184.057 1.89028 164.303 1.68319 144.527C1.6215 130.685 1.42343 115.849 6.50068 102.721C9.44392 95.5735 14.1225 88.8357 19.199 83.0252C24.5036 76.9539 30.6834 71.2986 28.3762 62.3212C26.8782 56.493 19.2272 59.0013 15.4209 56.8383C10.0273 53.773 13.1448 45.9978 9.44247 41.8742C8.61448 40.9578 7.19121 40.2507 6.115 39.6518C7.47154 36.4547 10.773 32.3106 12.5928 28.9032C12.293 23.1589 11.334 20.431 13.126 14.3867C15.9672 4.80655 23.2095 1.34514 32.5021 0.223858Z" fill="white" fill-opacity="0.2"/>
<path d="M32.5928 0.71582C34.1858 0.420856 36.2604 0.448055 38.3428 0.679688C40.4198 0.910758 42.4675 1.34077 43.9971 1.8291L44 1.83008C57.4339 6.05129 62.2477 21.9962 57.4502 34.3809C55.0963 40.4573 53.1172 44.0172 53.7549 50.959V50.96C54.1161 56.2086 54.5238 62.3631 56.5059 67.4414L56.5098 67.4512C61.3816 79.1507 65.305 89.453 66.3418 102.057C67.4429 115.436 66.3521 124.901 62.2324 137.688C61.5672 139.753 60.9966 141.945 60.4189 144.134C60.3447 144.415 60.269 144.696 60.1943 144.977C60.651 140.711 61.226 134.914 61.7061 129.224C62.0992 124.564 62.4297 119.968 62.582 116.338C62.6582 114.524 62.6901 112.945 62.6621 111.716C62.6481 111.102 62.6195 110.568 62.5723 110.133C62.5263 109.71 62.4587 109.339 62.3506 109.074L61.9014 107.975L61.4287 109.064C61.2591 109.456 61.12 110.071 60.998 110.81C60.8737 111.562 60.7608 112.489 60.6562 113.529C60.447 115.611 60.2701 118.176 60.1143 120.779C59.8012 126.009 59.5714 131.36 59.3223 133.384C58.2075 142.442 57.883 151.538 56.0664 160.622C53.0114 175.898 47.101 190.063 41.1338 204.452L41.1299 204.461C39.9216 207.541 38.5025 210.633 37.1309 213.772C35.7629 216.904 34.447 220.073 33.4648 223.273C32.2926 227.093 31.9828 230.995 31.5049 234.777C31.0243 238.581 30.3716 242.297 28.5459 245.88L28.542 245.89C25.9484 251.245 22.8117 256.032 17.1328 258.019C14.9923 258.767 13.3355 259.083 12.0967 259.046C10.8692 259.009 10.1005 258.63 9.63574 258.033C9.15743 257.419 8.92556 256.478 8.9873 255.165C9.04882 253.858 9.39842 252.247 10.0078 250.365C10.5897 248.568 11.2631 246.322 11.6699 244.058C12.075 241.803 12.226 239.476 11.7236 237.536C11.6305 237.177 11.5277 236.857 11.3291 236.584C11.123 236.301 10.8488 236.115 10.5088 235.942L10.2002 235.786L9.94531 236.02C9.74994 236.198 9.5881 236.494 9.45117 236.783C9.30426 237.094 9.15034 237.481 8.99219 237.909C8.67699 238.763 8.3234 239.842 7.95898 240.896C7.59062 241.962 7.20702 243.013 6.82031 243.854C6.62699 244.275 6.43832 244.632 6.25684 244.906C6.15095 245.066 6.05444 245.184 5.97266 245.269C5.85306 245.208 5.76454 245.132 5.69824 245.037C5.58986 244.882 5.50908 244.648 5.48633 244.305C5.44013 243.607 5.6418 242.61 6.07129 241.364C6.92455 238.889 8.59632 235.654 10.4941 232.326C12.3882 229.005 14.4895 225.624 16.1904 222.862C17.0395 221.483 17.7907 220.256 18.3633 219.271C18.9255 218.305 19.3449 217.523 19.499 217.06C21.509 211.012 22.7682 204.314 24.1211 198.12L24.1221 198.116C25.6205 191.021 27.1832 183.939 28.8096 176.872L28.8105 176.869C30.099 171.124 31.9452 164.923 31.4082 158.875C31.0766 155.143 30.67 151.396 30.3135 147.676L30.3125 147.674C29.6859 141.276 29.2074 134.865 28.877 128.445V128.438L28.7822 126.925C28.5746 123.393 28.4637 119.857 28.4502 116.319C28.4476 115.556 28.5217 113.872 28.5703 112.224C28.5944 111.406 28.6114 110.601 28.6094 109.939C28.6074 109.302 28.5881 108.734 28.5195 108.431L28.4531 108.139L28.165 108.059L27.7432 107.942L27.4209 107.854L27.2148 108.117C26.9979 108.396 26.8559 108.81 26.751 109.264C26.6421 109.735 26.5596 110.318 26.4971 110.989C26.372 112.333 26.3253 114.079 26.3369 116.091C26.3602 120.117 26.617 125.251 26.9629 130.456C27.6539 140.854 28.7004 151.57 28.958 154.363C28.9867 155.279 29.1426 156.424 29.2734 157.515C29.4081 158.637 29.5172 159.701 29.4746 160.51C29.2083 165.569 28.2421 170.661 27.0879 175.766C25.9375 180.854 24.592 185.988 23.5937 191.054C21.9731 199.278 20.0003 208.693 17.5254 216.611C17.3067 217.311 16.7859 218.34 16.0693 219.572C15.3589 220.794 14.4773 222.18 13.5596 223.584C12.0654 225.869 10.4657 228.216 9.39355 229.927C7.87347 223.357 6.37764 209.612 5.75098 203.663V203.661L5.35547 199.977C3.56351 182.78 2.52202 165.513 2.2334 148.226L2.18359 144.521C2.1218 130.66 1.9307 115.931 6.96289 102.912C9.87882 95.8306 14.5217 89.1387 19.5752 83.3545C22.199 80.3514 25.123 77.3638 27.0742 74.0146C29.0451 70.6316 30.0533 66.8383 28.8604 62.1963C28.4541 60.6161 27.6172 59.5724 26.5205 58.8857C25.444 58.2118 24.1452 57.899 22.8359 57.71C22.178 57.615 21.5042 57.5503 20.8437 57.4893C20.1793 57.4278 19.5302 57.3708 18.9023 57.292C17.6392 57.1335 16.5298 56.8931 15.668 56.4033C13.2055 55.0038 12.6522 52.5378 12.2939 49.6904C12.1186 48.2966 11.9872 46.7976 11.667 45.4082C11.344 44.007 10.8177 42.6574 9.81445 41.54L9.81348 41.5391L9.63379 41.3516C9.19967 40.921 8.66583 40.5468 8.13379 40.2188C7.67531 39.936 7.19425 39.6724 6.76074 39.4355C7.43504 37.9825 8.47882 36.3347 9.59766 34.6309C10.8118 32.7818 12.1106 30.868 13.0342 29.1387L13.0996 29.0156L13.0918 28.877C12.7878 23.0537 11.8458 20.4648 13.6055 14.5293C14.9947 9.84478 17.4475 6.68405 20.6709 4.5498C23.9073 2.40701 27.9546 1.27663 32.5615 0.720703L32.5771 0.71875L32.5928 0.71582Z" stroke="white" stroke-opacity="0.5"/>
<path d="M53.5942 176.398C53.7648 177.309 53.7399 179.633 53.7442 180.645C53.8031 195.114 62.7356 207.624 62.7554 222.137C62.7634 227.948 61.9058 232.687 59.1617 237.916C57.7038 240.694 56.1149 243.924 55.7491 247.067C55.5785 249.196 55.5629 253.021 55.8205 255.155C56.9393 264.423 58.1068 273.656 57.6789 283.023C57.2763 291.845 54.8472 299.282 55.3328 308.214C55.6333 316.477 58.4585 325.126 60.8162 332.872C66.4787 351.47 63.8843 367.176 58.5293 385.328C56.9242 390.768 55.9392 399.115 55.301 404.851C54.7472 409.824 56.6774 416.363 57.0569 421.375C57.8066 425.545 55.6174 430.15 50.6271 429.858C36.2771 429.012 21.9812 429.887 7.61426 430.042C4.84924 430.071 2.01784 430.179 0 428.166C0.0252546 427.809 0.0714327 426.924 0.428965 426.664C4.00682 424.05 8.74674 424.864 12.6533 422.815C20.4219 418.739 29.1954 413.338 35.0396 406.651C41.9395 395.428 37.9176 372.779 36.6188 360.396C35.6807 351.455 35.1836 342.691 33.029 334.319C31.1061 326.848 26.6205 319.974 24.8397 312.455C23.8724 308.376 23.8515 303.92 22.8713 299.856C21.3574 293.582 19.5777 287.489 18.0491 281.234C16.3173 274.147 15.4161 267.517 14.4914 260.337C22.8713 258.306 25.8816 254.353 29.743 246.908C33.8758 239.318 32.4882 230.346 35.2922 222.505C37.6953 215.786 40.9055 209.031 43.6803 202.437C47.2538 193.862 50.56 185.178 53.5942 176.398Z" fill="white" fill-opacity="0.2"/>
<path d="M53.2354 178.936C53.2427 179.598 53.2423 180.226 53.2441 180.646C53.2739 187.974 55.5514 194.795 57.79 201.532C60.037 208.294 62.246 214.975 62.2559 222.138C62.2637 227.887 61.4169 232.543 58.7187 237.684C57.2649 240.454 55.631 243.761 55.2529 247.01L55.251 247.019V247.027C55.0786 249.179 55.0615 253.038 55.3242 255.215C56.4442 264.493 57.6053 273.682 57.1797 283.001C56.9798 287.38 56.2771 291.41 55.6777 295.505C55.0803 299.587 54.5887 303.717 54.833 308.23V308.231C55.1364 316.575 57.9876 325.297 60.3379 333.018C65.9584 351.478 63.394 367.072 58.0498 385.187C56.4298 390.678 55.4406 399.072 54.8037 404.796C54.5187 407.356 54.8741 410.293 55.335 413.177C55.8005 416.089 56.3709 418.935 56.5586 421.413L56.5605 421.438L56.5645 421.463C56.9204 423.442 56.5731 425.502 55.5771 427.015C54.5954 428.505 52.9686 429.495 50.6562 429.359C37.1822 428.565 23.7349 429.284 10.2969 429.505L7.6084 429.542C4.86206 429.571 2.34525 429.643 0.516602 427.968C0.529181 427.816 0.546942 427.643 0.580078 427.477C0.605889 427.347 0.636899 427.239 0.671875 427.159C0.709101 427.075 0.734129 427.061 0.722656 427.069L0.723633 427.068C2.40998 425.836 4.38424 425.399 6.50586 425.02C8.59554 424.646 10.8483 424.326 12.8857 423.258C20.6652 419.176 29.508 413.74 35.416 406.98L35.4434 406.949L35.4658 406.913C39.0004 401.163 39.7089 392.56 39.4033 383.94C39.0971 375.305 37.7622 366.503 37.1162 360.344C36.1817 351.436 35.6803 342.613 33.5137 334.194C32.5401 330.411 30.9192 326.786 29.3389 323.203C27.7521 319.605 26.2044 316.048 25.3262 312.34C24.8505 310.334 24.6068 308.229 24.3574 306.092C24.1094 303.965 23.8558 301.805 23.3574 299.739C22.5989 296.595 21.7743 293.497 20.9492 290.408C20.1237 287.318 19.2979 284.236 18.5352 281.115C16.8459 274.202 15.9491 267.723 15.0439 260.712C19.0643 259.683 21.8776 258.184 24.1562 256.016C26.5019 253.783 28.2495 250.87 30.1816 247.146L30.1826 247.146C32.2977 243.262 32.991 239.038 33.5117 234.862C34.0358 230.659 34.3843 226.528 35.7627 222.674C38.1601 215.97 41.3542 209.255 44.1416 202.631V202.629C47.3966 194.818 50.427 186.917 53.2354 178.936Z" stroke="white" stroke-opacity="0.5"/>
</svg>
