<svg width="32" height="32" viewBox="0 0 32 32" fill="none" xmlns="http://www.w3.org/2000/svg">
<path fill-rule="evenodd" clip-rule="evenodd" d="M21.5138 16.1801C23.8569 13.837 23.8569 10.038 21.5138 7.69486C19.1706 5.35171 15.3716 5.35171 13.0285 7.69486L4.07181 16.6515C1.72867 18.9947 1.72867 22.7937 4.07181 25.1368C5.74999 26.815 8.17496 27.2913 10.277 26.5656C10.2922 26.5611 10.3076 26.5561 10.3233 26.5505C11.1384 26.2614 11.9034 25.7907 12.5557 25.1385C12.5583 25.1358 12.5609 25.1331 12.5635 25.1305L18.6875 19.0064L18.6844 19.0098L19.6352 18.0589C19.6368 18.0574 19.6383 18.0558 19.6397 18.0542L21.5138 16.1801ZM8.3138 18.5604C7.02514 18.5604 5.98047 19.6051 5.98047 20.8937C5.98047 22.1824 7.02514 23.2271 8.3138 23.2271C9.60247 23.2271 10.6471 22.1824 10.6471 20.8937C10.6471 19.6051 9.60247 18.5604 8.3138 18.5604ZM3.98047 20.8937C3.98047 18.5005 5.92057 16.5604 8.3138 16.5604C10.707 16.5604 12.6471 18.5005 12.6471 20.8937C12.6471 23.287 10.707 25.2271 8.3138 25.2271C5.92057 25.2271 3.98047 23.287 3.98047 20.8937ZM14.1287 26.9565C13.9242 26.9565 13.8253 26.6973 13.9699 26.5527L22.9266 17.596C22.9272 17.5954 22.928 17.5951 22.9289 17.5951L29.5375 17.5951C30.7277 17.5951 31.3216 19.036 30.477 19.8745L23.7346 26.5693C23.4848 26.8173 23.1471 26.9565 22.7951 26.9565L14.1287 26.9565Z" fill="white"/>
</svg>
