<svg width="98" height="107" viewBox="0 0 98 107" fill="none" xmlns="http://www.w3.org/2000/svg">
<path d="M97.625 8.875V97.625C97.625 99.9788 96.69 102.236 95.0256 103.901C93.3612 105.565 91.1038 106.5 88.75 106.5H66.5625C64.2087 106.5 61.9513 105.565 60.2869 103.901C58.6225 102.236 57.6875 99.9788 57.6875 97.625V8.875C57.6875 6.5212 58.6225 4.26381 60.2869 2.59943C61.9513 0.935042 64.2087 0 66.5625 0H88.75C91.1038 0 93.3612 0.935042 95.0256 2.59943C96.69 4.26381 97.625 6.5212 97.625 8.875ZM31.0625 0H8.875C6.5212 0 4.26381 0.935042 2.59943 2.59943C0.935042 4.26381 0 6.5212 0 8.875V97.625C0 99.9788 0.935042 102.236 2.59943 103.901C4.26381 105.565 6.5212 106.5 8.875 106.5H31.0625C33.4163 106.5 35.6737 105.565 37.3381 103.901C39.0025 102.236 39.9375 99.9788 39.9375 97.625V8.875C39.9375 6.5212 39.0025 4.26381 37.3381 2.59943C35.6737 0.935042 33.4163 0 31.0625 0Z" fill="#FBFBFB"/>
</svg>
