<svg width="46" height="44" viewBox="0 0 46 44" fill="none" xmlns="http://www.w3.org/2000/svg">
<g clip-path="url(#clip0_1821_18409)">
<path d="M21.4636 43.9169C21.3237 43.9872 21.154 43.9295 21.0841 43.789C19.5777 40.7446 16.3172 34.1017 13.9556 27.3229C10.7558 18.1346 10.3615 12.1186 12.7506 8.93019C14.3408 6.80884 17.0085 6.07715 20.6817 6.75699L20.715 6.76391L35.4146 9.87852C35.496 9.8958 35.5487 9.97646 35.5315 10.0583L35.0432 12.3882C35.026 12.47 34.9457 12.523 34.8643 12.5057L20.1819 9.39456C17.56 8.91176 15.8265 9.28855 14.8842 10.5457C13.9728 11.7625 13.6838 13.8619 14.0278 16.7864C14.3362 19.409 15.1593 22.655 16.4766 26.4368C18.7832 33.0589 21.991 39.5947 23.4756 42.5941C23.5455 42.7346 23.4882 42.9052 23.3483 42.9743L21.4636 43.9169Z" fill="#BA9BF7"/>
<path d="M40.8158 38.0356C38.9093 38.0356 37.5404 35.8497 36.6634 34.1697C35.3725 31.6969 33.9498 27.8171 32.4319 22.6307C32.409 22.5512 32.3436 22.4913 32.2634 22.4763L21.3791 20.4299C21.261 20.408 21.183 20.2927 21.2048 20.1741L21.6164 17.9663C21.6382 17.8476 21.7528 17.7693 21.8709 17.7911L34.3705 20.1418C34.4519 20.1568 34.5173 20.2167 34.5402 20.2962L34.7305 20.9622C36.1853 26.0438 37.537 29.882 38.7499 32.3709C39.682 34.2849 40.3274 34.9774 40.6404 35.2228C40.7321 35.2943 40.8628 35.2805 40.9373 35.1917C41.2652 34.8011 41.9749 33.5808 42.6077 29.9788C43.0009 27.7399 43.1832 25.584 43.2337 24.9111C43.2428 24.7912 43.346 24.7025 43.4652 24.7106L45.6951 24.8546C45.8166 24.8627 45.9072 24.9664 45.8991 25.0874C45.8441 25.8295 45.6366 28.3126 45.162 30.8638C44.8272 32.6636 44.4237 34.1282 43.9651 35.2171C43.6934 35.8624 42.8645 37.8281 41.091 38.0206C40.9981 38.0309 40.9064 38.0356 40.8158 38.0356Z" fill="#BA9BF7"/>
<path d="M5.19569 10.4511C2.62996 10.4511 0.392114 8.536 0.0458891 5.91226C-0.136395 4.52837 0.228173 3.15716 1.07195 2.04866C1.91688 0.941322 3.13898 0.229213 4.51586 0.0460008C5.89273 -0.137212 7.25699 0.229213 8.35987 1.07729C9.46274 1.92537 10.1701 3.15485 10.3524 4.53874C10.7296 7.39409 8.72444 10.0259 5.88241 10.405C5.65198 10.4361 5.42154 10.4511 5.19569 10.4511ZM5.20487 2.68472C5.09252 2.68472 4.98016 2.69164 4.86781 2.70661C4.19829 2.79534 3.60329 3.14218 3.19287 3.68029C2.78244 4.21956 2.60474 4.88673 2.69416 5.55851C2.87759 6.94701 4.15014 7.9276 5.5316 7.74323C6.91306 7.55887 7.88753 6.27984 7.70525 4.89134C7.61697 4.21841 7.27304 3.62153 6.73651 3.20786C6.29054 2.86448 5.75745 2.68357 5.20487 2.68357V2.68472Z" fill="#BA9BF7"/>
</g>
<defs>
<clipPath id="clip0_1821_18409">
<rect width="45.9" height="43.9468" fill="white"/>
</clipPath>
</defs>
</svg>
