<svg width="236" height="236" viewBox="0 0 236 236" fill="none" xmlns="http://www.w3.org/2000/svg">
<g clip-path="url(#clip0_1129_22143)">
<path d="M191.75 191.75H44.25C40.3381 191.75 36.5863 190.196 33.8202 187.43C31.054 184.664 29.5 180.912 29.5 177V73.75C29.5 69.8381 31.054 66.0863 33.8202 63.3202C36.5863 60.554 40.3381 59 44.25 59H73.75L88.5 36.875H147.5L162.25 59H191.75C195.662 59 199.414 60.554 202.18 63.3202C204.946 66.0863 206.5 69.8381 206.5 73.75V177C206.5 180.912 204.946 184.664 202.18 187.43C199.414 190.196 195.662 191.75 191.75 191.75Z" fill="#BA9BF7" fill-opacity="0.2" stroke="#BA9BF7" stroke-width="9" stroke-linecap="round" stroke-linejoin="round"/>
<path d="M147.5 32.375C149.005 32.375 150.41 33.127 151.244 34.3789L164.658 54.5H191.75C196.855 54.5 201.751 56.5286 205.361 60.1387C208.971 63.7487 211 68.6446 211 73.75V177C211 182.105 208.971 187.001 205.361 190.611C201.751 194.221 196.855 196.25 191.75 196.25H44.25C39.1446 196.25 34.2487 194.221 30.6387 190.611C27.0286 187.001 25 182.105 25 177V73.75C25 68.6446 27.0286 63.7487 30.6387 60.1387C34.2487 56.5286 39.1446 54.5 44.25 54.5H71.3418L84.7559 34.3789L84.9189 34.1504C85.7665 33.0361 87.0894 32.375 88.5 32.375H147.5ZM77.4941 61.4961C76.6595 62.748 75.2546 63.5 73.75 63.5H44.25C41.5315 63.5 38.9242 64.5797 37.002 66.502C35.0797 68.4242 34 71.0315 34 73.75V177C34 179.718 35.0797 182.326 37.002 184.248C38.9242 186.17 41.5315 187.25 44.25 187.25H191.75C194.468 187.25 197.076 186.17 198.998 184.248C200.92 182.326 202 179.718 202 177V73.75C202 71.0315 200.92 68.4242 198.998 66.502C197.076 64.5797 194.468 63.5 191.75 63.5H162.25C160.745 63.5 159.34 62.748 158.506 61.4961L145.092 41.375H90.9082L77.4941 61.4961ZM118 84C138.814 84 155.688 100.873 155.688 121.688C155.688 142.502 138.814 159.375 118 159.375C97.1858 159.375 80.3125 142.502 80.3125 121.688C80.3125 100.873 97.1858 84 118 84ZM118 93C102.156 93 89.3125 105.844 89.3125 121.688C89.3125 137.531 102.156 150.375 118 150.375C133.844 150.375 146.688 137.531 146.688 121.688C146.688 105.844 133.844 93 118 93Z" fill="url(#paint0_linear_1129_22143)"/>
</g>
<defs>
<linearGradient id="paint0_linear_1129_22143" x1="118" y1="32.375" x2="118" y2="196.25" gradientUnits="userSpaceOnUse">
<stop stop-color="#BA9BF7"/>
<stop offset="1" stop-color="#6D5B91"/>
</linearGradient>
<clipPath id="clip0_1129_22143">
<rect width="236" height="236" fill="white"/>
</clipPath>
</defs>
</svg>
