<svg width="186" height="164" viewBox="0 0 186 164" fill="none" xmlns="http://www.w3.org/2000/svg">
<path d="M122.5 0C124.005 0 125.41 0.752012 126.244 2.00391L139.658 22.125H166.75C171.855 22.125 176.751 24.1536 180.361 27.7637C183.971 31.3737 186 36.2696 186 41.375V144.625C186 149.73 183.971 154.626 180.361 158.236C176.751 161.846 171.855 163.875 166.75 163.875H19.25C14.1446 163.875 9.24875 161.846 5.63867 158.236C2.0286 154.626 0 149.73 0 144.625V41.375C0 36.2696 2.0286 31.3737 5.63867 27.7637C9.24875 24.1536 14.1446 22.125 19.25 22.125H46.3418L59.7559 2.00391L59.9189 1.77539C60.7665 0.661148 62.0894 0 63.5 0H122.5ZM52.4941 29.1211C51.6595 30.373 50.2546 31.125 48.75 31.125H19.25C16.5315 31.125 13.9242 32.2047 12.002 34.127C10.0797 36.0492 9 38.6565 9 41.375V144.625C9 147.343 10.0797 149.951 12.002 151.873C13.9242 153.795 16.5315 154.875 19.25 154.875H166.75C169.468 154.875 172.076 153.795 173.998 151.873C175.92 149.951 177 147.343 177 144.625V41.375C177 38.6565 175.92 36.0492 173.998 34.127C172.076 32.2047 169.468 31.125 166.75 31.125H137.25C135.745 31.125 134.34 30.373 133.506 29.1211L120.092 9H65.9082L52.4941 29.1211ZM93 51.625C113.814 51.625 130.688 68.4983 130.688 89.3125C130.688 110.127 113.814 127 93 127C72.1858 127 55.3125 110.127 55.3125 89.3125C55.3125 68.4983 72.1858 51.625 93 51.625ZM93 60.625C77.1563 60.625 64.3125 73.4688 64.3125 89.3125C64.3125 105.156 77.1563 118 93 118C108.844 118 121.688 105.156 121.688 89.3125C121.688 73.4688 108.844 60.625 93 60.625Z" fill="url(#paint0_linear_1129_22146)"/>
<defs>
<linearGradient id="paint0_linear_1129_22146" x1="93" y1="0" x2="93" y2="163.875" gradientUnits="userSpaceOnUse">
<stop stop-color="#BA9BF7"/>
<stop offset="1" stop-color="#6D5B91"/>
</linearGradient>
</defs>
</svg>
