<svg width="194" height="186" viewBox="0 0 194 186" fill="none" xmlns="http://www.w3.org/2000/svg">
<path d="M119.737 0.947876C121.094 -0.107305 122.934 -0.297472 124.478 0.457642C126.021 1.21287 127 2.78116 127 4.49963V181.5C127 183.218 126.021 184.786 124.478 185.542C122.934 186.297 121.094 186.107 119.737 185.051L54.5811 134.375H11.875C8.7256 134.375 5.70551 133.123 3.47852 130.896C1.25156 128.669 4.24444e-05 125.649 0 122.5V63.4996C0 60.3502 1.25157 57.3301 3.47852 55.1031C5.70551 52.8762 8.72555 51.6246 11.875 51.6246H54.5811L119.737 0.947876ZM58.8877 59.6764C58.0978 60.2907 57.1257 60.6246 56.125 60.6246H11.875C11.1125 60.6246 10.381 60.9273 9.8418 61.4664C9.30268 62.0056 9 62.7372 9 63.4996V122.5C9.00004 123.262 9.30267 123.994 9.8418 124.533C10.381 125.072 11.1125 125.375 11.875 125.375H56.125C57.1257 125.375 58.0978 125.709 58.8877 126.323L118 172.298V13.6998L58.8877 59.6764ZM188.875 51.6246C191.36 51.6246 193.375 53.6394 193.375 56.1246V129.875C193.375 132.36 191.36 134.375 188.875 134.375C186.39 134.375 184.375 132.36 184.375 129.875V56.1246C184.375 53.6394 186.39 51.6246 188.875 51.6246ZM159.375 66.3746C161.86 66.3746 163.875 68.3894 163.875 70.8746V115.125C163.875 117.61 161.86 119.625 159.375 119.625C156.89 119.625 154.875 117.61 154.875 115.125V70.8746C154.875 68.3894 156.89 66.3746 159.375 66.3746Z" fill="url(#paint0_linear_1129_22072)"/>
<defs>
<linearGradient id="paint0_linear_1129_22072" x1="96.6875" y1="-0.000366211" x2="96.6875" y2="185.999" gradientUnits="userSpaceOnUse">
<stop stop-color="#BA9BF7"/>
<stop offset="1" stop-color="#6D5B91"/>
</linearGradient>
</defs>
</svg>
