<svg width="236" height="236" viewBox="0 0 236 236" fill="none" xmlns="http://www.w3.org/2000/svg">
<g clip-path="url(#clip0_1129_22069)">
<path d="M81.125 154.875H36.875C34.919 154.875 33.0432 154.098 31.6601 152.715C30.277 151.332 29.5 149.456 29.5 147.5V88.5C29.5 86.544 30.277 84.6682 31.6601 83.2851C33.0432 81.902 34.919 81.125 36.875 81.125H81.125L147.5 29.5V206.5L81.125 154.875Z" fill="#BA9BF7" fill-opacity="0.2" stroke="url(#paint0_linear_1129_22069)" stroke-width="9" stroke-linecap="round" stroke-linejoin="round"/>
<path d="M144.737 25.9484C146.094 24.8932 147.934 24.703 149.478 25.4581C151.021 26.2134 152 27.7816 152 29.5001V206.5C152 208.219 151.021 209.787 149.478 210.542C147.934 211.297 146.094 211.107 144.737 210.052L79.5811 159.375H36.875C33.7256 159.375 30.7055 158.124 28.4785 155.897C26.2516 153.67 25 150.65 25 147.5V88.5001C25 85.3507 26.2516 82.3306 28.4785 80.1036C30.7055 77.8766 33.7256 76.6251 36.875 76.6251H79.5811L144.737 25.9484ZM83.8877 84.6769C83.0978 85.2912 82.1257 85.6251 81.125 85.6251H36.875C36.1125 85.6251 35.381 85.9277 34.8418 86.4669C34.3027 87.0061 34 87.7377 34 88.5001V147.5C34 148.263 34.3027 148.994 34.8418 149.533C35.381 150.072 36.1125 150.375 36.875 150.375H81.125C82.1257 150.375 83.0978 150.709 83.8877 151.323L143 197.299V38.7003L83.8877 84.6769ZM213.875 76.6251C216.36 76.6251 218.375 78.6398 218.375 81.1251V154.875C218.375 157.36 216.36 159.375 213.875 159.375C211.39 159.375 209.375 157.36 209.375 154.875V81.1251C209.375 78.6398 211.39 76.6251 213.875 76.6251ZM184.375 91.3751C186.86 91.3751 188.875 93.3898 188.875 95.8751V140.125C188.875 142.61 186.86 144.625 184.375 144.625C181.89 144.625 179.875 142.61 179.875 140.125V95.8751C179.875 93.3898 181.89 91.3751 184.375 91.3751Z" fill="url(#paint1_linear_1129_22069)"/>
</g>
<defs>
<linearGradient id="paint0_linear_1129_22069" x1="30" y1="47.5" x2="158" y2="207" gradientUnits="userSpaceOnUse">
<stop stop-color="#BA9BF7"/>
<stop offset="1" stop-color="#6D5B91"/>
</linearGradient>
<linearGradient id="paint1_linear_1129_22069" x1="121.688" y1="25.0001" x2="121.688" y2="210.999" gradientUnits="userSpaceOnUse">
<stop stop-color="#BA9BF7"/>
<stop offset="1" stop-color="#6D5B91"/>
</linearGradient>
<clipPath id="clip0_1129_22069">
<rect width="236" height="236" fill="white"/>
</clipPath>
</defs>
</svg>
