<svg width="143" height="432" viewBox="0 0 143 432" fill="none" xmlns="http://www.w3.org/2000/svg">
<path d="M68.9821 0.190753C77.3092 -1.06736 85.3135 4.02868 88.3995 11.6192C90.253 16.1786 89.734 20.0857 89.5448 24.8022C90.3164 25.3243 90.5488 25.5393 91.212 26.1966C92.7468 30.5431 91.2639 36.9121 86.7731 39.205C85.041 46.7447 84.5559 48.3138 84.712 56.4017C84.7588 56.4704 84.8071 56.5384 84.8533 56.6078C87.6819 60.8667 103.002 69.6502 107.944 72.077C114.225 75.1614 120.477 76.7866 125.511 81.9926C128.716 85.3072 130.697 89.4762 131.636 93.9565C132.822 99.608 132.121 105.612 132.167 111.348C132.203 115.864 132.712 120.435 133.231 124.922C134.109 132.521 135.09 140.294 136.569 147.802C137.778 153.939 139.753 159.979 140.05 166.26C140.235 170.173 140.079 174.12 140.058 178.035C140.016 185.815 139.934 193.579 139.743 201.358C139.62 206.387 139.308 211.505 139.584 216.529C139.976 223.668 143.219 231.779 142.988 238.62C142.834 243.21 135.088 252.515 131.741 255.659C129.849 254.504 129.331 253.926 128.167 252.053C129.094 250.001 131.125 246.804 132.311 244.572C132.19 242.376 132.294 234.494 130.498 233.544L129.914 233.854C127.765 237.153 130.467 243.079 126.605 244.883C126.231 244.804 126.059 244.871 125.841 244.53C124.763 242.842 125.66 228.863 126.17 226.113C126.636 223.605 127.671 221.232 128.163 218.74C129.043 214.283 122.805 190.916 121.591 184.947C119.701 175.653 118.925 166.124 117.741 156.721C116.744 148.802 115.358 140.927 114.233 133.031C113.926 130.879 112.823 118.076 112.06 117.138C111.831 116.857 111.816 116.917 111.493 116.869C110.215 118.694 110.34 122.345 109.935 124.563C108.05 134.875 106.596 145.343 105.655 155.779C105.204 160.776 105.9 165.999 105.729 170.93C105.112 182.98 109.113 194.304 110.113 206.087C111.688 224.667 112.944 243.596 113.239 262.242C113.365 270.256 112.792 279.895 111.585 287.746C110.088 297.491 107.158 306.924 107.084 316.923C106.495 328.901 107.48 339.615 107.747 351.52C107.511 355.871 108.583 362.365 107.756 366.53C105.214 378.968 101.574 391.532 99.2501 404.002C97.837 411.584 95.8588 413.899 100.896 420.437C102.841 422.959 105.054 425.586 106.824 428.227C107.221 428.82 108.084 431.511 106.528 431.79C102.509 431.511 86.0926 432.724 83.3883 431.264C82.9003 427.862 84.2662 420.837 84.6529 417.123C86.6768 397.683 81.8573 378.75 81.7189 359.453C81.657 350.843 85.4475 341.855 85.2403 333.217C85.0655 325.942 82.2837 318.667 81.728 311.379C79.8593 291.264 77.0087 271.405 73.7266 251.482C72.5261 244.195 73.2264 235.75 72.2717 228.342L72.2277 228.013C72.1571 227.39 71.9838 226.788 71.409 226.53L70.9491 226.917C70.1051 228.899 69.585 247.595 69.0095 252.112L60.749 313.684C59.9147 319.789 57.9199 325.914 57.454 332.007C57.0986 338.742 59.1038 345.437 60.2077 352.035C61.89 362.086 60.3118 371.712 59.1067 381.72C57.7214 393.224 57.366 404.932 57.97 416.508C58.1117 419.224 60.7962 429.708 59.1276 431.411C56.4622 432.245 39.5189 431.88 35.6854 431.869C35.6948 426.641 37.9533 425.994 40.8281 422.079C42.6665 419.574 44.4014 416.969 45.475 414.042C43.0236 400.531 39.9304 387.223 36.6361 373.898C36.0523 371.536 35.0255 367.869 34.9787 365.532C34.5224 342.86 38.6453 320.196 33.176 297.788C27.6707 275.207 29.6554 251.585 31.0241 228.637C31.8235 215.566 32.3929 202.348 35.4288 189.529C35.7409 187.626 36.2696 185.529 36.4732 183.628C38.1137 168.463 37.8012 153.409 35.1344 138.373C34.4543 134.538 34.1465 130.449 33.3876 126.629C33.0398 124.88 32.6567 117.869 31.1867 117.234C29.6291 118.687 23.2066 174.394 21.8043 182.272C19.8917 193.016 16.1148 205.57 14.5709 216.534C14.2289 218.961 16.0593 223.003 16.4089 225.572C16.9599 229.168 18.1554 241.76 16.8987 244.359C16.1087 244.942 16.4576 244.842 15.5335 244.914C12.8706 243.306 14.8095 235.713 12.4605 233.535L11.8388 233.634C10.8604 234.806 10.3861 242.435 10.709 244.163C11.7123 249.533 17.8267 250.807 11.1494 255.775C8.75966 253.303 0.382062 242.939 0.0865427 240.006C-0.60144 232.867 3.03308 224.845 3.20786 217.809C3.49834 206.136 2.78404 194.313 2.89216 182.617C2.94153 177.251 2.49862 171.82 2.72243 166.472C3.02479 159.239 5.50535 152.231 6.82185 145.152C8.31386 136.94 9.14996 128.515 10.2859 120.245C10.8142 116.226 11.0164 112.118 10.8337 108.065C10.452 99.613 10.0953 91.5587 15.3422 84.3181C20.9372 76.7151 28.4448 75.3865 36.3373 71.2239C40.3045 69.1317 54.5943 60.8176 57.3628 57.4312C59.772 54.4841 56.9955 43.2058 55.9796 39.2372C55.923 39.1986 55.8665 39.1603 55.8099 39.122C53.1394 37.4216 52.1444 35.7176 51.5699 32.5774C51.2938 31.067 50.8891 27.7339 51.6845 26.1458C51.7807 25.9533 53.2043 24.9181 53.2046 24.9231C52.9203 18.6741 52.9769 12.5034 56.9469 7.23013C60.0909 3.05367 63.8563 1.02921 68.9821 0.190753Z" fill="white" fill-opacity="0.2"/>
<path d="M53.4648 25.3496C53.4571 25.3551 53.4478 25.3632 53.4355 25.3721C53.3981 25.3991 53.3429 25.4384 53.2764 25.4873C53.1434 25.5852 52.9658 25.7188 52.7852 25.8574C52.6035 25.9968 52.4233 26.1383 52.2852 26.2549C52.2157 26.3135 52.1621 26.3614 52.126 26.3965C52.1214 26.4009 52.1168 26.4047 52.1133 26.4082C51.7909 27.0851 51.6902 28.1847 51.7256 29.376C51.7609 30.5643 51.9266 31.7489 52.0615 32.4873C52.3429 34.0254 52.7199 35.1669 53.3262 36.1221C53.93 37.0734 54.7846 37.8765 56.0781 38.7002L56.0898 38.708L56.2617 38.8242L56.417 38.9307L56.4639 39.1133C56.9722 41.0992 57.9271 44.9339 58.4512 48.6475C58.713 50.5029 58.8701 52.3469 58.8057 53.9238C58.7424 55.473 58.4626 56.8764 57.75 57.748C57.0111 58.6518 55.5479 59.8406 53.7598 61.127C51.9567 62.424 49.7763 63.8518 47.5645 65.2363C43.1418 68.0048 38.5668 70.6131 36.5703 71.666C34.5793 72.7161 32.6154 73.5862 30.7139 74.415C28.8074 75.2461 26.9696 76.0334 25.2041 76.9268C21.6847 78.7076 18.4813 80.8962 15.7451 84.6143C10.6177 91.692 10.9502 99.5655 11.333 108.043C11.5171 112.127 11.3131 116.265 10.7812 120.311V120.313C9.64891 128.557 8.80786 137.016 7.31348 145.241V145.243C6.65266 148.796 5.6959 152.35 4.87891 155.867C4.05834 159.4 3.37088 162.924 3.22168 166.493C3.11058 169.148 3.16466 171.827 3.24121 174.523C3.31762 177.214 3.41737 179.926 3.39258 182.621C3.33861 188.46 3.48934 194.331 3.61816 200.211C3.74691 206.088 3.85356 211.972 3.70801 217.821C3.61907 221.401 2.65005 225.228 1.81152 228.979C0.96632 232.759 0.24912 236.476 0.583984 239.956C0.612405 240.238 0.747207 240.66 1.00293 241.215C1.25409 241.76 1.60469 242.397 2.03125 243.1C2.88408 244.503 4.02296 246.138 5.2334 247.765C7.46484 250.764 9.91383 253.705 11.2041 255.101C12.6092 254.006 13.2964 253.149 13.5723 252.438C13.8536 251.713 13.7335 251.075 13.3633 250.347C13.1741 249.975 12.925 249.591 12.6367 249.169C12.3538 248.755 12.029 248.298 11.7188 247.813C11.0921 246.835 10.4853 245.686 10.2178 244.255C10.1268 243.768 10.097 242.922 10.1113 241.946C10.1259 240.957 10.1868 239.792 10.2881 238.646C10.3892 237.501 10.5314 236.365 10.7129 235.435C10.8036 234.97 10.9058 234.547 11.0205 234.196C11.1306 233.86 11.2691 233.536 11.4551 233.313L11.5752 233.17L11.7607 233.141L12.3818 233.042L12.6221 233.004L12.8008 233.169C13.5115 233.828 13.8541 234.848 14.0488 235.916C14.2457 236.996 14.3078 238.235 14.3779 239.408C14.4493 240.601 14.5292 241.726 14.7471 242.649C14.9486 243.503 15.2474 244.083 15.6709 244.402C15.813 244.393 15.8971 244.388 15.9805 244.381C16.0763 244.372 16.0761 244.366 16.0615 244.372C16.0618 244.372 16.0796 244.363 16.1709 244.29C16.2425 244.233 16.3438 244.153 16.4863 244.045C16.5924 243.786 16.6919 243.4 16.7666 242.882C16.8496 242.306 16.902 241.606 16.9297 240.815C16.985 239.234 16.937 237.32 16.832 235.366C16.6221 231.457 16.1876 227.426 15.915 225.647L15.9131 225.64C15.7445 224.401 15.2188 222.81 14.749 221.135C14.2949 219.516 13.8882 217.798 14.0762 216.464C14.8517 210.956 16.1865 205.057 17.5625 199.206C18.9406 193.346 20.3593 187.539 21.3125 182.185C22.011 178.26 23.9637 162.389 25.9414 147.279C26.9292 139.733 27.9227 132.382 28.7666 126.826C29.1884 124.05 29.5739 121.715 29.9033 120.027C30.0678 119.184 30.2198 118.493 30.3574 117.986C30.4259 117.734 30.4934 117.517 30.5605 117.345C30.594 117.259 30.6307 117.176 30.6709 117.103C30.708 117.035 30.7644 116.945 30.8457 116.869L31.085 116.646L31.3848 116.775C31.7111 116.916 31.9463 117.202 32.1191 117.493C32.2978 117.794 32.4483 118.166 32.5781 118.571C32.8382 119.382 33.0395 120.404 33.2021 121.437C33.3653 122.473 33.4929 123.542 33.6006 124.454C33.7098 125.379 33.7959 126.119 33.8779 126.531C34.2611 128.46 34.5294 130.452 34.7861 132.431C35.0436 134.415 35.2894 136.383 35.627 138.286C38.3028 153.373 38.6158 168.474 36.9707 183.682C36.8664 184.655 36.6794 185.673 36.4824 186.675C36.284 187.684 36.0762 188.669 35.9219 189.61L35.9189 189.628L35.915 189.645C32.8913 202.411 32.3238 215.579 31.5234 228.667L30.9971 237.306C29.7761 257.509 28.8641 277.989 33.6621 297.669L33.9121 298.726C36.432 309.645 36.7384 320.611 36.457 331.573C36.166 342.915 35.2507 354.197 35.4785 365.521C35.5009 366.636 35.7591 368.096 36.0938 369.597C36.4277 371.094 36.826 372.585 37.1211 373.778C40.4163 387.107 43.5127 400.426 45.9668 413.953L45.9912 414.087L45.9443 414.215C44.8453 417.211 43.0753 419.863 41.2314 422.375L40.958 422.74C40.3256 423.57 39.727 424.25 39.1865 424.857C38.5638 425.558 38.0329 426.146 37.5898 426.771C36.7892 427.9 36.2643 429.163 36.1934 431.374C38.4228 431.391 43.1811 431.468 47.8438 431.457C50.3655 431.451 52.8459 431.418 54.8594 431.336C55.8663 431.295 56.7519 431.241 57.4648 431.173C58.0841 431.113 58.5455 431.041 58.8408 430.968C58.9241 430.839 59.0095 430.627 59.0713 430.3C59.1484 429.891 59.1802 429.369 59.1709 428.754C59.1522 427.524 58.9727 425.995 58.7334 424.414C58.4945 422.835 58.1995 421.225 57.9531 419.829C57.7098 418.45 57.5081 417.251 57.4707 416.534C56.8653 404.931 57.2214 393.194 58.6104 381.66C59.8194 371.619 61.3824 362.08 59.7148 352.117C59.4405 350.477 59.1092 348.83 58.7715 347.169C58.4343 345.511 58.0897 343.838 57.791 342.16C57.1935 338.805 56.7745 335.404 56.9551 331.981V331.97C57.1909 328.885 57.8132 325.801 58.4746 322.744C59.1382 319.677 59.8401 316.644 60.2539 313.616L68.5137 252.046C68.7983 249.809 69.0705 244.04 69.3789 238.536C69.5326 235.793 69.696 233.122 69.873 231.013C69.9615 229.959 70.0536 229.038 70.1514 228.316C70.2458 227.619 70.353 227.042 70.4893 226.722L70.5361 226.611L70.627 226.534L71.0869 226.147L71.3271 225.945L71.6133 226.073C72.4537 226.45 72.6509 227.314 72.7236 227.946L72.7676 228.275V228.278C73.249 232.014 73.3131 236.007 73.4072 239.945C73.5016 243.897 73.626 247.797 74.2197 251.401C77.2976 270.084 79.9979 288.718 81.8643 307.561L82.2256 311.333L82.2266 311.341L82.2842 312.017C82.6041 315.394 83.3751 318.774 84.1152 322.197C84.9014 325.834 85.6516 329.515 85.7402 333.205C85.8454 337.591 84.9355 342.054 84.0234 346.447C83.1068 350.863 82.1882 355.208 82.2188 359.449C82.2877 369.067 83.523 378.589 84.4941 388.184C85.4638 397.764 86.168 407.401 85.1504 417.175C84.9574 419.029 84.5125 421.765 84.1885 424.372C83.8763 426.884 83.6733 429.294 83.8496 430.923C84.1256 431.025 84.5307 431.12 85.0684 431.2C85.7606 431.304 86.6208 431.376 87.6035 431.424C89.5685 431.519 91.9862 431.514 94.4561 431.471C99.3009 431.387 104.395 431.157 106.484 431.287C106.668 431.243 106.764 431.146 106.828 430.999C106.911 430.809 106.942 430.525 106.91 430.172C106.879 429.828 106.793 429.465 106.689 429.151C106.583 428.83 106.471 428.598 106.408 428.504V428.503C104.65 425.881 102.463 423.289 100.5 420.742C97.9404 417.42 97.1102 415.099 97.1543 412.603C97.176 411.377 97.4085 410.131 97.7148 408.741C98.0236 407.341 98.4075 405.795 98.7588 403.91C99.9236 397.66 101.417 391.39 102.936 385.136C104.455 378.878 105.997 372.638 107.266 366.431C107.665 364.418 107.609 361.814 107.474 359.12C107.34 356.467 107.129 353.725 107.246 351.52C106.98 339.67 105.995 328.908 106.583 316.92C106.62 311.875 107.379 306.981 108.31 302.145C109.243 297.293 110.344 292.531 111.091 287.67C112.292 279.85 112.865 270.24 112.739 262.25C112.445 243.62 111.189 224.704 109.614 206.13C109.117 200.269 107.874 194.53 106.822 188.697C105.773 182.88 104.918 176.99 105.229 170.904C105.314 168.465 105.185 165.953 105.088 163.398C104.992 160.851 104.929 158.267 105.157 155.733C106.1 145.282 107.556 134.799 109.443 124.473C109.54 123.942 109.607 123.317 109.672 122.634C109.736 121.958 109.8 121.225 109.891 120.506C110.07 119.089 110.366 117.606 111.083 116.582L111.261 116.328L111.566 116.374C111.634 116.384 111.678 116.388 111.74 116.395C111.793 116.4 111.884 116.41 111.981 116.445C112.199 116.524 112.337 116.685 112.448 116.822C112.556 116.955 112.628 117.133 112.68 117.285C112.737 117.453 112.793 117.658 112.847 117.889C112.955 118.35 113.063 118.949 113.172 119.637C113.389 121.013 113.61 122.777 113.814 124.572C114.227 128.183 114.575 131.891 114.728 132.96C115.849 140.829 117.241 148.741 118.237 156.659C119.425 166.091 120.196 175.578 122.081 184.848C122.688 187.832 124.542 195.124 126.15 202.301C126.952 205.876 127.689 209.413 128.171 212.338C128.412 213.8 128.59 215.117 128.681 216.213C128.77 217.296 128.778 218.207 128.653 218.837C128.401 220.114 128.01 221.356 127.634 222.568C127.254 223.79 126.889 224.984 126.662 226.205C126.414 227.54 126.063 231.689 125.91 235.738C125.834 237.757 125.807 239.735 125.866 241.308C125.896 242.095 125.946 242.772 126.021 243.297C126.058 243.559 126.099 243.776 126.145 243.945C126.192 244.121 126.236 244.218 126.263 244.261L126.303 244.316C126.307 244.321 126.31 244.324 126.312 244.326C126.329 244.331 126.355 244.337 126.429 244.348C126.456 244.352 126.489 244.358 126.526 244.363C128.041 243.576 128.328 241.99 128.402 239.911C128.439 238.887 128.425 237.733 128.536 236.663C128.649 235.582 128.896 234.502 129.495 233.581L129.565 233.473L129.68 233.412L130.263 233.103L130.497 232.978L130.731 233.102C131.079 233.285 131.334 233.609 131.525 233.961C131.72 234.319 131.877 234.755 132.005 235.229C132.261 236.177 132.423 237.354 132.53 238.546C132.744 240.913 132.752 243.496 132.81 244.545L132.817 244.684L132.752 244.807C132.153 245.933 131.341 247.303 130.574 248.63C129.862 249.862 129.191 251.055 128.736 252.017C129.241 252.817 129.607 253.335 130.038 253.775C130.449 254.195 130.934 254.558 131.678 255.027C133.344 253.41 135.927 250.482 138.156 247.39C139.335 245.755 140.407 244.086 141.191 242.55C141.983 241 142.453 239.638 142.488 238.604C142.601 235.255 141.864 231.576 141.031 227.794C140.204 224.037 139.283 220.176 139.084 216.556C138.807 211.506 139.121 206.35 139.243 201.346C139.434 193.571 139.516 185.81 139.558 178.032C139.579 174.094 139.735 170.178 139.551 166.283C139.404 163.185 138.843 160.138 138.163 157.086C137.487 154.052 136.683 150.972 136.078 147.899C134.595 140.37 133.613 132.58 132.734 124.979C132.216 120.496 131.703 115.899 131.667 111.353C131.644 108.498 131.808 105.49 131.829 102.617C131.85 99.706 131.729 96.8335 131.147 94.0596C130.224 89.6559 128.28 85.576 125.151 82.3398C122.691 79.7953 119.926 78.1182 116.978 76.6895C115.501 75.9739 113.983 75.3229 112.433 74.6543C110.885 73.9872 109.306 73.3026 107.724 72.5254C105.234 71.3026 100.152 68.4912 95.3389 65.4521C92.9318 63.9323 90.5837 62.3505 88.6562 60.8779C86.7446 59.4174 85.1946 58.026 84.4365 56.8848C84.3913 56.8167 84.3542 56.7648 84.2988 56.6836L84.2148 56.5605L84.2119 56.4111C84.1337 52.3582 84.2157 49.9138 84.5391 47.5303C84.8612 45.156 85.4231 42.8499 86.2861 39.0928L86.3379 38.8662L86.5459 38.7598C88.64 37.6905 90.0625 35.6545 90.7744 33.3252C91.4749 31.0332 91.467 28.5118 90.7744 26.4678C90.191 25.8911 89.9694 25.6936 89.2646 25.2168L89.0342 25.0605L89.0449 24.7822C89.2362 20.0151 89.7392 16.2421 87.9365 11.8076C84.9294 4.41118 77.1347 -0.534928 69.0566 0.685547C64.0444 1.50656 60.4023 3.47219 57.3467 7.53125C53.4951 12.6473 53.4196 18.6475 53.7041 24.9004L53.1943 24.9297C53.1566 24.9558 53.02 25.059 52.8408 25.1924C52.9298 25.2988 53.0421 25.3905 53.125 25.417C53.1953 25.4233 53.3007 25.4142 53.335 25.4062C53.3854 25.3926 53.4225 25.3732 53.4268 25.3711C53.4472 25.3609 53.4628 25.3519 53.4648 25.3506V25.3496ZM53.4648 25.3496C53.4698 25.3466 53.474 25.3448 53.4756 25.3438C53.4775 25.3425 53.4789 25.3412 53.4795 25.3408C53.4788 25.3413 53.4772 25.3416 53.4756 25.3428C53.4728 25.3447 53.469 25.3467 53.4648 25.3496Z" stroke="white" stroke-opacity="0.5"/>
</svg>
