<svg width="44" height="44" viewBox="0 0 44 44" fill="none" xmlns="http://www.w3.org/2000/svg">
<g clip-path="url(#clip0_2575_17212)">
<path d="M15.3283 1.44721C10.932 2.97232 7.14062 5.86703 4.5111 9.70616C1.88157 13.5453 0.552472 18.1265 0.719022 22.7768C0.885572 27.4271 2.53899 31.9015 5.43642 35.5426C8.33385 39.1838 12.3226 41.7999 16.8167 43.0066C20.4602 43.9467 24.2775 43.988 27.9404 43.1269C31.2587 42.3815 34.3266 40.7872 36.8436 38.5C39.4632 36.0468 41.3647 32.926 42.3436 29.4732C43.4075 25.7183 43.5969 21.7695 42.897 17.93H22.437V26.4172H34.2861C34.0493 27.7709 33.5418 29.0628 32.794 30.2158C32.0463 31.3687 31.0736 32.3589 29.9342 33.1272C28.4873 34.0843 26.8562 34.7283 25.1458 35.0178C23.4302 35.3368 21.6706 35.3368 19.9551 35.0178C18.2164 34.6584 16.5716 33.9407 15.1254 32.9107C12.8022 31.2661 11.0578 28.9298 10.1411 26.235C9.20886 23.4898 9.20886 20.5137 10.1411 17.7685C10.7936 15.8442 11.8723 14.0922 13.2967 12.6431C14.9267 10.9545 16.9904 9.74739 19.2613 9.15435C21.5322 8.56131 23.9225 8.60522 26.1701 9.28127C27.9259 9.82025 29.5315 10.7619 30.8589 12.0313C32.1949 10.7021 33.5287 9.3695 34.8601 8.03346C35.5476 7.31502 36.297 6.63096 36.9742 5.89534C34.948 4.00979 32.5697 2.5426 29.9754 1.57784C25.2513 -0.137511 20.0822 -0.183609 15.3283 1.44721Z" fill="white"/>
<path d="M15.3283 1.44693C20.0819 -0.185 25.2509 -0.140115 29.9755 1.57412C32.5701 2.54543 34.9474 4.01969 36.9708 5.91224C36.2833 6.64787 35.558 7.33537 34.8567 8.05037C33.523 9.38182 32.1904 10.7087 30.8589 12.031C29.5315 10.7617 27.9259 9.81996 26.1702 9.28099C23.9233 8.60257 21.533 8.55612 19.2615 9.14673C16.99 9.73734 14.9251 10.9422 13.2933 12.6291C11.8689 14.0781 10.7902 15.8302 10.1377 17.7544L3.01172 12.2372C5.56237 7.17917 9.97867 3.31014 15.3283 1.44693Z" fill="#E33629"/>
<path d="M1.12058 17.7029C1.50359 15.8047 2.13946 13.9665 3.0112 12.2373L10.1371 17.7682C9.20494 20.5135 9.20494 23.4896 10.1371 26.2348C7.76297 28.0681 5.38766 29.9106 3.0112 31.7623C0.828907 27.4184 0.163345 22.469 1.12058 17.7029Z" fill="#F8BD00"/>
<path d="M22.4361 17.9268H42.8961C43.596 21.7662 43.4066 25.715 42.3427 29.4699C41.3638 32.9228 39.4623 36.0436 36.8427 38.4968C34.543 36.7024 32.233 34.9218 29.9333 33.1274C31.0734 32.3583 32.0466 31.367 32.7944 30.2128C33.5421 29.0587 34.0492 27.7654 34.2852 26.4105H22.4361C22.4327 23.5849 22.4361 20.7558 22.4361 17.9268Z" fill="#587DBD"/>
<path d="M3.00781 31.7629C5.38427 29.9295 7.75958 28.087 10.1338 26.2354C11.0523 28.931 12.7992 31.2675 15.125 32.911C16.5757 33.9363 18.224 34.6481 19.965 35.001C21.6805 35.32 23.4401 35.32 25.1556 35.001C26.8661 34.7114 28.4972 34.0675 29.9441 33.1104C32.2438 34.9047 34.5538 36.6854 36.8534 38.4797C34.3368 40.7682 31.2689 42.3637 27.9503 43.11C24.2873 43.9712 20.4701 43.9299 16.8266 42.9897C13.9449 42.2203 11.2533 40.864 8.92031 39.0057C6.45102 37.0452 4.43422 34.5746 3.00781 31.7629Z" fill="#319F43"/>
</g>
<defs>
<clipPath id="clip0_2575_17212">
<rect width="44" height="44" fill="white"/>
</clipPath>
</defs>
</svg>
