<svg width="44" height="44" viewBox="0 0 44 44" fill="none" xmlns="http://www.w3.org/2000/svg">
<g clip-path="url(#clip0_2575_17208)">
<path d="M22 0C16.1666 0 10.5669 2.31928 6.44531 6.44359C2.31953 10.5696 0.0011806 16.1651 0 22C0 27.8324 2.32031 33.4321 6.44531 37.5564C10.5669 41.6807 16.1666 44 22 44C27.8334 44 33.4331 41.6807 37.5547 37.5564C41.6797 33.4321 44 27.8324 44 22C44 16.1676 41.6797 10.5679 37.5547 6.44359C33.4331 2.31928 27.8334 0 22 0Z" fill="url(#paint0_linear_2575_17208)"/>
<path d="M9.95854 21.7681C16.3729 18.9741 20.6492 17.132 22.7873 16.2419C28.8992 13.7006 30.1676 13.2592 30.996 13.2443C31.1782 13.2413 31.5839 13.2864 31.8485 13.5004C32.0685 13.6808 32.1304 13.9249 32.1614 14.0963C32.1889 14.2674 32.2267 14.6576 32.1957 14.9622C31.8657 18.4409 30.4323 26.8827 29.7035 30.7791C29.3976 32.4278 28.7892 32.9805 28.2014 33.0345C26.9226 33.152 25.9532 32.1902 24.7157 31.3793C22.7804 30.1098 21.6873 29.3199 19.807 28.0814C17.6345 26.65 19.0439 25.8632 20.2814 24.5775C20.6045 24.241 26.2351 19.1208 26.3417 18.6564C26.3554 18.5983 26.3692 18.3818 26.2385 18.2677C26.1114 18.1532 25.9223 18.1924 25.7848 18.2233C25.5889 18.2673 22.4985 20.3119 16.5035 24.3569C15.627 24.9598 14.8329 25.2537 14.1179 25.2382C13.3342 25.2214 11.8217 24.7941 10.6976 24.429C9.32261 23.9811 8.22604 23.7443 8.32229 22.9836C8.37042 22.5876 8.91698 22.1823 9.95854 21.7681Z" fill="white"/>
</g>
<defs>
<linearGradient id="paint0_linear_2575_17208" x1="2200" y1="0" x2="2200" y2="4400" gradientUnits="userSpaceOnUse">
<stop stop-color="#2AABEE"/>
<stop offset="1" stop-color="#229ED9"/>
</linearGradient>
<clipPath id="clip0_2575_17208">
<rect width="44" height="44" fill="white"/>
</clipPath>
</defs>
</svg>
