<svg width="44" height="44" viewBox="0 0 44 44" fill="none" xmlns="http://www.w3.org/2000/svg">
<g clip-path="url(#clip0_2575_17206)">
<mask id="mask0_2575_17206" style="mask-type:luminance" maskUnits="userSpaceOnUse" x="0" y="0" width="44" height="44">
<path d="M43.7821 0H0.217773V44H43.7821V0Z" fill="white"/>
</mask>
<g mask="url(#mask0_2575_17206)">
<path d="M0.217773 21.12C0.217773 11.1639 0.217773 6.18592 3.2801 3.09295C6.34244 0 11.2712 0 21.1287 0H22.8712C32.7287 0 37.6575 0 40.7198 3.09295C43.7821 6.18592 43.7821 11.1639 43.7821 21.12V22.88C43.7821 32.8361 43.7821 37.8141 40.7198 40.9071C37.6575 44 32.7287 44 22.8712 44H21.1287C11.2712 44 6.34244 44 3.2801 40.9071C0.217773 37.8141 0.217773 32.8361 0.217773 22.88V21.12Z" fill="#0077FF"/>
<path d="M23.3977 31.6988C13.4686 31.6988 7.80532 24.8238 7.56934 13.3838H12.5429C12.7063 21.7804 16.3729 25.3371 19.2772 26.0704V13.3838H23.9605V20.6254C26.8285 20.3137 29.8413 17.0138 30.8578 13.3838H35.5411C34.7606 17.8571 31.4933 21.1571 29.1699 22.5137C31.4933 23.6137 35.2146 26.4921 36.6304 31.6988H31.4751C30.3679 28.2154 27.609 25.5204 23.9605 25.1537V31.6988H23.3977Z" fill="white"/>
</g>
</g>
<defs>
<clipPath id="clip0_2575_17206">
<rect width="44" height="44" fill="white"/>
</clipPath>
</defs>
</svg>
