<svg width="44" height="44" viewBox="0 0 44 44" fill="none" xmlns="http://www.w3.org/2000/svg">
<g clip-path="url(#clip0_2575_17210)">
<path d="M0 22C0 9.8494 9.8472 0 22 0C34.1484 0 44 9.8494 44 22C44 34.1506 34.1484 44 22 44C9.8472 44 0 34.1506 0 22Z" fill="#FC3F1D"/>
<path d="M24.4198 14.0547H22.7258C19.6201 14.0547 17.9866 15.6277 17.9866 17.9469C17.9866 20.5685 19.1159 21.7969 21.4351 23.3717L23.3509 24.6624L17.8454 32.8885H13.7314L18.6723 25.5295C15.8306 23.4927 14.2356 21.5145 14.2356 18.1687C14.2356 13.974 17.1598 11.1104 22.7056 11.1104H28.2111V32.8684H24.4198V14.0547Z" fill="white"/>
</g>
<defs>
<clipPath id="clip0_2575_17210">
<rect width="44" height="44" fill="white"/>
</clipPath>
</defs>
</svg>
